<?xml version="1.0" encoding="UTF-8"?>
<svg width="16.0002625px" height="16.6193548px" viewBox="0 0 16.0002625 16.6193548" version="1.1" xmlns="http://www.w3.org/2000/svg" xmlns:xlink="http://www.w3.org/1999/xlink">
    <!-- Generator: Sketch 52.6 (67491) - http://www.bohemiancoding.com/sketch -->
    <desc>Created with Sketch.</desc>
    <g id="Website-Desktop" stroke="none" stroke-width="1" fill="none" fill-rule="evenodd" fill-opacity="0.5">
        <path d="M5.85909614,13.1842856 L5.04908285,14.0204606 C4.34807135,14.7423757 3.20605261,14.7423757 2.50404109,14.0204606 C2.16803557,13.6735259 1.98303254,13.2112925 1.98303254,12.7199747 C1.98303254,12.228657 2.16903559,11.768501 2.50404109,11.4194889 L5.48408999,8.35005141 C6.10110011,7.71331193 7.26311918,6.77638042 8.11013308,7.64891087 C8.49913946,8.04985939 9.12614975,8.04778193 9.5131561,7.64371724 C9.89816242,7.23965254 9.89616238,6.58733216 9.507156,6.18742237 C8.0691324,4.70412062 5.94109749,4.97834447 4.08806708,6.88856291 L1.10801818,9.9590391 C0.393006449,10.6954963 0,11.6770931 0,12.7199747 C0,13.7649338 0.394006465,14.7444531 1.10801818,15.4809104 C1.84403026,16.2391809 2.81004611,16.6193548 3.77706198,16.6193548 C4.74407784,16.6193548 5.71109371,16.2402196 6.44610577,15.4809104 L7.25711908,14.6447353 C7.64612546,14.2448256 7.6481255,13.5935439 7.26211916,13.1905179 C6.87511281,12.787492 6.24810252,12.7854145 5.85909614,13.1842856 Z M14.8912443,1.2555479 C13.344219,-0.337858892 11.1821835,-0.42407321 9.75216002,1.05091874 L8.74314346,2.09172291 C8.35413708,2.49267142 8.35113703,3.14395308 8.73714337,3.54697905 C9.1231497,3.95104374 9.75015999,3.9531212 10.1391664,3.55217268 L11.1491829,2.51240723 C11.8891951,1.74790437 12.860211,2.06471602 13.4952214,2.7170364 C13.831227,3.06500985 14.01723,3.52620451 14.01723,4.01752225 C14.01723,4.50883999 13.831227,4.97003466 13.4952214,5.31696938 L10.3151693,8.59311346 C8.8611454,10.0899187 8.17913421,9.38877813 7.88812943,9.08858611 C7.49912305,8.68763759 6.87211276,8.69075377 6.48710645,9.09377974 C6.10110011,9.49784444 6.10310014,10.1501648 6.49210653,10.5490359 C7.16011749,11.236673 7.92212999,11.5773753 8.72014309,11.5773753 C9.69715912,11.5773753 10.7301761,11.0663218 11.7131922,10.0535632 L14.8932444,6.77845788 C15.6052561,6.04096191 16.0002625,5.06040388 16.0002625,4.01752225 C16.0002625,2.9736019 15.6052561,1.99304387 14.8912443,1.2555479 Z" id="Link" fill="#FFFFFF"></path>
    </g>
</svg>