<?xml version="1.0" encoding="UTF-8"?>
<svg width="84px" height="62px" viewBox="0 0 84 62" version="1.1" xmlns="http://www.w3.org/2000/svg" xmlns:xlink="http://www.w3.org/1999/xlink">
    <!-- Generator: Sketch 52.6 (67491) - http://www.bohemiancoding.com/sketch -->
    <desc>Created with Sketch.</desc>
    <g id="Website-Desktop" stroke="none" stroke-width="1" fill="none" fill-rule="evenodd" fill-opacity="0.2">
        <path d="M24.8371663,32.4799547 C24.7859141,32.7039902 24.3956981,39.6033393 23.6517639,39.6000377 L23.6517639,40 C21.8160014,40 24.4411262,31.122064 24.4419028,30 C25.2075803,30.001415 25.0208202,31.6809735 24.8371663,32.4799547 M21,23 C21.0009273,22.0756059 21.7130569,21.8711134 22.2916623,21.6912479 C22.4710856,21.6358371 23.6709499,20.6467969 23.6737317,21.1349403 C24.2240559,21.6573857 24.0140332,22.0637321 23.5188806,22.3610159 C22.7946966,22.796387 21.4603807,23 21,23 M10.7326817,23.5239888 C10.7326817,24.1553616 7.2395676,24.1619706 7.23732756,23.5239888 C6.03845963,23.5239888 3.75182961,19.1418295 4.0219781,17.5411474 C4.41756868,15.1980624 6.0913245,11.4640186 8.14902272,10.2964414 C8.15036674,9.91664842 8.83402611,9.81443035 8.83268208,10.5207044 C9.32638629,10.5224667 10.8509556,14.1877777 10.9607175,14.6310164 C11.0704793,15.0742552 13.9758076,18.7413285 14,18.7413285 C13.8064608,19.8859947 11.9203494,23.5261918 10.7326817,23.5239888 M67.6361557,19.1510553 C67.6361557,16.661237 69.9982021,17.4588977 70,15.4077702 C69.4916319,15.4077702 64.8920466,15.2424729 64.8920466,16.0950826 C63.7764236,16.0973346 63.4433548,20.7864623 63.4433548,21.7485195 C62.1618717,21.7485195 60.6187879,18.0052344 59.7836438,18.0052344 C59.7818459,16.7562717 56.7338846,17.0066948 56.7338846,17.4706081 C55.6506245,17.4706081 55.1274234,19.1537577 55.8191816,19.1510553 C55.8092929,24.2495978 52.2799327,19.7942283 51.3971431,18.0052344 C50.9602432,17.1192951 48.8054097,11.3055153 48.8054097,10.0601558 C48.0952226,10.0624078 48.7618096,3.2636004 47.8142941,3.260898 L47.8142941,3.03164374 C46.5638254,2.85283443 45.9233086,3.49015225 45.1456987,3.49015225 C43.7442028,3.49015225 43.9253455,6.09302127 43.925795,7.00418306 C44.453491,7.00553427 45.0656902,13.5021224 43.925795,13.4980688 C43.923997,15.1384302 39.7347921,20.4509134 39.0461803,21.9012055 C38.5845586,22.8736219 35.2251039,25.3674938 35.005755,22.8943403 C34.9846292,22.6560781 33.5381848,20.1545493 33.1758995,19.6095638 C32.7102325,19.5577676 28.7507146,20.1595038 28.753861,20.9846389 C27.8764653,20.9846389 27.8378096,21.9692161 27.839158,20.0680723 C27.1415565,18.3569978 25.8083825,19.4226473 25.4757632,18.4637429 C25.3597959,18.1286444 24.9637992,18.3569978 24.5606107,17.6994119 C23.9048113,16.6301593 20.5134431,19.0398062 20.672561,19.838818 C18.9586728,20.2676001 18.0417223,18.2912392 16.8604744,17.6994119 C16.8604744,16.9103089 16.638878,12.8837214 16.2141142,11.8131176 C15.8999239,11.0217625 13.9941053,7.03300875 13.3931432,6.43802865 C12.6955416,5.74756348 9.75231052,3.9991057 9.23630115,4.40671886 C6.31374636,4.40671886 8.14360187,8.8418203 7.10169446,8.83776669 C2.67291371,10.7943099 -1.52842736,16.9648074 0.545049304,22.4358318 C1.47548431,24.889618 2.85001101,26.9380431 5.72941519,27.0961339 C5.73301108,27.7316501 11.9336637,26.5588052 11.752521,25.644941 C12.8110594,25.6462922 15.9471198,22.1097413 15.9457714,21.2138932 C16.3867167,21.2143436 17.570212,21.8930983 18.285793,22.485376 C19.494909,23.486618 17.6214534,24.942315 18.0803781,26.1029991 C18.5267172,27.2312543 23.4157711,24.6801814 23.4171195,25.1864325 C24.2073151,25.1891349 21.6268188,32.5086061 21.0537247,32.9022569 C20.2140858,33.4792209 19.7448229,43.831244 21.0537247,43.82674 C21.0537247,46.0796472 24.5251013,44.7045721 25.3229381,42.9101734 C25.6780317,42.1120623 27.5478914,37.0711712 27.6103699,36.8747962 C27.8054466,36.2613496 28.0454719,33.1634896 28.0679461,32.9022569 C28.3281982,29.8638498 27.8387085,27.4515005 27.839158,24.4986697 C27.6189101,23.1519699 28.4643924,22.6993166 29.468543,22.6389628 C30.3585243,22.5858155 30.7356426,23.6181352 31.1177053,24.2694155 C31.5514588,25.010776 32.1587138,25.5431503 32.4895351,26.1029991 C32.6846118,26.4331432 35.8818023,26.6849176 36.6827854,26.1029991 C37.7862724,25.302636 41.5318351,22.8209249 42.0959395,21.6719513 C42.3472019,21.1607458 45.1020986,16.5549423 45.5268624,16.5535911 C45.1128862,15.7235015 46.6681061,16.449098 46.6703535,17.6994119 C47.0398306,17.7003127 49.3901903,21.1139041 49.4913246,21.6719513 C49.6423517,22.5051936 52.9330351,24.4986697 52.9982105,24.4986697 L55.2856423,24.4986697 C55.2856423,24.4815545 57.9910956,22.6632845 57.8773758,22.207028 C58.7282518,21.8660742 60.3765152,25.1774245 60.927135,24.9571782 C60.4511298,25.7530373 64.4223343,25.9106777 64.6632585,25.1864325 C66.1393689,25.9259914 67.5233348,19.1515057 67.6361557,19.1510553 M83.8212758,18.5520164 C83.818131,17.1430003 79.3987673,18.1193614 79.4019121,20.2093427 C79.3232917,20.2355507 78.4840754,21.5606122 78.4872202,20.6615427 C78.1493772,20.7450531 76.0198881,17.4579411 75.6681181,17.1958606 C75.4744873,17.0514942 75.4740381,17.2171824 75.2107721,17.0448311 C74.8100328,16.783639 73.1235134,17.7400109 72.4675949,17.9492311 C71.1849596,18.3578991 71.6593774,19.5887892 72.0102489,19.7575869 C72.7353534,20.1062873 76.2000411,23.7345481 76.2013889,24.1272247 L78.2585472,24.1272247 C78.2558517,23.3956202 79.2662358,24.8512777 78.4872202,25.1066952 C78.4867709,26.1208137 78.2585472,26.3557978 78.2585472,27.367251 C77.9256461,27.3685836 76.8635971,36.8403522 76.4300619,37.4631266 C76.1308552,37.8931164 75.1047469,43.7246306 74.9820991,44.168835 C74.5310428,45.8021742 72.2245456,57.2830789 71.0196321,57.2790811 C71.0160381,58.1475005 69.3367068,56.6216587 69.6475942,55.6963811 C69.3236783,55.6963811 67.7669948,50.3508264 68.4287538,50.3472728 C68.7522205,48.7468046 64.9941664,49.7791354 65.0000068,51.5528433 C65.2852865,51.5528433 65.5449583,57.2790811 66.1424732,57.2790811 C66.1424732,58.0906424 67.6012181,61.4243957 68.4287538,61.4230631 C68.8941864,62.8214183 73.3818375,61.4150675 73.3818375,59.9913926 C74.481175,60.6425961 77.8456779,47.141006 78.2585472,45.0732349 C78.3398631,44.6663438 79.9679788,37.5946111 80.0879311,37.2370266 C80.448237,36.1576101 82.681505,24.5798689 82.9070332,24.5794247 C82.9070332,23.2685778 84.5288592,19.2516382 83.8212758,18.5520164 M33.0485997,2.90054366 C33.14632,2.66961165 35.0421803,0.482146896 33.1945344,0.0362564175 C32.4196596,-0.150862412 30.916833,0.43240067 30.5659869,0.733159959 C30.0201306,1.20004426 29.8582679,2.14796086 30.1277521,2.90054366 C30.8367626,4.87943938 32.6895743,3.74805504 33.0485997,2.90054366" id="OgilvyLogo" fill="#000000"></path>
    </g>
</svg>