<?xml version="1.0" encoding="UTF-8"?>
<svg width="76.1863459px" height="16px" viewBox="0 0 76.1863459 16" version="1.1" xmlns="http://www.w3.org/2000/svg" xmlns:xlink="http://www.w3.org/1999/xlink">
    <!-- Generator: Sketch 52.6 (67491) - http://www.bohemiancoding.com/sketch -->
    <desc>Created with Sketch.</desc>
    <g id="Website-Desktop" stroke="none" stroke-width="1" fill="none" fill-rule="evenodd" fill-opacity="0.2">
        <path d="M45.7658818,0 L42.322209,0 L42.322209,11.2363205 C42.322209,12.7873962 42.5885143,13.8688802 43.1624598,14.633915 C43.8427918,15.5351516 44.9425716,15.9742504 46.5268508,15.9742504 C47.8014569,15.9742504 49.0320176,15.6957479 49.7496188,15.4721328 L49.7496188,12.3686261 C49.3064543,12.4811113 47.9424022,12.7731662 47.1543283,12.7731662 C46.6501779,12.7731662 46.2991699,12.6654244 46.0836863,12.4533288 C45.7658818,12.1362019 45.7658818,11.590039 45.7658818,11.0655599 L45.7658818,5.59647637 C47.1238353,5.59647637 48.8084025,5.68998814 49.7496188,5.79298662 L49.7496188,2.74775538 L45.7658818,2.74775538 L45.7658818,0 Z M17.3403354,7.38133153 C17.6859224,6.14196171 18.5458242,5.34440115 19.9234288,5.34440115 C21.2034559,5.34440115 22.0850415,6.24157208 22.1778757,7.38133153 L17.3403354,7.38133153 Z M24,3.86650855 C23.013383,2.89954261 21.6432323,2.40758936 19.9274945,2.40758936 C17.9440962,2.40758936 16.3089954,3.14213112 15.1970185,4.52380146 C14.2063358,5.75842792 13.661528,7.48161952 13.661528,9.38641369 C13.661528,12.5624259 15.4545147,15.9573098 20.4872099,15.9573098 C22.4109775,15.9573098 24.2927325,15.3637134 25.3728613,14.8317805 L25.3728613,11.6523801 C24.7799424,11.9817042 22.9341013,12.9737422 20.4221582,12.9290191 C18.5830933,12.8985262 17.5829239,11.9139421 17.276639,10.1690666 L25.5836016,10.1690666 L25.5842792,10.0342199 C25.5998645,8.86328985 25.5836016,7.87464001 25.5463324,7.44231747 C25.4169067,5.97120108 24.8815856,4.73047603 24,3.86650855 L24,3.86650855 Z M34.5810605,2.44147044 C33.4684059,2.44147044 32.2351347,2.85481958 31.7635101,3.03100119 L31.7472472,2.74775538 L28.320515,2.74775538 L28.320515,15.6957479 L31.7635101,15.6957479 L31.7635101,5.99762832 C32.5027952,5.53210232 33.6628833,5.34033542 34.5905472,5.55378621 C35.5182111,5.77062511 35.9701847,6.35270202 35.9701847,8.03252583 L35.9701847,15.6957479 L39.4131797,15.6957479 L39.4131797,7.52227681 C39.4131797,4.10299848 37.831611,2.44147044 34.5810605,2.44147044 L34.5810605,2.44147044 Z M58.4699305,7.60562426 C57.6622057,7.45383703 56.7094698,7.28578689 56.1599187,6.98289006 C55.8888701,6.83720142 55.7465695,6.62984923 55.7540234,6.39878028 C55.7580891,6.17177706 55.9132644,5.96171438 56.1375572,5.84245299 C56.6417076,5.57275961 57.5544638,5.43316957 58.9327461,5.68388955 C60.2663053,5.92580044 61.7299678,6.43808233 62.1941386,6.6352702 L62.1941386,3.50398103 C60.5996951,2.71184144 59.1848213,2.40352363 57.5897002,2.43198374 C56.1077418,2.45773336 54.82907,2.8426224 53.8837879,3.54870405 C52.8883618,4.29612062 52.3320346,5.36811791 52.2744367,6.64882263 C52.1768592,8.79078435 53.5226156,10.07691 56.6288328,10.6847366 C57.2813823,10.8114518 58.2137896,11.0032187 58.6190073,11.1672031 C59.0235473,11.3318652 59.2573268,11.5995257 59.258682,11.8976791 C59.2613925,12.1849907 59.0560732,12.4580722 58.7362358,12.5942741 C58.1494156,12.8402507 57.2156531,12.8009487 56.6017279,12.7392851 C54.8222937,12.5624259 53.1302727,11.9288497 52.5075385,11.6530578 L52.5075385,14.8649839 C53.56124,15.4009826 55.2146366,16.0162629 57.1844825,15.9817042 C59.4375741,15.9424022 62.2354735,15.2715568 62.7450449,12.2988311 C62.9341013,11.1990513 62.7342029,10.1982043 62.168389,9.41419617 C61.4806031,8.4560393 60.4201254,7.96882941 58.4699305,7.60562426 L58.4699305,7.60562426 Z M8.03049297,12.3442317 C7.57174318,12.6518719 6.87311537,12.880908 6.0816534,12.900559 C5.30645435,12.9195324 4.62544469,12.6782992 4.18024733,12.2534305 C3.57716415,11.6788074 3.27155684,10.6962561 3.27155684,9.33288159 C3.27155684,8.00542097 3.64628155,5.76317127 6.13044215,5.58698967 C6.4685753,5.56191767 7.37320007,5.496866 8.03049297,5.47450449 L8.03049297,12.3442317 Z M8.03049297,2.74775538 L6.27003219,2.74775538 C1.08080637,2.74775538 0,6.63188209 0,9.42436049 C0,11.4728104 0.618668474,13.2495341 1.742165,14.427918 C2.70709809,15.434186 4.00067762,15.9701847 5.48602406,15.9701847 C6.48958157,15.9701847 7.32508894,15.785194 8.03049297,15.414535 L8.04811113,15.6957479 L11.4734881,15.6957479 L11.4734881,0 L8.03049297,0 L8.03049297,2.74775538 Z M72.7433508,2.74572251 L72.7433508,12.4445197 C72.0027105,12.9120786 70.8433,13.1031679 69.9142809,12.8870066 C68.9886498,12.6722006 68.5346434,12.0887684 68.5346434,10.4089446 L68.5346434,2.74572251 L65.0943588,2.74572251 L65.0943588,10.9198713 C65.0943588,14.338472 66.6752499,16 69.92309,16 C71.0377774,16 72.2696934,15.5859732 72.7433508,15.4125021 L72.7589361,15.6943927 L76.1863459,15.6943927 L76.1863459,2.74572251 L72.7433508,2.74572251 Z" id="DentsuLogo" fill="#000000"></path>
    </g>
</svg>