<?xml version="1.0" encoding="UTF-8"?>
<svg width="158px" height="30px" viewBox="0 0 158 30" version="1.1" xmlns="http://www.w3.org/2000/svg" xmlns:xlink="http://www.w3.org/1999/xlink">
    <!-- Generator: Sketch 52.6 (67491) - http://www.bohemiancoding.com/sketch -->
    <desc>Created with Sketch.</desc>
    <g id="Website-Desktop" stroke="none" stroke-width="1" fill="none" fill-rule="evenodd" fill-opacity="0.2">
        <g id="LiveNationLogo" fill="#000000">
            <path d="M129.152538,17.9961 C129.152538,18.8265545 128.741253,19.2419182 127.921645,19.2419182 L122.076183,19.2419182 C121.256575,19.2419182 120.846636,18.8265545 120.846636,17.9961 L120.846636,13.6264636 C120.846636,13.2732818 120.964531,12.9781909 121.197628,12.7395545 C121.433148,12.5028273 121.724923,12.3831 122.076183,12.3831 L127.921645,12.3831 C128.293362,12.3831 128.589444,12.4960091 128.812313,12.7245545 C129.03895,12.9506455 129.152538,13.2514636 129.152538,13.6264636 L129.152538,17.9961 Z M127.918684,10.5051 L122.079144,10.5051 C121.218084,10.5051 120.493222,10.8061909 119.899175,11.4132818 C119.304858,12.0187364 119.007161,12.7564636 119.007161,13.6264636 L119.007161,17.9961 C119.007161,18.9179182 119.295975,19.6690091 119.870912,20.2499182 C120.442889,20.8308273 121.180132,21.1207364 122.079144,21.1207364 L127.918684,21.1207364 C128.838691,21.1207364 129.579972,20.8368273 130.143066,20.2632818 C130.707505,19.6927364 130.989052,18.9372818 130.989052,17.9961 L130.989052,13.6264636 C130.989052,12.7275545 130.695662,11.9808273 130.112112,11.3906455 C129.529907,10.7971909 128.799931,10.5051 127.918684,10.5051 L127.918684,10.5051 Z M144.017458,10.5051 L134.967314,10.5051 L134.967314,21.1207364 L136.803829,21.1207364 L136.803829,12.3822818 L144.021764,12.3822818 C144.400749,12.3822818 144.702752,12.4943727 144.922391,12.7177364 C145.14203,12.9391909 145.249965,13.2419182 145.249965,13.6264636 L145.249965,21.1207364 L147.088902,21.1207364 L147.088902,13.6264636 C147.088902,12.7177364 146.799819,11.9685545 146.219229,11.3824636 C145.639986,10.7958273 144.907587,10.5051 144.017458,10.5051 L144.017458,10.5051 Z M150.75897,12.3525545 C150.728016,12.3847364 150.69141,12.4000091 150.647267,12.4000091 L149.725914,12.4000091 L149.725914,12.0771 L150.647267,12.0771 C150.69141,12.0771 150.728016,12.0926455 150.75897,12.1248273 C150.792078,12.1553727 150.806343,12.1932818 150.806343,12.2374636 C150.806343,12.2841 150.792078,12.3201 150.75897,12.3525545 L150.75897,12.3525545 Z M150.928814,11.9505545 C150.850487,11.8709182 150.756279,11.8311 150.647267,11.8311 L149.486088,11.8311 L149.486088,13.2151909 L149.72726,13.2151909 L149.72726,12.9686455 L149.725914,12.9686455 L149.725914,12.6446455 L150.647267,12.6446455 C150.69141,12.6446455 150.728016,12.6615545 150.75897,12.6923727 C150.792078,12.7259182 150.806343,12.7621909 150.806343,12.8063727 L150.806343,13.2132818 L151.045093,13.2132818 C151.045093,13.2132818 151.046977,12.9201 151.046977,12.8063727 C151.046977,12.7027364 151.009563,12.6081 150.933389,12.5221909 C151.009563,12.4351909 151.046977,12.3421909 151.046977,12.2374636 C151.046977,12.1261909 151.009563,12.0301909 150.928814,11.9505545 L150.928814,11.9505545 Z M113.015812,21.1207364 L114.853672,21.1207364 L114.853672,10.4857364 L113.015812,10.4857364 L113.015812,21.1207364 Z M151.437267,13.0521 C151.369706,13.2201 151.277921,13.3673727 151.160027,13.4909182 C151.041863,13.6150091 150.90405,13.7112818 150.744435,13.7816455 C150.58832,13.8501 150.41417,13.8869182 150.228715,13.8869182 C150.042722,13.8869182 149.868841,13.8501 149.709764,13.7816455 C149.550688,13.7112818 149.412067,13.6150091 149.294173,13.4909182 C149.173318,13.3673727 149.083686,13.2201 149.015587,13.0521 C148.949372,12.8843727 148.917073,12.7021909 148.917073,12.5033727 C148.917073,12.3108273 148.949372,12.1297364 149.015587,11.9636455 C149.083686,11.7970091 149.173318,11.6530091 149.294173,11.5302818 C149.412067,11.4083727 149.550688,11.3131909 149.709764,11.2428273 C149.868841,11.1713727 150.042722,11.1361909 150.228715,11.1361909 C150.41417,11.1361909 150.58832,11.1713727 150.744435,11.2428273 C150.90405,11.3131909 151.041863,11.4083727 151.160027,11.5302818 C151.277921,11.6530091 151.369706,11.7970091 151.437267,11.9636455 C151.502136,12.1297364 151.53605,12.3108273 151.53605,12.5033727 C151.53605,12.7021909 151.502136,12.8843727 151.437267,13.0521 L151.437267,13.0521 Z M151.696742,11.8703727 C151.613839,11.6742818 151.499175,11.5041 151.353287,11.3606455 C151.21036,11.2174636 151.041056,11.1037364 150.847795,11.0224636 C150.654803,10.9420091 150.449699,10.8994636 150.228715,10.8994636 C150.013383,10.8994636 149.804241,10.9420091 149.612326,11.0224636 C149.417989,11.1037364 149.247069,11.2174636 149.102527,11.3606455 C148.955294,11.5041 148.838745,11.6742818 148.754497,11.8703727 C148.669441,12.0642818 148.62772,12.2770091 148.62772,12.5033727 C148.62772,12.7354636 148.669441,12.9511909 148.754497,13.1486455 C148.838745,13.3441909 148.955294,13.5157364 149.102527,13.6608273 C149.247069,13.8064636 149.417989,13.9177364 149.612326,13.9990091 C149.804241,14.0800091 150.013383,14.1201 150.228715,14.1201 C150.449699,14.1201 150.654803,14.0800091 150.847795,13.9990091 C151.041056,13.9177364 151.21036,13.8064636 151.353287,13.6608273 C151.499175,13.5157364 151.613839,13.3441909 151.696742,13.1486455 C151.782337,12.9511909 151.826211,12.7354636 151.826211,12.5033727 C151.826211,12.2770091 151.782337,12.0642818 151.696742,11.8703727 L151.696742,11.8703727 Z M73.9556279,10.5051 L64.904139,10.5051 L64.904139,21.1207364 L66.744691,21.1207364 L66.744691,12.3822818 L73.9602037,12.3822818 C74.3389193,12.3822818 74.6411918,12.4943727 74.8600232,12.7177364 C75.0804695,12.9391909 75.1900198,13.2419182 75.1900198,13.6264636 L75.1900198,21.1207364 L77.0276109,21.1207364 L77.0276109,13.6264636 C77.0276109,12.7177364 76.7371816,11.9685545 76.159553,11.3824636 C75.5778869,10.7958273 74.8444116,10.5051 73.9556279,10.5051 L73.9556279,10.5051 Z M96.9479925,12.3822818 L102.009376,12.3822818 L102.009376,21.1207364 L103.84589,21.1207364 L103.84589,12.3822818 L108.928268,12.3822818 L108.928268,10.5045545 L96.9479925,10.5045545 L96.9479925,12.3822818 Z M91.88957,16.3908273 L83.5836688,16.3908273 L83.5836688,13.6256455 C83.5836688,12.7971 83.9919925,12.3822818 84.8142923,12.3822818 L90.6600232,12.3822818 C91.4766705,12.3822818 91.88957,12.7971 91.88957,13.6256455 L91.88957,16.3908273 Z M90.6570624,10.5045545 L84.8142923,10.5045545 C83.9168954,10.5045545 83.1809976,10.7917364 82.6063298,11.3751 C82.0343537,11.9562818 81.7455394,12.7062818 81.7455394,13.6256455 L81.7455394,21.1207364 L83.5836688,21.1207364 L83.5836688,18.2710091 L91.88957,18.2710091 L91.88957,21.1207364 L93.7276995,21.1207364 L93.7276995,13.6256455 C93.7276995,12.7177364 93.4372702,11.9680091 92.8593724,11.3824636 C92.278783,10.7947364 91.544231,10.5045545 90.6570624,10.5045545 L90.6570624,10.5045545 Z M26.6285717,5.14819091 C26.5790453,5.05628182 26.4942583,5.12773636 26.4942583,5.12773636 C26.4942583,5.12773636 26.2318221,5.3271 26.0913179,5.42146364 C25.951352,5.51828182 25.9615802,5.62682727 25.9615802,5.68791818 C25.9615802,5.74791818 25.9166296,6.10519091 25.9166296,6.10519091 C25.9099005,6.18755455 25.8662957,6.25300909 25.8348034,6.29364545 L23.5404388,8.09446364 L23.2551237,8.16182727 L22.5469499,8.50928182 L22.5884014,8.02000909 C22.6379278,8.04919091 22.718139,8.12364545 22.7741254,8.1321 C22.841955,8.14273636 22.9458528,8.11328182 22.9458528,8.11328182 C22.9458528,8.11328182 22.9068239,8.02000909 22.9068239,7.96437273 C22.9068239,7.90955455 22.9200129,7.82473636 22.9200129,7.82473636 C22.9200129,7.82473636 23.0290249,7.89155455 23.1070828,7.89319091 C23.1719516,7.89755455 23.2384354,7.86973636 23.2782719,7.8411 C23.3173009,7.80864545 23.354984,7.7661 23.354984,7.7661 C23.354984,7.7661 23.2222855,7.68319091 23.1778733,7.63764545 C23.1463809,7.60246364 23.0998153,7.55037273 23.1315768,7.55037273 C23.1980606,7.55173636 23.2960368,7.45682727 23.2960368,7.45682727 C23.2960368,7.45682727 23.2249772,7.41428182 23.1719516,7.36873636 C23.1116586,7.31800909 23.0866262,7.27682727 23.0610555,7.20728182 C23.0362923,7.14346364 23.0247182,7.08728182 23.0247182,7.08728182 C23.0247182,7.08728182 23.0653622,7.1421 23.1587625,7.14046364 C23.2384354,7.13746364 23.3084184,7.08728182 23.3084184,7.08728182 C23.3084184,7.08728182 23.2465104,7.0521 23.2069431,7.00900909 C23.1617233,6.96046364 23.130231,6.90837273 23.1086978,6.84237273 C23.0798971,6.74746364 23.066708,6.70191818 23.042214,6.62800909 C23.0319857,6.59419091 23.0247182,6.53882727 22.9975325,6.44637273 C22.9671169,6.23664545 22.8780232,6.14937273 22.8780232,6.14937273 C22.6075121,5.78419091 21.9908545,5.68628182 21.9908545,5.68628182 C21.6753928,5.61946364 21.3615462,6.0351 21.2345002,6.45237273 C21.0245513,7.1421 21.0864593,7.82255455 21.0864593,7.82255455 C21.0864593,7.82255455 21.0966876,7.95100909 21.2089295,8.02300909 C21.274875,8.06555455 21.5402719,8.12664545 21.5402719,8.12664545 L21.5117404,8.68982727 L20.8573997,8.74791818 C20.8573997,8.74791818 20.3650964,8.4501 19.9573111,8.20219091 L18.1356007,6.83500909 C18.1356007,6.83500909 18.0588886,6.78591818 18.0491986,6.64082727 C18.0491986,6.64082727 18.004248,6.28464545 18.004248,6.22328182 C18.004248,6.16355455 18.0147455,6.05446364 17.8731646,5.95682727 C17.7323911,5.86055455 17.47157,5.66446364 17.47157,5.66446364 C17.47157,5.66446364 17.3870521,5.59164545 17.3359107,5.68355455 C17.285846,5.77382727 17.0293315,6.23364545 17.0293315,6.23364545 L17.1633758,6.75646364 C17.1633758,6.75646364 17.2209772,6.85982727 17.3011884,6.9561 L17.4169295,7.07582727 L18.0936109,7.68864545 L18.1068,7.69300909 L19.2130692,8.69419091 L19.5298767,9.00646364 C19.5298767,9.00646364 19.5527557,9.04600909 19.5527557,9.10764545 C19.5527557,9.16846364 19.5468341,9.36100909 19.5468341,9.36100909 C19.5468341,9.36100909 19.5425274,9.41964545 19.5785956,9.45264545 C19.6162787,9.48946364 20.2092497,9.97955455 20.2092497,9.97955455 C20.2092497,9.97955455 20.2515087,10.0144636 20.2515087,10.1011909 L20.3575598,13.7121 C20.3575598,13.7121 20.3575598,13.7682818 20.4151612,13.7682818 L20.6051918,13.8408273 L21.0390862,17.7858273 L21.8713451,20.3933727 L20.5462446,21.0430091 C20.5462446,21.0430091 20.4988716,21.0670091 20.4746467,21.1264636 C20.4746467,21.1264636 20.3965888,21.2772818 20.3965888,21.3086455 C20.3965888,21.3596455 20.4372327,21.3716455 20.4372327,21.3716455 L22.4142514,21.3746455 L22.2258358,21.8958273 L22.1763094,22.0349182 C22.1763094,22.0349182 22.1063264,22.3002818 22.2199141,22.3409182 C22.3332327,22.3780091 22.6847625,22.3930091 22.8373792,22.3840091 C23.0319857,22.3736455 23.3835155,22.3469182 23.4395019,22.2899182 C23.4919891,22.2361909 23.516214,21.9956455 23.2338596,20.3947364 L23.0653622,14.2338273 L23.5708545,10.3720091 C23.6174201,9.94491818 23.6744831,9.89637273 23.6744831,9.89637273 C23.6744831,9.89637273 24.2106603,9.49082727 24.26234,9.44228182 C24.3150964,9.39319091 24.3054065,9.31519091 24.3054065,9.31519091 L24.3054065,8.88373636 C24.3054065,8.79946364 24.3374371,8.74328182 24.3374371,8.74328182 L24.7734848,8.31619091 L24.9048375,8.18173636 L26.3028818,6.82246364 L26.547553,6.53964545 L26.6646399,6.42073636 C26.7464661,6.32446364 26.7994917,6.22328182 26.7994917,6.22328182 C26.7994917,6.22328182 26.8990828,5.96800909 26.9351509,5.88100909 C26.9712191,5.79291818 26.9351509,5.69691818 26.9351509,5.69691818 C26.9351509,5.69691818 26.6802514,5.24146364 26.6285717,5.14819091 L26.6285717,5.14819091 Z" id="Fill-4"></path>
            <path d="M42.8438129,11.3742273 C42.2683376,11.9551364 41.9819458,12.7081364 41.9819458,13.6269545 L41.9819458,17.9976818 C41.9819458,18.8985 42.2699526,19.6435909 42.8516187,20.2351364 C43.4292474,20.8280455 44.1627227,21.1206818 45.052583,21.1206818 L53.9630293,21.1206818 L53.9630293,19.2418636 L45.0480072,19.2418636 C44.6679458,19.2418636 44.3699799,19.1311364 44.1481877,18.9075 C43.9293564,18.6846818 43.8187295,18.3800455 43.8187295,17.9976818 L43.8187295,16.7540455 L53.9630293,16.7540455 L53.9630293,14.8722273 L43.8187295,14.8722273 L43.8187295,13.6269545 C43.8187295,12.7984091 44.2297448,12.3822273 45.0480072,12.3822273 L53.9630293,12.3822273 L53.9630293,10.5045 L45.052583,10.5045 C44.1524944,10.5045 43.4176733,10.7916818 42.8438129,11.3742273 L42.8438129,11.3742273 Z M156.600583,25.6935 C156.600583,27.1905 155.425677,28.4057727 153.984028,28.4057727 L3.93301567,28.4057727 C2.49028995,28.4057727 1.31780613,27.1905 1.31780613,25.6935 L1.31780613,4.05122727 C1.31780613,2.55259091 2.49028995,1.3365 3.93301567,1.3365 L153.984028,1.3365 C155.425677,1.3365 156.600583,2.55259091 156.600583,4.05122727 L156.600583,25.6935 Z M153.984028,0.000136363636 L3.93301567,0.000136363636 C1.76004463,0.000136363636 -2.69165248e-05,1.81977273 -2.69165248e-05,4.04986364 L-2.69165248e-05,25.6935 C-2.69165248e-05,27.9235909 1.76004463,29.7407727 3.93301567,29.7424091 L153.984028,29.7424091 C156.156999,29.7407727 157.918147,27.9235909 157.918147,25.6935 L157.918147,4.04986364 C157.918147,1.81977273 156.156999,0.000136363636 153.984028,0.000136363636 L153.984028,0.000136363636 Z M33.7460276,17.8727727 C33.6771213,18.0263182 33.5516903,18.1021364 33.3748487,18.1021364 C33.1942388,18.1021364 33.0717687,18.0263182 33.0004399,17.8727727 L29.5064058,10.5045 L27.4725932,10.5045 L32.0554007,20.2855909 C32.3159526,20.8427727 32.7552303,21.1206818 33.3748487,21.1206818 C33.9923138,21.1206818 34.4315915,20.8427727 34.6926818,20.2855909 L39.2733359,10.5045 L37.2384467,10.5045 L33.7460276,17.8727727 Z M9.60002078,10.5036818 L7.76189131,10.5036818 L7.76189131,21.1206818 L17.4833325,21.1206818 L17.4833325,19.2565909 L9.60002078,19.2565909 L9.60002078,10.5036818 Z" id="Fill-1"></path>
        </g>
    </g>
</svg>