<?xml version="1.0" encoding="UTF-8"?>
<svg width="14.0202666px" height="16.6193548px" viewBox="0 0 14.0202666 16.6193548" version="1.1" xmlns="http://www.w3.org/2000/svg" xmlns:xlink="http://www.w3.org/1999/xlink">
    <!-- Generator: Sketch 52.6 (67491) - http://www.bohemiancoding.com/sketch -->
    <desc>Created with Sketch.</desc>
    <g id="Website-Desktop" stroke="none" stroke-width="1" fill="none" fill-rule="evenodd" fill-opacity="0.5">
        <path d="M0.0341333332,4.43182799 L3.19999999,4.43182799 L3.19999999,16.6193548 L0.0341333332,16.6193548 L0.0341333332,4.43182799 Z M9.69279997,4.43293595 C8.53333331,4.43293595 7.95519998,5.00685766 7.46666665,5.39575057 L7.46666665,4.43182799 L4.28373332,4.43182799 L4.28373332,16.6193548 L7.46666665,16.6193548 L7.46666665,8.94675271 C7.46666665,8.94675271 7.35039998,7.41888002 9.11359998,7.41888002 C10.176,7.41888002 10.6666666,8.04709164 10.6666666,8.94675271 L10.6666666,16.6193548 L14.0202666,16.6193548 L14.0202666,9.05422454 C14.0202666,4.89938584 10.8,4.43293595 9.69279997,4.43293595 Z M0,1.66193552 C-8.5178758e-09,2.25568789 0.304958266,2.8043377 0.799999991,3.10121389 C1.29504172,3.39809007 1.90495828,3.39809007 2.4,3.10121389 C2.89504173,2.8043377 3.2,2.25568789 3.19999999,1.66193552 C3.20000001,1.06818315 2.89504173,0.519533331 2.40000001,0.222657142 C1.90495828,-0.0742190473 1.29504171,-0.0742190473 0.799999986,0.222657142 C0.304958258,0.519533331 -1.47533929e-08,1.06818315 0,1.66193552 Z" id="Linkedin" fill="#FFFFFF"></path>
    </g>
</svg>