<?xml version="1.0" encoding="UTF-8"?>
<svg width="16px" height="16px" viewBox="0 0 16 16" version="1.1" xmlns="http://www.w3.org/2000/svg" xmlns:xlink="http://www.w3.org/1999/xlink">
    <!-- Generator: Sketch 52.6 (67491) - http://www.bohemiancoding.com/sketch -->
    <desc>Created with Sketch.</desc>
    <g id="Website-Desktop" stroke="none" stroke-width="1" fill="none" fill-rule="evenodd" fill-opacity="0.5">
        <path d="M15.278,0 L0.722,0 C0.324,0 0,0.323 0,0.721 L0,15.279 C0,15.676 0.324,16 0.722,16 L15.278,16 C15.676,16 16,15.676 16,15.279 L16,0.721 C16,0.323 15.676,0 15.278,0 Z M10.792,8 C10.792,9.542 9.542,10.792 8,10.792 C6.458,10.792 5.208,9.542 5.208,8 C5.208,6.458 6.458,5.208 8,5.208 C9.542,5.208 10.792,6.458 10.792,8 Z M14,14 L2,14 L2,7 L3.317,7 C3.248,7.323 3.208,7.657 3.208,8 C3.208,10.642 5.358,12.792 8,12.792 C10.642,12.792 12.792,10.642 12.792,8 C12.792,7.657 12.752,7.323 12.683,7 L14,7 L14,14 Z M14,5 L11,5 L11,2 L14,2 L14,5 Z" id="Instagram" fill="#FFFFFF"></path>
    </g>
</svg>