<?xml version="1.0" encoding="UTF-8"?>
<svg width="16.0002625px" height="16px" viewBox="0 0 16.0002625 16" version="1.1" xmlns="http://www.w3.org/2000/svg" xmlns:xlink="http://www.w3.org/1999/xlink">
    <!-- Generator: Sketch 52.6 (67491) - http://www.bohemiancoding.com/sketch -->
    <desc>Created with Sketch.</desc>
    <g id="Website-Desktop" stroke="none" stroke-width="1" fill="none" fill-rule="evenodd" fill-opacity="0.5">
        <path d="M5.85909614,12.6929457 L5.04908285,13.4979589 C4.34807135,14.1929703 3.20605261,14.1929703 2.50404109,13.4979589 C2.16803557,13.1639535 1.98303254,12.7189462 1.98303254,12.2459384 C1.98303254,11.7729306 2.16903559,11.3299234 2.50404109,10.9939179 L5.48408999,8.03886937 C6.10110011,7.42585931 7.26311918,6.52384451 8.11013308,7.36385829 C8.49913946,7.74986463 9.12614975,7.74786459 9.5131561,7.35885821 C9.89816242,6.96985183 9.89616238,6.34184152 9.507156,5.9568352 C8.0691324,4.52881177 5.94109749,4.7928161 4.08806708,6.63184628 L1.10801818,9.58789479 C0.393006449,10.2969064 0,11.2419219 0,12.2459384 C0,13.2519549 0.394006465,14.1949704 1.10801818,14.903982 C1.84403026,15.633994 2.81004611,16 3.77706198,16 C4.74407784,16 5.71109371,15.634994 6.44610577,14.903982 L7.25711908,14.0989688 C7.64612546,13.7139625 7.6481255,13.0869522 7.26211916,12.6989458 C6.87511281,12.3109395 6.24810252,12.3089394 5.85909614,12.6929457 Z M14.8912443,1.20875729 C13.344219,-0.325267877 11.1821835,-0.408269239 9.75216002,1.01175406 L8.74314346,2.0137705 C8.35413708,2.39977684 8.35113703,3.02678713 8.73714337,3.41479349 C9.1231497,3.80379988 9.75015999,3.80579991 10.1391664,3.41979357 L11.1491829,2.41877715 C11.8891951,1.68276507 12.860211,1.98777008 13.4952214,2.61578038 C13.831227,2.95078588 14.01723,3.39479316 14.01723,3.86780093 C14.01723,4.34080869 13.831227,4.78481597 13.4952214,5.11882145 L10.3151693,8.27287321 C8.8611454,9.71389685 8.17913421,9.03888578 7.88812943,8.74988103 C7.49912305,8.3638747 6.87211276,8.36687475 6.48710645,8.75488112 C6.10110011,9.1438875 6.10310014,9.7718978 6.49210653,10.1559041 C7.16011749,10.817915 7.92212999,11.1459204 8.72014309,11.1459204 C9.69715912,11.1459204 10.7301761,10.6539123 11.7131922,9.67889628 L14.8932444,6.52584454 C15.6052561,5.81583289 16.0002625,4.8718174 16.0002625,3.86780093 C16.0002625,2.86278443 15.6052561,1.91876894 14.8912443,1.20875729 Z" id="Link" fill="#FFFFFF"></path>
    </g>
</svg>