<?xml version="1.0" encoding="UTF-8"?>
<svg width="16px" height="12.9983752px" viewBox="0 0 16 12.9983752" version="1.1" xmlns="http://www.w3.org/2000/svg" xmlns:xlink="http://www.w3.org/1999/xlink">
    <!-- Generator: Sketch 52.6 (67491) - http://www.bohemiancoding.com/sketch -->
    <desc>Created with Sketch.</desc>
    <g id="Website-Desktop" stroke="none" stroke-width="1" fill="none" fill-rule="evenodd" fill-opacity="0.5">
        <path d="M15.5580552,0.239970004 C14.9241345,0.61592301 14.2212223,0.888888889 13.4733158,1.03687039 C12.8743907,0.397950256 12.0214973,0 11.0776153,0 C9.26484189,0 7.79502562,1.46981627 7.79502562,3.2815898 C7.79502562,3.53855768 7.824022,3.78952631 7.880015,4.02949631 C5.15235596,3.89251344 2.73365829,2.58567679 1.11486064,0.599925009 C0.831896013,1.08386452 0.670916135,1.64779403 0.670916135,2.24971879 C0.670916135,3.38857643 1.25084364,4.39345082 2.13073366,4.98137733 C1.5928009,4.96337958 1.08686414,4.81539808 0.64391951,4.56942882 C0.64391951,4.58342707 0.64391951,4.59642545 0.64391951,4.6104237 C0.64391951,6.20022497 1.77577803,7.52705912 3.27659043,7.82902137 C3.0016248,7.904012 2.71166104,7.944007 2.41169854,7.944007 C2.19972503,7.944007 1.99475066,7.92300962 1.79377578,7.88501437 C2.21172353,9.18885139 3.42357205,10.1377328 4.85939258,10.1647294 C3.73653293,11.0446194 2.32070991,11.5695538 0.782902137,11.5695538 C0.517935258,11.5695538 0.256967879,11.5535558 0,11.5235596 C1.4528184,12.4544432 3.1776028,12.9983752 5.03137108,12.9983752 C11.0686164,12.9983752 14.3702037,7.99700037 14.3702037,3.65954256 C14.3702037,3.5175603 14.3672041,3.37557805 14.360205,3.23459568 C15.0031246,2.77365329 15.560055,2.19572553 16,1.53780777 C15.4110736,1.79877515 14.7791526,1.97575303 14.1152356,2.05474316 C14.7931509,1.6487939 15.3130859,1.00487439 15.5580552,0.239970004 Z" id="Twitter" fill="#FFFFFF"></path>
    </g>
</svg>