<?xml version="1.0" encoding="UTF-8"?>
<svg width="14.0202666px" height="16px" viewBox="0 0 14.0202666 16" version="1.1" xmlns="http://www.w3.org/2000/svg" xmlns:xlink="http://www.w3.org/1999/xlink">
    <!-- Generator: Sketch 52.6 (67491) - http://www.bohemiancoding.com/sketch -->
    <desc>Created with Sketch.</desc>
    <g id="Website-Desktop" stroke="none" stroke-width="1" fill="none" fill-rule="evenodd" fill-opacity="0.5">
        <path d="M0.0341333332,4.2666667 L3.19999999,4.2666667 L3.19999999,16 L0.0341333332,16 L0.0341333332,4.2666667 Z M9.69279997,4.26773336 C8.53333331,4.26773336 7.95519998,4.8202667 7.46666665,5.19466669 L7.46666665,4.2666667 L4.28373332,4.2666667 L4.28373332,16 L7.46666665,16 L7.46666665,8.61333335 C7.46666665,8.61333335 7.35039998,7.14240002 9.11359998,7.14240002 C10.176,7.14240002 10.6666666,7.74720002 10.6666666,8.61333335 L10.6666666,16 L14.0202666,16 L14.0202666,8.71680002 C14.0202666,4.71680003 10.8,4.26773336 9.69279997,4.26773336 Z M0,1.60000004 C-8.5178758e-09,2.17162499 0.304958266,2.69982822 0.799999991,2.9856407 C1.29504172,3.27145318 1.90495828,3.27145318 2.4,2.9856407 C2.89504173,2.69982822 3.2,2.17162499 3.19999999,1.60000004 C3.20000001,1.02837508 2.89504173,0.500171841 2.40000001,0.21435936 C1.90495828,-0.0714531201 1.29504171,-0.0714531201 0.799999986,0.21435936 C0.304958258,0.500171841 -1.47533929e-08,1.02837508 0,1.60000004 Z" id="Linkedin" fill="#FFFFFF"></path>
    </g>
</svg>