<?xml version="1.0" encoding="UTF-8"?>
<svg width="88px" height="29px" viewBox="0 0 88 29" version="1.1" xmlns="http://www.w3.org/2000/svg" xmlns:xlink="http://www.w3.org/1999/xlink">
    <!-- Generator: sketchtool 53 (72520) - https://sketchapp.com -->
    <title>99CC9D78-DB09-48B7-AEA0-24A0D959B3A7</title>
    <desc>Created with sketchtool.</desc>
    <g id="Website-Desktop" stroke="none" stroke-width="1" fill="none" fill-rule="evenodd" fill-opacity="0.2">
        <g id="ButterflyWebsiteHome" transform="translate(-281.000000, -712.000000)" fill="#000000">
            <g id="Home-Slide" transform="translate(0.000000, -484.000000)">
                <g id="Customers" transform="translate(158.000000, 1170.000000)">
                    <path d="M205.815099,53.0207935 L205.815099,52.6544338 L206.059609,52.6544338 C206.184698,52.6544338 206.317882,52.6811518 206.317882,52.8281005 C206.317882,53.0102683 206.181864,53.0207935 206.029653,53.0207935 L205.815099,53.0207935 Z M206.505313,52.8390305 C206.505313,52.6054509 206.366865,52.5022225 206.086732,52.5022225 L205.63617,52.5022225 L205.63617,53.6863132 L205.815099,53.6863132 L205.815099,53.1730048 L206.021556,53.1730048 L206.334075,53.6863132 L206.535269,53.6863132 L206.198057,53.1649085 C206.372128,53.1434532 206.505313,53.05075 206.505313,52.8390305 L206.505313,52.8390305 Z M184.029449,28.8669613 C184.22619,29.1701695 184.107983,29.6114205 184.107174,29.9599682 C183.843233,32.3180293 182.825117,34.3716677 181.14553,36.1435533 C180.679585,36.5022214 180.178016,36.9653325 179.551359,36.7888321 C179.225886,36.6714351 179.099583,36.3342222 179.065578,36.020084 C179.1178,34.4631564 179.854163,33.1875769 180.660154,31.9464069 C181.431331,30.833564 182.492357,29.7332705 183.622202,28.9819295 C183.73879,28.900966 183.890192,28.8434819 184.029449,28.8669613 L184.029449,28.8669613 Z M178.836047,42.0040941 C178.687479,41.2483001 178.155954,40.3981836 177.354415,40.1860593 C175.520188,39.7496662 174.005361,40.9183739 172.826938,42.2854421 C171.343687,44.3605359 170.383056,46.6700189 170.477783,49.3665073 C170.500858,49.4126564 170.512597,49.5057644 170.593966,49.4830947 C171.25908,48.706655 172.086932,47.9310249 172.925309,47.3529458 C173.368179,47.0169474 173.868938,46.7979412 174.288734,46.4510127 C174.456328,44.9871931 174.855478,43.6290309 175.801131,42.4935183 C176.209187,42.0761516 176.710756,41.5782262 177.313934,41.8478346 C177.986335,42.3502129 177.785546,43.3484925 177.701344,44.0804023 C177.193298,46.5307617 175.953747,48.6993683 174.111424,50.5761015 C172.898996,51.6172918 171.34976,52.7281106 169.737372,51.8622062 C167.905574,50.6012002 168.496202,47.8371073 168.932595,46.0376942 C170.343788,41.2426326 172.822485,36.8815353 176.090171,32.8604845 C177.921564,30.7866052 179.904765,28.597353 182.383461,27.7690967 C182.569272,27.735092 182.825117,27.6431985 182.975709,27.7946002 C183.021858,27.8642288 182.95223,27.9221176 182.917415,27.9800065 C181.390849,29.1369745 179.979251,30.6428951 179.067198,32.2431381 C178.271731,33.7162684 177.31191,35.7350926 178.398439,37.3891763 C178.791922,37.9134147 179.418579,38.1133945 180.070335,37.9757566 C181.559253,37.5511032 182.574535,36.2297794 183.45056,34.9663444 C184.549234,33.1572156 185.357654,31.172801 185.307457,28.8948937 C185.343486,28.6625286 185.228518,28.36013 185.472623,28.2330174 C187.693451,27.8686818 189.654791,28.6775068 191.359072,29.83407 L195.011334,32.345152 C195.092297,32.391706 195.219815,32.4269251 195.301588,32.3459617 C196.013257,31.4306696 196.679181,30.5263077 197.472623,29.6458299 C197.565731,29.5413871 197.647909,29.3559807 197.473838,29.2624679 C196.093815,28.3973732 194.725533,27.4982739 193.287217,26.7955109 C190.804472,25.5551506 187.36312,25.9036983 184.884828,26.8942864 C184.686872,26.9635102 184.52454,26.8469228 184.385283,26.7303354 C183.667542,26.0886999 182.609754,26.0032834 181.668149,26.1397068 C178.214247,26.7902483 175.360285,28.9183731 172.724519,31.547257 C170.00698,34.3502124 168.090575,37.5280286 166.498428,40.822837 L165.63131,42.8764755 C164.692538,45.5693205 163.727049,49.145477 165.123669,51.9277867 C165.723203,53.2312985 167.044932,54.212171 168.462197,54.2979923 C172.156561,54.6477545 175.07165,51.7180913 176.918022,48.8191942 C178.06406,46.7546257 179.129539,44.5386555 178.836047,42.0040941 L178.836047,42.0040941 Z M206.032891,53.9498493 C205.562493,53.9498493 205.195729,53.5859185 205.195729,53.0916365 C205.195729,52.6054509 205.562493,52.2382816 206.032891,52.2382816 C206.497217,52.2382816 206.863576,52.6054509 206.863576,53.0916365 C206.863576,53.5859185 206.497217,53.9498493 206.032891,53.9498493 L206.032891,53.9498493 Z M206.032891,52.0674486 C205.467766,52.0674486 204.989272,52.5022225 204.989272,53.0916365 C204.989272,53.6863132 205.467766,54.1210871 206.032891,54.1210871 C206.591944,54.1210871 207.070033,53.6863132 207.070033,53.0916365 C207.070033,52.5022225 206.591944,52.0674486 206.032891,52.0674486 L206.032891,52.0674486 Z M166.989877,36.5131515 C167.257056,36.4791468 167.501971,36.2589262 167.618963,36.0269659 C168.098671,35.1452737 168.520086,34.2405069 168.906687,33.3240004 L168.813984,33.2304876 L166.524742,33.1993167 C166.211008,33.2329165 165.850721,33.2203672 165.617546,33.4754021 C165.045134,34.3328052 164.658534,35.273196 164.202304,36.1779627 C164.17842,36.2824056 164.096647,36.4099231 164.188945,36.5030311 C165.072257,36.5876379 166.060011,36.5329876 166.989877,36.5131515 L166.989877,36.5131515 Z M203.599129,42.4384631 C202.637688,44.8062398 201.607023,47.1379877 200.20514,49.318334 C199.784535,49.921107 199.340451,50.6518024 198.653476,51.0096609 C198.478999,51.0667402 198.258374,51.0545956 198.119521,50.9145288 C197.864487,50.6582794 197.947474,50.2396983 197.971763,49.9028903 L198.30088,48.7653535 C199.227102,46.5254991 200.210808,44.2977892 202.064871,42.4566799 C202.484262,42.1559006 202.928347,41.5296481 203.496306,41.7992565 C203.693856,41.9389185 203.634753,42.2295773 203.599129,42.4384631 L203.599129,42.4384631 Z M186.878148,45.2511341 C186.784636,45.4134658 186.55227,45.3547673 186.424753,45.3074037 C185.775021,45.0730144 185.207467,44.4087092 185.163342,43.6994691 C185.18925,42.94408 185.505818,42.2364592 186.157978,41.8085673 C186.379009,41.7049341 186.646593,41.6243754 186.902033,41.6948136 C187.157472,41.7773964 187.365548,42.021906 187.446107,42.2664157 C187.651754,43.3132734 187.276489,44.3459625 186.878148,45.2511341 L186.878148,45.2511341 Z M186.069728,47.0962916 C185.3447,48.4880536 184.548829,50.0194777 183.209289,51.0137091 C182.976114,51.1294868 182.685455,51.2448598 182.41868,51.1509422 C182.012244,51.0218054 181.815907,50.6141544 181.794047,50.2190526 C181.798095,49.103376 182.23125,48.1755346 182.62959,47.2351439 C182.980567,46.4931137 183.308469,45.7502739 183.810847,45.0774674 C183.892216,45.0313182 184.020138,45.0434628 184.089766,45.1134962 C184.645176,45.7316523 185.317173,46.2801798 186.013054,46.6307516 C186.198865,46.7364089 186.140166,46.9570344 186.069728,47.0962916 L186.069728,47.0962916 Z M205.048375,40.0613756 C204.769456,40.0488263 204.756502,40.3621549 204.558546,40.5014121 C204.279222,40.6398596 204.10596,40.3370562 203.874,40.2548783 C202.551057,39.6456282 201.200991,40.3386755 200.175184,41.1483102 C197.051613,43.7990542 195.923387,47.4209551 193.36818,50.3753121 C193.018418,50.6995708 192.621697,51.1744216 192.122557,50.9521768 C191.937151,50.8351846 191.856592,50.6254892 191.845662,50.4048638 C191.896669,49.0912315 192.26141,47.8731361 192.62534,46.6773056 C192.824915,46.2364595 192.838274,45.7016958 193.23459,45.3547673 L195.122254,43.8035072 C197.733731,41.4304679 199.880882,38.8234441 201.773403,36.0986185 C201.925614,35.8087693 202.205343,35.5541392 202.229227,35.228666 L202.148264,35.2051866 C201.729683,35.2387865 201.311506,35.2371672 200.950004,35.410429 C199.257463,37.7984466 197.42445,40.1508402 195.162736,42.2004305 C194.859932,42.4085066 194.626353,42.8145384 194.230846,42.8246588 C194.172957,42.7781049 194.149883,42.731146 194.162027,42.6615175 C194.619066,41.4547569 195.204432,40.3058853 195.766318,39.1460836 C197.474243,35.805126 199.333569,32.4993875 201.900516,29.5219558 C202.588705,28.7455161 203.312114,27.9460019 204.208784,27.5079895 C204.38326,27.4501006 204.6387,27.3812817 204.754073,27.5905722 C204.846776,27.8002676 204.811152,27.9860788 204.786863,28.2067042 C204.704281,28.6135457 204.482441,28.9843584 204.469082,29.4025347 C204.492156,29.4260141 204.515636,29.4146792 204.539115,29.4264189 C205.015585,29.2766365 205.736565,29.2094368 205.808217,28.5588953 C205.985527,27.8273904 206.174577,26.87526 205.50258,26.3267325 C204.899807,25.8595732 203.992612,26.123919 203.36393,26.3425203 C200.710353,27.4837004 198.424754,29.9283924 196.63789,32.2925258 C193.777046,36.3848244 191.368382,40.6762932 189.748303,45.295664 L189.573422,45.5158846 C189.165771,45.7239607 188.631008,45.79197 188.166277,45.7203174 C188.073574,45.6846934 187.981276,45.5919903 188.01609,45.464068 C188.3699,44.0245375 189.178321,42.2028594 188.218499,40.7815457 C187.871165,40.3038612 187.37243,40.0698768 186.803257,40.056113 C184.54802,40.1994183 182.76318,42.1340404 181.420806,43.9071405 C179.878856,46.1797851 178.615826,48.558087 178.38508,51.3691387 C178.381437,52.4848153 178.667643,53.6709302 179.758221,54.1397087 C181.070234,54.5279285 182.246633,53.8231415 183.202407,52.9782877 C185.021251,51.2525513 186.178624,49.2580162 187.231554,47.1930429 L187.465134,46.9262683 L188.894544,46.9080515 C188.987247,46.920196 189.103025,47.0250437 189.103025,47.1298914 C188.677966,48.9527839 188.043213,51.0307114 188.641128,52.9272807 C188.836655,53.5090032 189.403804,54.1380894 190.054345,54.1870723 C191.76227,54.3328066 193.04635,52.8143367 194.061632,51.5978605 L194.177815,51.5517113 C194.235299,51.5869304 194.21182,51.6561542 194.258374,51.6913733 C194.325168,52.5864245 194.425968,53.6328774 195.33114,54.0542922 C196.78241,54.4546566 197.90173,53.4122519 198.938872,52.4860298 C198.997165,52.4516203 199.113753,52.4402854 199.159902,52.5103188 C199.390243,52.9989334 199.341665,53.63814 199.85214,53.9887118 C200.489727,54.3392836 201.29248,54.0749379 201.875012,53.7863031 C204.377998,52.4706467 205.978646,49.8729338 207.125898,47.494227 C207.161522,47.3197507 207.371217,47.1234143 207.208885,46.9716078 C206.941706,46.9359839 206.605303,46.8882154 206.360793,47.0035884 C205.904969,47.6877297 205.519178,48.3949456 205.039874,49.0673472 C204.560975,49.7518934 204.024592,50.4234854 203.290658,50.8278979 C203.140066,50.8623074 202.95385,50.849758 202.896366,50.6756866 C202.874506,50.2688451 203.108491,49.8858879 203.284181,49.5264101 L207.192693,41.6373296 L207.824208,40.3613453 C207.848092,40.2803818 207.906386,40.1641992 207.825422,40.0941658 C206.94292,40.0212987 205.966501,40.0528744 205.048375,40.0613756 L205.048375,40.0613756 Z M202.105353,30.8121087 L201.918732,30.9744405 L200.68161,32.5738738 L199.688594,34.069674 C199.641635,34.1623771 199.513308,34.3481883 199.698714,34.3951471 L200.721283,34.4101254 C205.056472,34.3550702 209.065783,30.9412455 210.717842,27.0533796 C210.834835,26.7517907 210.987451,26.438462 211,26.101654 C208.481226,28.6147601 205.685153,30.7432898 202.105353,30.8121087 L202.105353,30.8121087 Z M155.995847,50.083034 C152.270313,48.6062603 147.493468,48.8568422 143.67766,49.9704948 L139.652966,51.1655156 L137.558846,51.8087704 C135.278914,52.4285457 132.335892,53.2434431 130.062438,52.0387066 C127.963055,50.9040036 127.215357,48.5888531 127.398335,46.2303872 C127.769552,42.9776798 129.046346,40.1002381 130.543361,37.3163091 C132.378398,34.2198612 134.562387,31.112888 137.569371,28.6945092 C138.361598,28.1512443 139.142086,27.5031317 140.17599,27.6233624 C140.408355,27.6703212 140.558947,27.8217229 140.685655,28.0200834 C140.732209,28.1593406 140.801028,28.3568915 140.637886,28.4613344 C139.684541,28.5860181 138.856285,29.5357196 138.643756,30.4295563 C138.572508,30.8594724 138.547814,31.3359424 138.883813,31.66263 C139.034,31.8257714 139.231551,31.9079493 139.463916,31.9083541 C140.754474,31.7269959 141.52646,30.3004196 141.774209,29.1742177 C141.963663,28.2216825 141.851124,27.1638947 141.016391,26.544929 C140.077619,25.8215204 138.670474,26.1182515 137.611877,26.3821924 C132.458147,28.0844494 128.093811,33.1827191 125.567751,37.8567403 C124.97105,38.9938722 124.432643,40.1540788 123.998679,41.3495044 C122.661972,44.7382305 122.330831,49.6992671 125.145121,52.509914 C126.927937,54.4684204 129.67017,54.5473597 132.227806,54.3121609 C137.273449,53.6786217 141.686768,51.1375832 147.053837,51.6557494 C148.714397,51.98689 150.33812,52.8410546 151.297537,54.3785509 L151.448534,54.4133652 C154.615015,52.9025868 158.772084,53.7648478 161.964879,54.6360148 C162.034912,54.6481593 162.034912,54.5781259 162.035317,54.520237 C160.567045,52.3071005 158.247036,51.020591 155.995847,50.083034 L155.995847,50.083034 Z M159.295918,36.6839844 C158.242179,39.0043975 157.072256,41.2895914 155.542452,43.4108344 C155.204429,43.7816471 154.853857,44.2569026 154.330833,44.2435437 C154.203316,44.2083246 154.064059,44.1148118 154.006979,43.9868895 C153.822787,43.3472781 154.091991,42.7206208 154.268491,42.1401127 L154.678571,41.1070188 C155.708832,38.9493423 156.820865,36.6754833 158.883409,35.0902185 C159.06922,34.9979202 159.290655,34.8359932 159.522616,34.9412457 C159.615724,34.9999442 159.731906,35.0817173 159.742836,35.1978999 C159.752147,35.7444033 159.472014,36.1965843 159.295918,36.6839844 L159.295918,36.6839844 Z M140.852844,36.828909 C140.735042,37.3167139 140.593761,37.8045189 140.360182,38.2449601 C140.23145,38.4307713 139.98775,38.3137791 139.837158,38.2668203 C139.221835,38.032431 138.573318,37.4256098 138.529193,36.7281095 C138.508547,35.937906 139.010925,35.2306901 139.709235,34.8845713 C139.930266,34.7805332 140.243594,34.7934874 140.452885,34.9104796 C141.067397,35.3310848 140.971456,36.1905121 140.852844,36.828909 L140.852844,36.828909 Z M139.551761,40.1249319 C138.826329,41.5405782 137.937755,43.0128989 136.656103,44.0897131 C136.388114,44.2625701 136.096645,44.4479764 135.748502,44.353654 C135.423434,44.2710713 135.250172,43.9334536 135.181353,43.6423899 C135.210095,42.0737227 135.877234,40.7398495 136.532229,39.4173112 L137.164149,38.3623572 C137.245112,38.2809889 137.292071,38.1648063 137.408658,38.1421365 L137.536176,38.1660208 C138.126399,38.8299212 138.86843,39.3561838 139.634749,39.6606064 C139.715712,39.8120081 139.61046,39.9860796 139.551761,40.1249319 L139.551761,40.1249319 Z M161.330125,33.1580253 C160.958503,33.0637028 160.829366,33.4588046 160.64315,33.6438061 C160.41038,33.7361045 160.259788,33.49119 160.074382,33.4207517 C158.925915,32.8131209 157.576254,33.3195474 156.62129,33.9785901 C153.545083,36.2220878 152.324963,39.6351029 150.026006,42.3927187 C149.022868,43.4812726 147.868734,44.5350122 146.553887,45.0535832 C146.100087,45.1681465 145.658836,45.0151255 145.393276,44.6544333 C145.034608,44.0836408 145.211918,43.2825073 145.353604,42.6667801 C145.870151,40.9604749 146.654687,39.3480874 147.624224,37.8288079 C148.395806,36.6928904 149.260496,35.3359426 150.586678,34.7825573 C150.807708,34.783367 151.016594,34.8072512 151.155851,35.0056117 C151.339638,35.5055611 150.666427,35.3525402 150.444587,35.572356 C149.664504,36.0808066 149.103022,36.9742385 149.297739,37.939323 C149.377893,38.1486136 149.55156,38.358309 149.76085,38.4287472 C150.283469,38.5935079 150.73727,38.3279477 151.098771,37.9802096 C152.043615,36.9260652 152.722899,35.405976 152.030256,34.0324308 C151.765101,33.5551511 151.265961,33.262873 150.755082,33.1794806 C148.025398,32.8912506 146.226795,35.3488968 144.547207,37.2252252 C143.76591,37.9664458 142.892314,38.4748964 141.811857,38.5060673 C141.730488,38.4939228 141.66086,38.4008148 141.661265,38.3194465 C142.072964,36.8916557 142.544981,34.8129186 141.32891,33.6004906 C140.749616,33.0985171 139.936338,33.0260548 139.180544,33.1976974 C136.353704,34.0943678 134.309377,37.0855632 132.976313,39.533089 C132.344393,40.8438875 131.816511,42.2016449 131.544069,43.6650597 C131.399954,44.9544029 131.499944,46.3498084 132.636266,47.1319155 C133.72644,47.7516908 135.110915,47.2914135 136.042805,46.6206312 C138.291565,44.8969189 139.648108,42.4376535 140.899803,40.11805 L141.086424,39.9095691 C141.621188,39.8298201 142.156356,39.7387362 142.714194,39.6946111 C142.829972,39.7180905 142.841307,39.8464176 142.806088,39.9387159 C141.997668,41.900056 140.779977,44.5451326 142.318283,46.561123 C142.955466,47.237168 143.779269,47.5193257 144.732614,47.4063816 C146.79111,47.0181618 148.469078,45.641378 150.019933,44.1127877 C150.066892,44.0779734 150.183075,44.0431591 150.217484,44.1362671 C150.237725,44.9268754 150.060415,45.8437867 150.430013,46.5542411 C150.62635,46.9736319 151.043312,47.3116544 151.484562,47.4063816 C152.913163,47.5857157 153.962449,46.6712333 154.976922,45.7563461 C155.046146,45.7336763 155.127514,45.745416 155.174068,45.8037097 C155.300371,46.304064 155.321421,46.8619023 155.784937,47.2120693 C156.086121,47.5035378 156.574331,47.4703428 156.969433,47.4250032 C159.353807,46.8295169 161.047158,44.5107231 162.343788,42.5165928 C162.764798,41.7510832 163.244102,41.009053 163.548929,40.1965846 C163.351783,40.0099638 163.01457,40.1249319 162.747391,40.089308 C162.491951,40.0536841 162.33974,40.2852396 162.211817,40.4710508 C161.90699,41.1090429 161.532939,41.7118159 161.113143,42.2915144 C160.634244,42.9056223 160.097052,43.6359128 159.410077,44.0289905 C159.282154,44.07433 159.108083,44.0860697 159.027119,43.9460029 C159.004045,43.8298203 159.016594,43.6901583 159.062743,43.5861203 L163.837969,33.8871013 L164.084098,33.2956632 L164.026209,33.2142949 C163.155042,33.1296881 162.178622,33.1730035 161.330125,33.1580253 L161.330125,33.1580253 Z" id="CocaColaLogo"></path>
                </g>
            </g>
        </g>
    </g>
</svg>