<?xml version="1.0" encoding="UTF-8"?>
<svg width="77px" height="16px" viewBox="0 0 77 16" version="1.1" xmlns="http://www.w3.org/2000/svg" xmlns:xlink="http://www.w3.org/1999/xlink">
    <!-- Generator: sketchtool 53 (72520) - https://sketchapp.com -->
    <title>130E71A6-1EF3-44B9-94C2-096FEF3E2B0F</title>
    <desc>Created with sketchtool.</desc>
    <g id="Website-Desktop" stroke="none" stroke-width="1" fill="none" fill-rule="evenodd" fill-opacity="0.2">
        <g id="ButterflyWebsiteHome" transform="translate(-600.000000, -718.000000)" fill="#000000">
            <g id="Home-Slide" transform="translate(0.000000, -484.000000)">
                <g id="Customers" transform="translate(158.000000, 1170.000000)">
                    <path d="M487.765882,32 L484.322209,32 L484.322209,43.2363205 C484.322209,44.7873962 484.588514,45.8688802 485.16246,46.633915 C485.842792,47.5351516 486.942572,47.9742504 488.526851,47.9742504 C489.801457,47.9742504 491.032018,47.6957479 491.749619,47.4721328 L491.749619,44.3686261 C491.306454,44.4811113 489.942402,44.7731662 489.154328,44.7731662 C488.650178,44.7731662 488.29917,44.6654244 488.083686,44.4533288 C487.765882,44.1362019 487.765882,43.590039 487.765882,43.0655599 L487.765882,37.5964764 C489.123835,37.5964764 490.808403,37.6899881 491.749619,37.7929866 L491.749619,34.7477554 L487.765882,34.7477554 L487.765882,32 Z M459.340335,39.3813315 C459.685922,38.1419617 460.545824,37.3444012 461.923429,37.3444012 C463.203456,37.3444012 464.085042,38.2415721 464.177876,39.3813315 L459.340335,39.3813315 Z M466,35.8665086 C465.013383,34.8995426 463.643232,34.4075894 461.927494,34.4075894 C459.944096,34.4075894 458.308995,35.1421311 457.197018,36.5238015 C456.206336,37.7584279 455.661528,39.4816195 455.661528,41.3864137 C455.661528,44.5624259 457.454515,47.9573098 462.48721,47.9573098 C464.410977,47.9573098 466.292733,47.3637134 467.372861,46.8317805 L467.372861,43.6523801 C466.779942,43.9817042 464.934101,44.9737422 462.422158,44.9290191 C460.583093,44.8985262 459.582924,43.9139421 459.276639,42.1690666 L467.583602,42.1690666 L467.584279,42.0342199 C467.599864,40.8632899 467.583602,39.87464 467.546332,39.4423175 C467.416907,37.9712011 466.881586,36.730476 466,35.8665086 L466,35.8665086 Z M476.58106,34.4414704 C475.468406,34.4414704 474.235135,34.8548196 473.76351,35.0310012 L473.747247,34.7477554 L470.320515,34.7477554 L470.320515,47.6957479 L473.76351,47.6957479 L473.76351,37.9976283 C474.502795,37.5321023 475.662883,37.3403354 476.590547,37.5537862 C477.518211,37.7706251 477.970185,38.352702 477.970185,40.0325258 L477.970185,47.6957479 L481.41318,47.6957479 L481.41318,39.5222768 C481.41318,36.1029985 479.831611,34.4414704 476.58106,34.4414704 L476.58106,34.4414704 Z M500.469931,39.6056243 C499.662206,39.453837 498.70947,39.2857869 498.159919,38.9828901 C497.88887,38.8372014 497.74657,38.6298492 497.754023,38.3987803 C497.758089,38.1717771 497.913264,37.9617144 498.137557,37.842453 C498.641708,37.5727596 499.554464,37.4331696 500.932746,37.6838895 C502.266305,37.9258004 503.729968,38.4380823 504.194139,38.6352702 L504.194139,35.503981 C502.599695,34.7118414 501.184821,34.4035236 499.5897,34.4319837 C498.107742,34.4577334 496.82907,34.8426224 495.883788,35.548704 C494.888362,36.2961206 494.332035,37.3681179 494.274437,38.6488226 C494.176859,40.7907843 495.522616,42.07691 498.628833,42.6847366 C499.281382,42.8114518 500.21379,43.0032187 500.619007,43.1672031 C501.023547,43.3318652 501.257327,43.5995257 501.258682,43.8976791 C501.261393,44.1849907 501.056073,44.4580722 500.736236,44.5942741 C500.149416,44.8402507 499.215653,44.8009487 498.601728,44.7392851 C496.822294,44.5624259 495.130273,43.9288497 494.507539,43.6530578 L494.507539,46.8649839 C495.56124,47.4009826 497.214637,48.0162629 499.184482,47.9817042 C501.437574,47.9424022 504.235473,47.2715568 504.745045,44.2988311 C504.934101,43.1990513 504.734203,42.1982043 504.168389,41.4141962 C503.480603,40.4560393 502.420125,39.9688294 500.469931,39.6056243 L500.469931,39.6056243 Z M450.030493,44.3442317 C449.571743,44.6518719 448.873115,44.880908 448.081653,44.900559 C447.306454,44.9195324 446.625445,44.6782992 446.180247,44.2534305 C445.577164,43.6788074 445.271557,42.6962561 445.271557,41.3328816 C445.271557,40.005421 445.646282,37.7631713 448.130442,37.5869897 C448.468575,37.5619177 449.3732,37.496866 450.030493,37.4745045 L450.030493,44.3442317 Z M450.030493,34.7477554 L448.270032,34.7477554 C443.080806,34.7477554 442,38.6318821 442,41.4243605 C442,43.4728104 442.618668,45.2495341 443.742165,46.427918 C444.707098,47.434186 446.000678,47.9701847 447.486024,47.9701847 C448.489582,47.9701847 449.325089,47.785194 450.030493,47.414535 L450.048111,47.6957479 L453.473488,47.6957479 L453.473488,32 L450.030493,32 L450.030493,34.7477554 Z M514.743351,34.7457225 L514.743351,44.4445197 C514.00271,44.9120786 512.8433,45.1031679 511.914281,44.8870066 C510.98865,44.6722006 510.534643,44.0887684 510.534643,42.4089446 L510.534643,34.7457225 L507.094359,34.7457225 L507.094359,42.9198713 C507.094359,46.338472 508.67525,48 511.92309,48 C513.037777,48 514.269693,47.5859732 514.743351,47.4125021 L514.758936,47.6943927 L518.186346,47.6943927 L518.186346,34.7457225 L514.743351,34.7457225 Z" id="DentsuLogo"></path>
                </g>
            </g>
        </g>
    </g>
</svg>