<?xml version="1.0" encoding="UTF-8"?>
<svg width="224px" height="177px" viewBox="0 0 224 177" version="1.1" xmlns="http://www.w3.org/2000/svg" xmlns:xlink="http://www.w3.org/1999/xlink">
    <!-- Generator: Sketch 53 (72520) - https://sketchapp.com -->
    <title>DynamicDashboard</title>
    <desc>Created with Sketch.</desc>
    <defs>
        <filter x="-7.5%" y="-9.7%" width="115.1%" height="119.4%" filterUnits="objectBoundingBox" id="filter-1">
            <feOffset dx="0" dy="2" in="SourceAlpha" result="shadowOffsetOuter1"></feOffset>
            <feGaussianBlur stdDeviation="3" in="shadowOffsetOuter1" result="shadowBlurOuter1"></feGaussianBlur>
            <feColorMatrix values="0 0 0 0 0   0 0 0 0 0   0 0 0 0 0  0 0 0 0.15 0" type="matrix" in="shadowBlurOuter1" result="shadowMatrixOuter1"></feColorMatrix>
            <feMerge>
                <feMergeNode in="shadowMatrixOuter1"></feMergeNode>
                <feMergeNode in="SourceGraphic"></feMergeNode>
            </feMerge>
        </filter>
        <rect id="path-2" x="0" y="0" width="212" height="165" rx="3"></rect>
        <rect id="path-4" x="0" y="0" width="28" height="64" rx="14"></rect>
        <rect id="path-6" x="0" y="0" width="28" height="64" rx="14"></rect>
        <rect id="path-8" x="0" y="0" width="28" height="64" rx="14"></rect>
        <rect id="path-10" x="0" y="0" width="28" height="64" rx="14"></rect>
        <rect id="path-12" x="0" y="0" width="28" height="64" rx="14"></rect>
    </defs>
    <g id="Website-Desktop" stroke="none" stroke-width="1" fill="none" fill-rule="evenodd">
        <g id="ButterflyWebsiteHome" transform="translate(-860.000000, -1369.000000)">
            <g id="Why-Butterfly" transform="translate(-443.000000, 740.000000)">
                <g id="Dashboard" transform="translate(1020.000000, 633.000000)">
                    <g id="DynamicDashboard" filter="url(#filter-1)" transform="translate(289.000000, 0.000000)">
                        <mask id="mask-3" fill="white">
                            <use xlink:href="#path-2"></use>
                        </mask>
                        <use id="Rectangle" fill="#FFFFFF" xlink:href="#path-2"></use>
                        <rect id="Rectangle" fill="#3A3B57" mask="url(#mask-3)" x="31" y="114" width="80" height="40" rx="5"></rect>
                        <circle id="Oval" fill="#D8D8D8" mask="url(#mask-3)" cx="50.5" cy="134.5" r="11.5"></circle>
                        <rect id="Rectangle" fill-opacity="0.5" fill="#FFFFFF" mask="url(#mask-3)" x="70" y="133" width="30" height="3" rx="1.5"></rect>
                        <rect id="Rectangle" fill-opacity="0.5" fill="#FFFFFF" mask="url(#mask-3)" x="70" y="140" width="20" height="3" rx="1.5"></rect>
                        <rect id="Rectangle" fill="#3A3B57" mask="url(#mask-3)" x="121" y="114" width="80" height="40" rx="5"></rect>
                        <circle id="Oval" fill="#D8D8D8" mask="url(#mask-3)" cx="140.5" cy="134.5" r="11.5"></circle>
                        <rect id="Rectangle" fill-opacity="0.5" fill="#FFFFFF" mask="url(#mask-3)" x="160" y="133" width="30" height="3" rx="1.5"></rect>
                        <rect id="Rectangle" fill-opacity="0.5" fill="#FFFFFF" mask="url(#mask-3)" x="160" y="140" width="20" height="3" rx="1.5"></rect>
                        <g id="Group-2" mask="url(#mask-3)">
                            <rect id="Rectangle" fill="#3A3B57" x="0" y="14" width="18" height="151"></rect>
                            <g id="Branding/ButterflyRound" transform="translate(4.000000, 19.000000)">
                                <circle id="Oval" fill="#2CE6CE" cx="5" cy="5" r="5"></circle>
                                <path d="M7.23173549,4.90739342 C7.10037392,5.02816135 6.94534626,5.13180779 6.76708531,5.21823943 C6.64700804,4.90061325 6.42016279,4.63934336 6.09710733,4.45876685 C6.00757495,4.40873975 5.89462379,4.44119439 5.84486469,4.53126493 C5.79510559,4.62136657 5.82738176,4.73498111 5.9169296,4.78503931 C6.19149351,4.93847958 6.34291947,5.14423292 6.42112118,5.35527356 C6.13957029,5.44509529 5.81512362,5.50258679 5.44921875,5.52734375 C5.45824619,5.13082809 5.50941196,4.71891708 5.59965541,4.33645939 C5.77981768,3.57294358 6.30605229,3.2809452 6.60371036,3.17484173 C6.75461075,3.12106688 6.93767912,3.0859375 7.11470343,3.0859375 C7.30333666,3.0859375 7.48512202,3.12584099 7.61373207,3.22556861 C7.74966918,3.3309723 7.82284706,3.4867452 7.83124072,3.68854863 C7.84748701,4.07929492 7.61217081,4.55771693 7.23173549,4.90739342 M6.45665326,6.06793987 C6.38505589,6.45845031 6.13026206,6.89533696 5.90025608,7.02195165 C5.84949709,7.04988296 5.80814304,7.05756834 5.77734648,7.04479042 C5.68846063,7.00788508 5.5333253,6.74055808 5.47025691,6.15532031 C5.4606522,6.06609228 5.4536446,5.97439561 5.44921875,5.8809445 C5.83339191,5.85593208 6.1783471,5.79652953 6.48280882,5.703125 C6.48918635,5.84009554 6.47521725,5.9666947 6.45665326,6.06793987 M3.59842552,5.35527392 C3.67661178,5.14423373 3.82803774,4.93848082 4.10260165,4.78504087 C4.19214949,4.73498277 4.22442566,4.62136848 4.17466656,4.53126702 C4.12490746,4.44118111 4.01197176,4.40872655 3.92242392,4.45876909 C3.59936846,4.63934522 3.37252321,4.90061457 3.25244594,5.21824008 C3.07418499,5.13180862 2.91915733,5.0281624 2.78779576,4.90739472 C2.40736044,4.55771897 2.17204424,4.07928241 2.18829053,3.68853693 C2.19668419,3.48674948 2.26986207,3.33097691 2.40579918,3.22557345 C2.65512028,3.03223009 3.10414248,3.06376715 3.41582089,3.17484667 C3.71347896,3.28096547 4.23971357,3.57294768 4.41987584,4.33646189 C4.51011929,4.71891878 4.56128506,5.13082892 4.5703125,5.52734375 C4.20440763,5.50258684 3.87996096,5.44509546 3.59842552,5.35527392 M4.54927431,6.15532031 C4.48622122,6.74055808 4.33107036,7.00788508 4.24216903,7.04479042 C4.21135708,7.05756834 4.17001835,7.04988296 4.11927467,7.02195165 C3.88925307,6.89533696 3.63445895,6.45845031 3.56289224,6.06793987 C3.54432823,5.9666947 3.53034375,5.84011107 3.53672129,5.703125 C3.84118334,5.79652953 4.18613892,5.85593208 4.5703125,5.8809445 C4.56588664,5.97439561 4.5588944,6.06609228 4.54927431,6.15532031 M8.20200747,3.66899923 C8.18897718,3.35803186 8.06361685,3.10249881 7.83948354,2.93003992 C7.52601297,2.68882947 6.97807474,2.64609369 6.47592068,2.82368769 C5.84694987,3.0461674 5.3935393,3.56355956 5.23192348,4.24321776 C5.13401815,4.65495371 5.07920109,5.09955739 5.07089641,5.52713172 C5.05063052,5.52730186 5.03025618,5.52739466 5.00977337,5.52739466 C4.98927507,5.52739466 4.96890073,5.52730186 4.94863484,5.52713172 C4.94033016,5.09955739 4.8855131,4.65495371 4.78760777,4.24321776 C4.62599195,3.56357503 4.17258138,3.04618286 3.54362607,2.82370315 C3.0414875,2.64607822 2.49350278,2.688814 2.18003222,2.93003992 C1.95589891,3.10249881 1.83055407,3.35803186 1.81752378,3.66899923 C1.79651419,4.17024367 2.07301654,4.74571504 2.53911653,5.17087649 C2.71528104,5.33154941 2.92494314,5.46591268 3.16711123,5.57362602 C3.14664392,5.75118908 3.15414292,5.94059999 3.1909407,6.13890452 C3.28520498,6.64712466 3.60707318,7.16679049 3.93961661,7.34766353 C4.04089958,7.40277304 4.1318017,7.42189046 4.20919323,7.42187499 C4.27869842,7.42187499 4.33732696,7.40645422 4.38277027,7.38781629 C4.73601342,7.24291988 4.87029818,6.66110697 4.9207305,6.19853045 C4.93137474,6.1009017 4.93905967,6.00058166 4.94383176,5.89831276 C4.965709,5.89851383 4.98767921,5.89860664 5.00977337,5.89860664 C5.03185204,5.89860664 5.05382225,5.89851383 5.07569949,5.89831276 C5.08047158,6.00058166 5.08815651,6.1009017 5.09880075,6.19853045 C5.19018318,7.03658789 5.441787,7.30783558 5.63676098,7.38781629 C5.68221979,7.40645422 5.74083283,7.42189046 5.81033802,7.42187499 C5.88774504,7.42187499 5.97864717,7.40275757 6.07991464,7.34767899 C6.41245807,7.16680596 6.73431078,6.64714012 6.82860605,6.13890452 C6.86538833,5.94059999 6.87288733,5.75118908 6.85242002,5.57362602 C7.09458811,5.46591268 7.30423472,5.33154941 7.48041472,5.17087649 C7.94651471,4.74571504 8.22301706,4.17024367 8.20200747,3.66899923" id="Butterfly" fill="#FFFFFF"></path>
                            </g>
                            <path d="M5,0 L207,0 C209.761424,-5.07265313e-16 212,2.23857625 212,5 L212,14 L0,14 L0,5 C-3.38176876e-16,2.23857625 2.23857625,5.07265313e-16 5,0 Z" id="Rectangle" fill-opacity="0.2" fill="#000000"></path>
                            <text id="YOUR-COMPANY-HAPPINE" font-family="SourceSansPro-Bold, Source Sans Pro" font-size="8" font-weight="bold" fill="#3A3B57">
                                <tspan x="27" y="28">YOUR COMPANY HAPPINESS</tspan>
                            </text>
                            <circle id="Oval" fill="#FFFFFF" cx="7.5" cy="7.5" r="2.5"></circle>
                            <circle id="Oval" fill="#FFFFFF" cx="14.5" cy="7.5" r="2.5"></circle>
                            <circle id="Oval" fill="#FFFFFF" cx="21.5" cy="7.5" r="2.5"></circle>
                            <g id="Rectangle" transform="translate(31.000000, 36.000000)">
                                <mask id="mask-5" fill="white">
                                    <use xlink:href="#path-4"></use>
                                </mask>
                                <rect stroke="#ECECEC" stroke-width="2" x="1" y="1" width="26" height="62" rx="13"></rect>
                                <rect fill="#F45D6F" mask="url(#mask-5)" x="0" y="55" width="28" height="9"></rect>
                                <circle id="Oval" fill="#F3F3F3" mask="url(#mask-5)" cx="14" cy="50" r="10"></circle>
                                <g id="Smileys/VeryUnhappy" mask="url(#mask-5)" fill="#F45D6F">
                                    <g transform="translate(6.000000, 42.000000)" id="VeryUnhappy">
                                        <path d="M4.15573333,12.1968 C4.15573333,10.0634667 5.88346667,8.312 8.0152,8.312 C9.81413333,8.312 11.3258667,9.5128 11.7533333,11.1877333 C11.7690667,11.2338667 11.78,11.3 11.7861333,11.3472 C11.8437333,11.6141333 11.8744,11.9301333 11.8744,12.1968 L4.15573333,12.1968 Z M5.38933333,5.0072 C5.97093333,5.0072 6.44186667,5.4784 6.44186667,6.05973333 C6.44186667,6.64106667 5.97093333,7.11253333 5.38933333,7.11253333 C4.808,7.11253333 4.3368,6.64106667 4.3368,6.05973333 C4.3368,5.4784 4.808,5.0072 5.38933333,5.0072 L5.38933333,5.0072 Z M10.6696,5.0072 C11.2506667,5.0072 11.7218667,5.4784 11.7218667,6.05973333 C11.7218667,6.64106667 11.2506667,7.11253333 10.6696,7.11253333 C10.088,7.11253333 9.6168,6.64106667 9.6168,6.05973333 C9.6168,5.4784 10.088,5.0072 10.6696,5.0072 L10.6696,5.0072 Z M8,0 C3.58186667,0 0,3.5816 0,8 C0,12.4181333 3.58186667,16 8,16 C12.4181333,16 16,12.4181333 16,8 C16,3.5816 12.4181333,0 8,0 L8,0 Z"></path>
                                    </g>
                                </g>
                            </g>
                            <g id="Rectangle" transform="translate(66.000000, 36.000000)">
                                <mask id="mask-7" fill="white">
                                    <use xlink:href="#path-6"></use>
                                </mask>
                                <rect stroke="#ECECEC" stroke-width="2" x="1" y="1" width="26" height="62" rx="13"></rect>
                                <rect fill="#AEEA7E" mask="url(#mask-7)" x="0" y="22" width="28" height="42"></rect>
                                <circle id="Oval" fill="#FFFFFF" mask="url(#mask-7)" cx="14" cy="50" r="10"></circle>
                                <g id="Smileys/Happy" mask="url(#mask-7)" fill="#AEEA7E">
                                    <g transform="translate(6.000000, 42.000000)" id="Happy">
                                        <path d="M8,0 C3.58171875,0 0,3.58175 0,8 C0,12.4182812 3.58171875,16 8,16 C12.4182812,16 16,12.4182812 16,8 C16,3.58175 12.4182812,0 8,0 L8,0 Z M10.6694688,5.00715625 C11.250875,5.00715625 11.7220938,5.4784375 11.7220938,6.05978125 C11.7220938,6.641125 11.2509063,7.1124375 10.6694688,7.1124375 C10.0881875,7.1124375 9.6168125,6.641125 9.6168125,6.05978125 C9.6168125,5.4784375 10.0881875,5.00715625 10.6694688,5.00715625 L10.6694688,5.00715625 Z M5.38940625,5.00715625 C5.97084375,5.00715625 6.4420625,5.4784375 6.4420625,6.05978125 C6.4420625,6.641125 5.970875,7.1124375 5.38940625,7.1124375 C4.80815625,7.1124375 4.3368125,6.641125 4.3368125,6.05978125 C4.3368125,5.4784375 4.80815625,5.00715625 5.38940625,5.00715625 L5.38940625,5.00715625 Z M11.6763437,10.4555 C11.6320937,10.52375 10.564375,12.1280313 8.09603125,12.1280313 C5.64971875,12.1280313 4.48775,10.5515313 4.43946875,10.484375 C4.20725,10.161625 4.28078125,9.7116875 4.603625,9.4795 C4.92459375,9.2485625 5.3714375,9.3199375 5.6046875,9.638375 C5.644625,9.6910625 6.42240625,10.688 8.09603125,10.688 C9.76328125,10.688 10.4611875,9.68275 10.4677187,9.67253125 C10.6840312,9.33884375 11.129875,9.24359375 11.4635625,9.45971875 C11.7972812,9.67596875 11.8925,10.12175 11.6763437,10.4555 L11.6763437,10.4555 Z"></path>
                                    </g>
                                </g>
                            </g>
                            <g id="Rectangle" transform="translate(101.000000, 36.000000)">
                                <mask id="mask-9" fill="white">
                                    <use xlink:href="#path-8"></use>
                                </mask>
                                <rect stroke="#ECECEC" stroke-width="2" x="1" y="1" width="26" height="62" rx="13"></rect>
                                <rect fill="#FFAC73" mask="url(#mask-9)" x="0" y="28" width="28" height="36"></rect>
                                <circle id="Oval" fill="#FFFFFF" mask="url(#mask-9)" cx="14" cy="50" r="10"></circle>
                                <g id="Smileys/Neutral" mask="url(#mask-9)" fill="#FFAC73">
                                    <g transform="translate(6.000000, 42.000000)" id="Neutral">
                                        <path d="M11.0722667,11.3968 L5.024,11.3968 C4.6264,11.3968 4.30426667,10.9946667 4.30426667,10.5968 C4.30426667,10.1992 4.6264,9.7968 5.024,9.7968 L11.0722667,9.7968 C11.4698667,9.7968 11.7922667,10.1992 11.7922667,10.5968 C11.7922667,10.9946667 11.4698667,11.3968 11.0722667,11.3968 M5.3896,5.0072 C5.97093333,5.0072 6.4424,5.4784 6.4424,6.05973333 C6.4424,6.64106667 5.97093333,7.11253333 5.3896,7.11253333 C4.80853333,7.11253333 4.33706667,6.64106667 4.33706667,6.05973333 C4.33706667,5.4784 4.80853333,5.0072 5.3896,5.0072 M10.6696,5.0072 C11.2512,5.0072 11.7224,5.4784 11.7224,6.05973333 C11.7224,6.64106667 11.2512,7.11253333 10.6696,7.11253333 C10.0885333,7.11253333 9.61706667,6.64106667 9.61706667,6.05973333 C9.61706667,5.4784 10.0885333,5.0072 10.6696,5.0072 M8.00026667,0 C3.58186667,0 0,3.5816 0,8 C0,12.4181333 3.58186667,16 8.00026667,16 C12.4186667,16 16,12.4181333 16,8 C16,3.5816 12.4186667,0 8.00026667,0"></path>
                                    </g>
                                </g>
                            </g>
                            <g id="Rectangle" transform="translate(136.000000, 36.000000)">
                                <mask id="mask-11" fill="white">
                                    <use xlink:href="#path-10"></use>
                                </mask>
                                <rect stroke="#ECECEC" stroke-width="2" x="1" y="1" width="26" height="62" rx="13"></rect>
                                <rect fill="#AEEA7E" mask="url(#mask-11)" x="0" y="19" width="28" height="45"></rect>
                                <circle id="Oval" fill="#FFFFFF" mask="url(#mask-11)" cx="14" cy="50" r="10"></circle>
                                <g id="Smileys/Happy" mask="url(#mask-11)" fill="#AEEA7E">
                                    <g transform="translate(6.000000, 42.000000)" id="Happy">
                                        <path d="M8,0 C3.58171875,0 0,3.58175 0,8 C0,12.4182812 3.58171875,16 8,16 C12.4182812,16 16,12.4182812 16,8 C16,3.58175 12.4182812,0 8,0 L8,0 Z M10.6694688,5.00715625 C11.250875,5.00715625 11.7220938,5.4784375 11.7220938,6.05978125 C11.7220938,6.641125 11.2509063,7.1124375 10.6694688,7.1124375 C10.0881875,7.1124375 9.6168125,6.641125 9.6168125,6.05978125 C9.6168125,5.4784375 10.0881875,5.00715625 10.6694688,5.00715625 L10.6694688,5.00715625 Z M5.38940625,5.00715625 C5.97084375,5.00715625 6.4420625,5.4784375 6.4420625,6.05978125 C6.4420625,6.641125 5.970875,7.1124375 5.38940625,7.1124375 C4.80815625,7.1124375 4.3368125,6.641125 4.3368125,6.05978125 C4.3368125,5.4784375 4.80815625,5.00715625 5.38940625,5.00715625 L5.38940625,5.00715625 Z M11.6763437,10.4555 C11.6320937,10.52375 10.564375,12.1280313 8.09603125,12.1280313 C5.64971875,12.1280313 4.48775,10.5515313 4.43946875,10.484375 C4.20725,10.161625 4.28078125,9.7116875 4.603625,9.4795 C4.92459375,9.2485625 5.3714375,9.3199375 5.6046875,9.638375 C5.644625,9.6910625 6.42240625,10.688 8.09603125,10.688 C9.76328125,10.688 10.4611875,9.68275 10.4677187,9.67253125 C10.6840312,9.33884375 11.129875,9.24359375 11.4635625,9.45971875 C11.7972812,9.67596875 11.8925,10.12175 11.6763437,10.4555 L11.6763437,10.4555 Z"></path>
                                    </g>
                                </g>
                            </g>
                            <g id="Rectangle" transform="translate(171.000000, 36.000000)">
                                <mask id="mask-13" fill="white">
                                    <use xlink:href="#path-12"></use>
                                </mask>
                                <rect stroke="#ECECEC" stroke-width="2" x="1" y="1" width="26" height="62" rx="13"></rect>
                                <rect fill="#34EA7E" mask="url(#mask-13)" x="0" y="6" width="28" height="58"></rect>
                                <circle id="Oval" fill="#FFFFFF" mask="url(#mask-13)" cx="14" cy="50" r="10"></circle>
                                <g id="Smileys/VeryHappy" mask="url(#mask-13)" fill="#34EA7E">
                                    <g transform="translate(6.000000, 42.000000)" id="VeryHappy">
                                        <path d="M8.05866667,13.1229333 C5.9272,13.1229333 4.1992,11.3968 4.1992,9.26346667 L11.9181333,9.26346667 C11.9181333,11.3968 10.1901333,13.1229333 8.05866667,13.1229333 M5.38933333,5.0072 C5.97093333,5.0072 6.44213333,5.4784 6.44213333,6.05973333 C6.44213333,6.64106667 5.97093333,7.11253333 5.38933333,7.11253333 C4.80826667,7.11253333 4.3368,6.64106667 4.3368,6.05973333 C4.3368,5.4784 4.80826667,5.0072 5.38933333,5.0072 M10.6696,5.0072 C11.2509333,5.0072 11.7221333,5.4784 11.7221333,6.05973333 C11.7221333,6.64106667 11.2509333,7.11253333 10.6696,7.11253333 C10.0882667,7.11253333 9.61706667,6.64106667 9.61706667,6.05973333 C9.61706667,5.4784 10.0882667,5.0072 10.6696,5.0072 M8,0 C3.58186667,0 0,3.58186667 0,8 C0,12.4181333 3.58186667,16 8,16 C12.4184,16 16,12.4181333 16,8 C16,3.58186667 12.4184,0 8,0"></path>
                                    </g>
                                </g>
                            </g>
                        </g>
                    </g>
                </g>
            </g>
        </g>
    </g>
</svg>