<?xml version="1.0" encoding="UTF-8"?>
<svg width="42px" height="42px" viewBox="0 0 42 42" version="1.1" xmlns="http://www.w3.org/2000/svg" xmlns:xlink="http://www.w3.org/1999/xlink">
    <!-- Generator: sketchtool 53 (72520) - https://sketchapp.com -->
    <title>1FB9817A-8D2F-4696-B541-2232D2671519</title>
    <desc>Created with sketchtool.</desc>
    <g id="Website-Desktop" stroke="none" stroke-width="1" fill="none" fill-rule="evenodd" fill-opacity="0.2">
        <g id="ButterflyWebsiteHome" transform="translate(-188.000000, -705.000000)" fill="#000000">
            <g id="Home-Slide" transform="translate(0.000000, -484.000000)">
                <g id="Customers" transform="translate(158.000000, 1170.000000)">
                    <path d="M47.3950496,41.5708673 C44.7778214,42.8417641 41.4572242,45.1157057 41.4572242,47.6132993 C41.4572242,48.5403202 41.921324,49.1240546 42.788233,49.1240546 C45.3459385,49.1240546 46.9165111,45.0555938 47.3950496,41.5708673 M48.0833906,30.6814655 C48.0833906,30.3974069 47.9189667,30.2777723 47.6796975,30.2777723 C46.4532954,30.2777723 44.7180041,33.4784402 44.7180041,35.3928887 C46.6324526,34.3453492 48.0833906,31.9676849 48.0833906,30.6814655 M58.3887634,30.9210294 C58.3887634,30.6366762 58.3292407,30.2777723 57.9700422,30.2777723 C57.1022493,30.2777723 55.7114232,32.1471368 55.7114232,34.5256851 C57.4464198,33.0152244 58.3887634,31.729005 58.3887634,30.9210294 M62.6817601,45.5786269 C62.6817601,48.196739 60.4234358,50.9336018 57.1022493,50.9336018 C53.0941951,50.9336018 51.0598173,47.5531873 51.0598173,44.5325607 C51.0598173,40.2843532 53.9613987,38.4895393 55.1878008,37.8462823 C54.9494156,37.6668304 54.7690797,37.4422945 54.6049504,37.1429133 C53.198507,38.1300462 51.9273156,39.0128671 49.2499754,40.5233278 C49.1306355,42.3785483 48.9662116,44.4126314 48.4873785,45.8184854 C47.5002456,48.7798841 45.4658678,50.9336018 42.788233,50.9336018 C40.5302033,50.9336018 39.4228465,49.3035065 39.4228465,47.5531873 C39.4228465,46.2817012 40.1710048,44.6516059 41.5167469,43.4252038 C43.2072488,41.9147431 45.0621746,40.9868382 47.6201748,39.6405068 C47.6796975,39.2969256 47.7398094,38.9527551 47.7990374,38.534034 C47.1557804,39.1174737 46.2287595,39.356743 45.4658678,39.356743 C44.2544937,39.356743 43.2520381,38.3097928 43.0277969,37.2030252 C41.3974069,37.0833906 40.1710048,35.9165111 40.1105982,34.0621746 C40.1105982,32.7305766 40.6348099,31.5639917 41.5167469,31.5639917 C41.8612121,31.5639917 41.9811413,31.848345 41.9811413,32.0873195 C41.9811413,32.3115608 41.6817601,33.0744524 41.6817601,33.8229054 C41.6817601,34.5857971 42.040664,35.5723406 42.9682742,35.5723406 C42.9682742,32.551714 45.1818093,28.647677 47.7990374,28.647677 C49.5343287,28.647677 49.7733032,29.9338965 49.7733032,30.5170415 C49.7733032,33.254199 47.0364404,36.2757097 44.8229054,37.022984 C44.8827227,37.2628425 45.1219919,37.9060996 45.8250663,37.9060996 C46.6922699,37.9060996 47.7398094,37.0833906 48.2631372,36.4401336 C48.4873785,35.2284648 49.3699047,33.4784402 50.5364895,33.4784402 C50.9997053,33.4784402 51.2242412,33.8229054 51.2242412,34.2416266 C51.2242412,35.1085355 50.2972203,36.215303 49.5938513,36.9634613 C49.4895393,37.5469011 49.4291327,38.1898635 49.4291327,38.7134859 C51.4638051,37.4870838 52.5107553,36.8585601 54.0218053,35.7517926 C53.9021707,35.3478047 53.9021707,34.8695609 53.9021707,34.4063452 C53.9021707,31.6836264 55.7114232,28.647677 58.0899715,28.647677 C59.4357136,28.647677 60.1237599,29.589726 60.1237599,30.6366762 C60.1237599,32.6112366 58.4338474,34.3453492 56.0555938,36.1557804 C56.2350457,36.6198802 56.5191042,37.022984 56.983204,37.2628425 C57.042432,37.1429133 57.8056183,37.022984 58.4338474,37.022984 C59.1369217,37.022984 60.1237599,37.2030252 60.1237599,37.9060996 C60.1237599,38.7134859 59.0166978,38.8935272 58.1500835,38.8935272 C57.6859837,38.9527551 56.9233867,38.7735979 56.9233867,38.7735979 C55.6519006,39.1174737 53.198507,40.5828504 53.198507,44.2924074 C53.198507,46.8056183 54.7690797,49.1240546 57.2221786,49.1240546 C59.0771044,49.1240546 60.5875651,47.7329339 60.647677,45.5786269 C60.647677,44.1883901 60.0639426,42.7224241 58.6728219,42.7224241 C57.9700422,42.7224241 57.3418132,43.2457519 57.3418132,44.0083489 C57.2819959,45.1752284 58.1500835,45.294863 58.1500835,46.0427266 C58.1500835,46.5663491 57.7463903,46.8056183 57.3418132,46.8056183 C56.1758177,46.8056183 55.2927021,45.6390335 55.2927021,44.1883901 C55.2927021,42.4377762 56.8181907,40.9868382 58.7927512,40.9868382 C61.3501621,40.9868382 62.6817601,43.2006679 62.6817601,45.5786269 M69.726353,39.9997053 C69.726353,33.3591003 66.3465278,26.4936647 59.0771044,24.294863 C57.5663491,23.8310579 56.2951576,23.5319713 54.8291916,23.5319713 C51.4638051,23.5319713 51.3435812,25.4467145 49.7733032,25.4467145 C48.9063943,25.4467145 48.3226599,24.8184854 48.3226599,24.0555938 C48.3226599,22.7242903 49.8935272,21.6770455 52.390826,21.6770455 C54.724585,21.6770455 56.5191042,22.2604852 56.8635694,22.4252038 L56.9233867,22.2604852 C56.2951576,22.0215107 54.0810333,21.258619 50.9997053,21.258619 C44.2989883,21.258619 37.4936647,24.6988508 35.2951576,31.9084569 C34.8310579,33.4189176 34.532266,34.7048424 34.532266,36.1557804 C34.532266,39.5364895 36.4467145,39.7009135 36.4467145,41.2717808 C36.4467145,42.0939004 35.8178961,42.6770455 35.0558884,42.6770455 C33.7242903,42.6770455 32.6773401,41.1515568 32.6773401,38.5935566 C32.6773401,36.2757097 33.2607799,34.4658678 33.3653865,34.1216973 L33.2009626,34.0621746 C33.0218053,34.764365 32.258619,36.918672 32.258619,39.9997053 C32.258619,46.745801 35.6991455,53.5514193 42.9078676,55.7649543 C44.4189176,56.2287595 45.705137,56.5131127 47.1557804,56.5131127 C50.5364895,56.5131127 50.6410962,54.5388469 52.2116688,54.5388469 C53.0340831,54.5388469 53.6776348,55.1815146 53.6776348,55.9897849 C53.6776348,57.275415 52.1515568,58.3226599 49.5938513,58.3226599 C47.2760043,58.3226599 45.4060505,57.7392201 45.1219919,57.6198802 L45.0621746,57.7993321 C45.705137,58.083096 47.9189667,58.7266477 50.9997053,58.7266477 C57.6859837,58.7266477 64.551714,55.3459385 66.705137,48.0768097 C67.1689421,46.6261664 67.4530007,45.294863 67.4530007,43.8887143 C67.4530007,40.4635105 65.5388469,40.3441705 65.5388469,38.7735979 C65.5388469,37.9060996 66.1219919,37.3226599 66.9296729,37.3226599 C68.275415,37.3226599 69.3229545,38.8935272 69.3229545,41.4506434 C69.3229545,43.7242903 68.7398094,45.5191042 68.6198802,45.923092 L68.7993321,45.983204 C69.0235733,45.294863 69.726353,43.1414399 69.726353,39.9997053 M70.9984284,39.9997053 C70.9984284,51.0538258 62.0535311,59.9981338 50.9997053,59.9981338 C39.9464689,59.9981338 30.9871329,51.0538258 30.9871329,39.9997053 C30.9871329,28.9464689 39.9464689,19.9868382 50.9997053,19.9868382 C62.0535311,19.9868382 70.9984284,29.0062862 70.9984284,39.9997053 M72,39.9997053 C72,28.4228465 62.5768589,19 50.9997053,19 C39.4228465,19 30,28.4228465 30,39.9997053 C30,51.6213535 39.4228465,61 50.9997053,61 C62.5768589,61 72,51.6213535 72,39.9997053" id="GELogo"></path>
                </g>
            </g>
        </g>
    </g>
</svg>