<svg xmlns="http://www.w3.org/2000/svg" width="84" height="62" viewBox="0 0 84 62">
    <path fill="#000" fill-opacity=".2" fill-rule="evenodd" d="M24.837 32.48c-.051.224-.441 7.123-1.185 7.12v.4c-1.836 0 .79-8.878.79-10 .766.001.579 1.681.395 2.48M21 23c0-.924.713-1.129 1.292-1.309.18-.055 1.379-1.044 1.382-.556.55.522.34.929-.155 1.226-.724.435-2.059.639-2.519.639m-10.267.524c0 .631-3.493.638-3.496 0-1.199 0-3.485-4.382-3.215-5.983.396-2.343 2.07-6.077 4.127-7.245.001-.38.685-.482.684.225.493.001 2.018 3.667 2.128 4.11.11.443 3.015 4.11 3.039 4.11-.194 1.145-2.08 4.785-3.267 4.783m56.903-4.373c0-2.49 2.362-1.692 2.364-3.743-.508 0-5.108-.166-5.108.687-1.116.002-1.449 4.691-1.449 5.654-1.281 0-2.824-3.744-3.66-3.744-.001-1.249-3.05-.998-3.05-.534-1.082 0-1.606 1.683-.914 1.68-.01 5.099-3.54.643-4.422-1.146-.437-.886-2.592-6.7-2.592-7.945-.71.002-.043-6.796-.99-6.8v-.228c-1.251-.18-1.892.458-2.67.458-1.4 0-1.22 2.603-1.22 3.514.528.002 1.14 6.498 0 6.494-.001 1.64-4.19 6.953-4.879 8.403-.461.973-3.82 3.466-4.04.993-.021-.238-1.468-2.74-1.83-3.284-.466-.052-4.425.55-4.422 1.375-.878 0-.916.984-.915-.917-.697-1.711-2.03-.645-2.363-1.604-.116-.335-.512-.107-.915-.765-.656-1.069-4.048 1.34-3.888 2.14-1.714.429-2.631-1.548-3.813-2.14 0-.789-.221-4.815-.646-5.886-.314-.791-2.22-4.78-2.82-5.375-.698-.69-3.642-2.439-4.158-2.031-2.922 0-1.092 4.435-2.134 4.43-4.43 1.957-8.63 8.128-6.557 13.599.93 2.454 2.305 4.502 5.184 4.66.004.636 6.205-.537 6.024-1.451 1.058.001 4.194-3.535 4.193-4.431.44 0 1.624.68 2.34 1.271 1.209 1.002-.665 2.457-.206 3.618.447 1.128 5.336-1.423 5.337-.917.79.003-1.79 7.323-2.363 7.716-.84.577-1.31 10.93 0 10.925 0 2.253 3.471.878 4.269-.917.355-.798 2.225-5.839 2.287-6.035.195-.614.435-3.712.458-3.973.26-3.038-.23-5.45-.229-8.403-.22-1.347.625-1.8 1.63-1.86.89-.053 1.267.98 1.649 1.63.433.742 1.04 1.274 1.372 1.834.195.33 3.392.582 4.193 0 1.103-.8 4.849-3.282 5.413-4.431.251-.511 3.006-5.117 3.43-5.118-.413-.83 1.142-.105 1.144 1.145.37.001 2.72 3.415 2.821 3.973.151.833 3.442 2.827 3.507 2.827h2.288c0-.017 2.705-1.836 2.591-2.292.851-.34 2.5 2.97 3.05 2.75-.476.796 3.495.954 3.736.23 1.476.739 2.86-6.035 2.973-6.036m16.185-.599c-.003-1.409-4.422-.433-4.42 1.657-.078.027-.917 1.352-.914.453-.338.083-2.467-3.204-2.819-3.466-.194-.145-.194.021-.457-.151-.401-.261-2.087.695-2.743.904-1.283.409-.809 1.64-.458 1.809.725.348 4.19 3.977 4.191 4.37h2.058c-.003-.732 1.007.723.228.979 0 1.014-.228 1.249-.228 2.26-.333.002-1.395 9.473-1.829 10.096-.3.43-1.325 6.262-1.448 6.706-.451 1.633-2.757 13.114-3.962 13.11-.004.869-1.683-.657-1.372-1.583-.324 0-1.881-5.345-1.22-5.349.324-1.6-3.434-.568-3.428 1.206.285 0 .545 5.726 1.142 5.726 0 .812 1.46 4.145 2.287 4.144.465 1.398 4.953-.008 4.953-1.432 1.1.652 4.464-12.85 4.877-14.918.08-.407 1.709-7.478 1.829-7.836.36-1.08 2.594-12.657 2.819-12.658 0-1.31 1.622-5.327.914-6.027M33.05 2.901c.097-.231 1.993-2.419.146-2.865-.775-.187-2.278.396-2.629.697-.546.467-.708 1.415-.438 2.168.709 1.978 2.562.847 2.92 0"/>
</svg>
