<?xml version="1.0" encoding="UTF-8"?>
<svg width="224px" height="172px" viewBox="0 0 224 172" version="1.1" xmlns="http://www.w3.org/2000/svg" xmlns:xlink="http://www.w3.org/1999/xlink">
    <!-- Generator: Sketch 53 (72520) - https://sketchapp.com -->
    <title>PersonalGuidance</title>
    <desc>Created with Sketch.</desc>
    <defs>
        <filter x="-7.5%" y="-10.0%" width="115.1%" height="120.0%" filterUnits="objectBoundingBox" id="filter-1">
            <feOffset dx="0" dy="2" in="SourceAlpha" result="shadowOffsetOuter1"></feOffset>
            <feGaussianBlur stdDeviation="3" in="shadowOffsetOuter1" result="shadowBlurOuter1"></feGaussianBlur>
            <feColorMatrix values="0 0 0 0 0   0 0 0 0 0   0 0 0 0 0  0 0 0 0.15 0" type="matrix" in="shadowBlurOuter1" result="shadowMatrixOuter1"></feColorMatrix>
            <feMerge>
                <feMergeNode in="shadowMatrixOuter1"></feMergeNode>
                <feMergeNode in="SourceGraphic"></feMergeNode>
            </feMerge>
        </filter>
        <rect id="path-2" x="0" y="0" width="212" height="160" rx="10"></rect>
    </defs>
    <g id="Website-Desktop" stroke="none" stroke-width="1" fill="none" fill-rule="evenodd">
        <g id="ButterflyWebsiteHome" transform="translate(-571.000000, -1609.000000)">
            <g id="Why-Butterfly" transform="translate(-443.000000, 740.000000)">
                <g id="Personal-Guidance" transform="translate(1020.000000, 873.000000)">
                    <g id="PersonalGuidance" filter="url(#filter-1)">
                        <mask id="mask-3" fill="white">
                            <use xlink:href="#path-2"></use>
                        </mask>
                        <use id="Rectangle" fill="#3A3B57" xlink:href="#path-2"></use>
                        <circle id="Oval" fill="#FFFFFF" mask="url(#mask-3)" cx="16.5" cy="80.5" r="7.5"></circle>
                        <rect id="Rectangle" fill="#F3F3F3" mask="url(#mask-3)" x="34" y="15" width="163" height="130" rx="2"></rect>
                        <g id="Seperator/Vertical" mask="url(#mask-3)" fill="#000000" fill-opacity="0.1">
                            <g transform="translate(78.000000, 15.000000)" id="Rectangle">
                                <rect x="0" y="0" width="1" height="130"></rect>
                            </g>
                        </g>
                        <rect id="Rectangle" fill="#FFFFFF" mask="url(#mask-3)" x="79" y="15" width="118" height="130" rx="2"></rect>
                        <g id="Group" mask="url(#mask-3)">
                            <g transform="translate(109.000000, 34.000000)">
                                <circle id="Oval" stroke="#CCCCCC" stroke-width="3" fill="#FFFFFF" cx="9" cy="16" r="8"></circle>
                                <polygon id="Path" stroke="none" fill="#532EE4" points="9.41350601 19.3857539 0 12.3256244 2.77520814 8.6253469 8.16096207 12.66605 16.0758557 0 20 2.45143386"></polygon>
                                <rect id="Rectangle" stroke="none" fill-opacity="0.2" fill="#000000" x="27" y="11" width="30" height="3" rx="1.5"></rect>
                                <rect id="Rectangle" stroke="none" fill-opacity="0.2" fill="#000000" x="27" y="18" width="20" height="3" rx="1.5"></rect>
                                <circle id="Oval" stroke="#CCCCCC" stroke-width="3" fill="#FFFFFF" cx="9" cy="46" r="8"></circle>
                                <polygon id="Path" stroke="none" fill="#532EE4" points="9.41350601 49.3857539 0 42.3256244 2.77520814 38.6253469 8.16096207 42.66605 16.0758557 30 20 32.4514339"></polygon>
                                <rect id="Rectangle" stroke="none" fill-opacity="0.2" fill="#000000" x="27" y="41" width="30" height="3" rx="1.5"></rect>
                                <rect id="Rectangle" stroke="none" fill-opacity="0.2" fill="#000000" x="27" y="48" width="20" height="3" rx="1.5"></rect>
                                <circle id="Oval" stroke="#CCCCCC" stroke-width="3" fill="#FFFFFF" cx="9" cy="76" r="8"></circle>
                                <rect id="Rectangle" stroke="none" fill-opacity="0.2" fill="#000000" x="27" y="71" width="30" height="3" rx="1.5"></rect>
                                <rect id="Rectangle" stroke="none" fill-opacity="0.2" fill="#000000" x="27" y="78" width="20" height="3" rx="1.5"></rect>
                            </g>
                        </g>
                        <g id="Branding/ButterflyIcon" mask="url(#mask-3)">
                            <g transform="translate(44.000000, 25.000000)">
                                <path d="M2.34375,0 L21.65625,0 C22.9506674,-2.37780616e-16 24,1.04933262 24,2.34375 L24,21.65625 C24,22.9506674 22.9506674,24 21.65625,24 L2.34375,24 C1.04933262,24 1.5852041e-16,22.9506674 0,21.65625 L0,2.34375 C-1.5852041e-16,1.04933262 1.04933262,2.37780616e-16 2.34375,0 Z" id="BG" fill="#2CE6CE"></path>
                                <path d="M18.4865602,11.4800787 C18.1007551,11.8333681 17.6454434,12.1365709 17.1218962,12.3894144 C16.7692327,11.4602443 16.1029949,10.6959365 15.1541904,10.1676857 C14.8912364,10.0213386 14.5595021,10.11628 14.4133611,10.3797685 C14.26722,10.643348 14.3620142,10.9757111 14.6250136,11.1221492 C15.4313998,11.5710168 15.8761335,12.1729189 16.1058096,12.7902882 C15.2789028,13.0530488 14.3260124,13.221232 13.2513605,13.293655 C13.2778738,12.133705 13.4281462,10.9287181 13.6931886,9.80989266 C14.2223199,7.57633611 15.7678556,6.72213652 16.6420687,6.41174594 C17.0852588,6.25443529 17.6229252,6.1516693 18.1428405,6.1516693 C18.6968508,6.1516693 19.2307491,6.26840127 19.6084731,6.5601402 C20.0077164,6.86848365 20.2226377,7.32417504 20.2472896,7.91452217 C20.2950045,9.05759471 19.6038877,10.45715 18.4865602,11.4800787 M16.2402376,14.9344988 C16.0287212,16.0787086 15.2759973,17.3588025 14.5965027,17.7297882 C14.4465481,17.8116279 14.324378,17.8341464 14.2333974,17.7967066 C13.9708066,17.6885726 13.5124985,16.9052947 13.3261789,15.1905267 C13.2978042,14.9290853 13.277102,14.6604107 13.2640269,14.3865955 C14.3989694,14.3133082 15.4180524,14.1392566 16.3175076,13.8655779 C16.3363484,14.2669066 16.2950802,14.6378468 16.2402376,14.9344988 M7.8584428,12.7902882 C8.08807355,12.1729189 8.5328072,11.5710168 9.3391934,11.1221492 C9.6021928,10.9757111 9.69698699,10.643348 9.55084594,10.3797685 C9.4047049,10.1162345 9.07301604,10.0212931 8.81001665,10.1676857 C7.86121217,10.6959365 7.19497427,11.4602443 6.84231084,12.3894144 C6.31876362,12.1365709 5.86345188,11.8333681 5.47764679,11.4800787 C4.36031931,10.45715 3.66920248,9.05754922 3.71691737,7.91447668 C3.74156931,7.32417504 3.95649062,6.86848365 4.35573396,6.5601402 C5.08798275,5.99454061 6.40674788,6.08679799 7.32213832,6.41174594 C8.19635139,6.72218201 9.74188711,7.57633611 10.2710185,9.80989266 C10.5360608,10.9287181 10.6863332,12.133705 10.7128465,13.293655 C9.63819461,13.221232 8.68530418,13.0530488 7.8584428,12.7902882 M10.6380281,15.1905267 C10.4517539,16.9052947 9.99340042,17.6885726 9.73076423,17.7967066 C9.6397382,17.8341464 9.5176135,17.8116279 9.3677043,17.7297882 C8.68816435,17.3588025 7.93544038,16.0787086 7.72401483,14.9344988 C7.66917222,14.6378468 7.62785866,14.2669521 7.64669946,13.8655779 C8.54615466,14.1392566 9.56523759,14.3133082 10.7001801,14.3865955 C10.687105,14.6604107 10.6664482,14.9290853 10.6380281,15.1905267 M21.3359246,7.8688484 C21.2977436,6.9542357 20.9304162,6.20266561 20.2736668,5.69543201 C19.3551438,4.98598734 17.7495899,4.86029348 16.2781916,5.38263037 C14.4351982,6.03698447 13.1066268,7.55873078 12.6330645,9.5577316 C12.3461849,10.7687234 12.1855614,12.0763853 12.1612273,13.3339607 C12.1018447,13.3344611 12.0421444,13.3347341 11.9821262,13.3347341 C11.9220627,13.3347341 11.8623623,13.3344611 11.8029797,13.3339607 C11.7786456,12.0763853 11.6180221,10.7687234 11.3311426,9.5577316 C10.8575802,7.55877627 9.52900878,6.03702996 7.68606084,5.38267586 C6.21470793,4.86024799 4.60901786,4.98594184 3.69049485,5.69543201 C3.03374546,6.20266561 2.66646338,6.9542357 2.62828238,7.8688484 C2.56672064,9.34310127 3.3769204,11.0356693 4.74267403,12.286148 C5.25886653,12.7587168 5.87321277,13.1539041 6.5828072,13.4707091 C6.52283444,13.992955 6.54480781,14.5500476 6.65263166,15.133298 C6.92884231,16.6280677 7.87197185,18.1565013 8.84638166,18.6884824 C9.14315829,18.8505697 9.40951725,18.9067976 9.63628783,18.9067521 C9.83995006,18.9067521 10.0117418,18.8613968 10.1448986,18.8065791 C11.1799622,18.3804119 11.5734398,16.6691923 11.7212152,15.3086689 C11.7524047,15.0215246 11.7749228,14.7264648 11.7889059,14.425673 C11.85301,14.4262644 11.9173865,14.4265373 11.9821262,14.4265373 C12.0468205,14.4265373 12.111197,14.4262644 12.1753012,14.425673 C12.1892842,14.7264648 12.2118024,15.0215246 12.2429918,15.3086689 C12.5107582,17.7735513 13.2480009,18.571341 13.8193084,18.8065791 C13.9525106,18.8613968 14.124257,18.9067976 14.3279192,18.9067521 C14.5547352,18.9067521 14.8210941,18.8505242 15.1178254,18.6885279 C16.0922352,18.1565468 17.0353193,16.6281132 17.3116208,15.133298 C17.4193992,14.5500476 17.4413726,13.992955 17.3813998,13.4707091 C18.0909942,13.1539041 18.7052951,12.7587168 19.221533,12.286148 C20.5872866,11.0356693 21.3974864,9.34310127 21.3359246,7.8688484" id="Butterfly" fill="#FFFFFF"></path>
                            </g>
                        </g>
                    </g>
                </g>
            </g>
        </g>
    </g>
</svg>