<?xml version="1.0" encoding="UTF-8"?>
<svg width="128px" height="19px" viewBox="0 0 128 19" version="1.1" xmlns="http://www.w3.org/2000/svg" xmlns:xlink="http://www.w3.org/1999/xlink">
    <!-- Generator: sketchtool 53 (72520) - https://sketchapp.com -->
    <title>8715A666-9D5D-4668-BBB2-AF7743FE4D8F</title>
    <desc>Created with sketchtool.</desc>
    <g id="Website-Desktop" stroke="none" stroke-width="1" fill="none" fill-rule="evenodd" fill-opacity="0.2">
        <g id="ButterflyWebsiteHome" transform="translate(-421.000000, -717.000000)" fill="#000000">
            <g id="Home-Slide" transform="translate(0.000000, -484.000000)">
                <g id="Customers" transform="translate(158.000000, 1170.000000)">
                    <path d="M334.679385,36.3094467 C332.966438,36.3094467 331.180375,37.0475028 330.369732,38.642827 L330.322047,38.642827 C330.15568,37.1661851 328.655725,36.3094467 327.202926,36.3094467 C325.702971,36.3094467 324.298916,36.9765053 323.441648,38.2369757 L323.393963,38.2369757 L323.680073,36.5944964 L320.702946,36.5944964 C320.631949,36.9765053 320.536049,37.4761369 320.441209,37.951926 L318.203199,48.8569288 L321.393317,48.8569288 L322.655907,43.024008 C323.060169,41.3804691 323.65517,38.7853518 325.821654,38.7853518 C326.631237,38.7853518 327.322138,39.3559809 327.322138,40.2614638 C327.322138,40.9984602 327.085303,42.1423675 326.917876,42.8804235 L325.631444,48.8569288 L328.822092,48.8569288 L330.083622,43.024008 C330.488944,41.3576863 331.03626,38.7853518 333.251488,38.7853518 C334.061071,38.7853518 334.750913,39.3559809 334.750913,40.2614638 C334.750913,40.9984602 334.513018,42.1423675 334.346121,42.8804235 L333.059159,48.8569288 L336.250867,48.8569288 L337.53677,42.9985761 C337.797447,41.9998427 338.085146,40.7610954 338.085146,39.6659326 C338.085146,37.8094012 336.512074,36.3094467 334.679385,36.3094467 L334.679385,36.3094467 Z M351.939723,40.2137789 C351.939723,43.2841555 356.08301,43.4759547 356.08301,45.4522282 C356.08301,46.4514914 354.962945,46.8096578 353.893744,46.8096578 C352.654997,46.8096578 351.748984,46.3555918 350.84615,45.8570199 L350.154719,48.4044522 C351.32035,48.9528284 352.606782,49.1430381 353.893744,49.1430381 C356.630856,49.1430381 359.416183,48.1909299 359.416183,44.9997516 C359.416183,41.9998427 355.273426,41.4281539 355.273426,39.8794549 C355.273426,38.9040342 356.462899,38.642827 357.416597,38.642827 C358.32102,38.642827 359.201601,38.9040342 359.543873,39.0910649 L360.234774,36.6866871 C359.607982,36.5240287 358.41692,36.3094467 357.24917,36.3094467 C354.72611,36.3094467 351.939723,37.333612 351.939723,40.2137789 L351.939723,40.2137789 Z M375.976083,36.3094467 C371.953598,36.3094467 368.999255,39.9764142 368.999255,43.7848468 C368.999255,47.4279718 371.38085,49.1430381 374.905293,49.1430381 C376.213448,49.1430381 377.571937,48.8330864 378.810684,48.4516073 L379.214416,45.9269577 C378.023884,46.4763935 376.762354,46.8096578 375.452609,46.8096578 C373.411166,46.8096578 372.219574,46.0843178 372.065393,44.1567889 L372.063274,44.1567889 C372.058505,44.0449943 372.046849,43.9353191 372.046849,43.8176964 C372.046849,43.7949136 372.048968,43.7721308 372.048968,43.7493481 C372.048968,43.7366321 372.046849,43.7270951 372.046849,43.7138493 L372.048968,43.7138493 C372.063274,42.8745954 372.247655,42.0464679 372.568203,41.2813905 C373.180689,39.7210352 374.047494,38.642827 375.928398,38.642827 C377.261456,38.642827 377.952886,39.3798233 377.952886,40.6906278 C377.952886,40.9756774 377.927984,41.2379443 377.881889,41.5229939 L373.516073,41.5229939 C373.231023,42.4867583 373.182809,43.1320937 373.175921,43.7138493 L380.690528,43.7138493 C380.880738,42.8083664 381.00048,41.9039431 381.00048,40.9756774 C381.00048,37.8570861 378.999834,36.3094467 375.976083,36.3094467 L375.976083,36.3094467 Z M365.272946,45.475011 C365.272946,44.9997516 365.345003,44.5716474 365.415471,44.2855381 L366.582161,38.9278766 L369.440605,38.9278766 L369.940237,36.5944964 L367.082852,36.5944964 L367.868064,32.9513714 L364.44058,34.0714363 L363.893264,36.5944964 L361.583196,36.5944964 L361.082505,38.9278766 L363.392043,38.9278766 L362.487619,43.0716929 C362.274627,44.0471137 362.082828,44.9753794 362.082828,45.9269577 C362.082828,48.28524 363.606625,49.1430381 365.774167,49.1430381 C366.321484,49.1430381 366.939268,48.9756112 367.487114,48.8569288 L368.03549,46.3804939 C367.630169,46.547391 367.05901,46.6655435 366.487851,46.6655435 C365.774167,46.6655435 365.272946,46.213067 365.272946,45.475011 L365.272946,45.475011 Z M389.786155,36.3094467 C388.309513,36.3094467 386.740151,37.5709768 386.167402,38.9040342 L386.119187,38.9040342 L386.547821,36.5944964 L383.500757,36.5944964 C383.404858,37.1661851 383.308958,37.7145613 383.214118,38.2369757 L381.024323,48.8569288 L384.214441,48.8569288 L385.357289,43.3567425 C385.761021,41.3804691 386.856184,39.3559809 389.119096,39.3559809 C389.522828,39.3559809 389.976894,39.4275082 390.334001,39.5461906 L391,36.4281291 C390.619051,36.3322295 390.190946,36.3094467 389.786155,36.3094467 L389.786155,36.3094467 Z M314.398475,45.475011 C314.398475,44.9997516 314.468943,44.5716474 314.54047,44.2855381 L315.70716,38.9278766 L318.564544,38.9278766 L319.065236,36.5944964 L316.207322,36.5944964 L316.993592,32.9513714 L313.56399,34.0714363 L313.016673,36.5944964 L310.707665,36.5944964 L310.207504,38.9278766 L312.516512,38.9278766 L311.612618,43.0716929 C311.397506,44.0471137 311.207297,44.9753794 311.207297,45.9269577 C311.207297,48.28524 312.731624,49.1430381 314.898107,49.1430381 C315.445953,49.1430381 316.064797,48.9756112 316.612643,48.8569288 L317.15943,46.3804939 C316.754638,46.547391 316.184009,46.6655435 315.61285,46.6655435 C314.898107,46.6655435 314.398475,46.213067 314.398475,45.475011 L314.398475,45.475011 Z M343.089939,46.8197247 C342.280356,46.8197247 341.472362,46.3910905 341.472362,45.5332925 C341.472362,43.4627089 344.043637,43.1993824 345.591276,43.1993824 L346.709751,43.1993824 C346.21065,45.1777752 345.473653,46.8197247 343.089939,46.8197247 L343.089939,46.8197247 Z M345.306226,36.3200434 C343.87674,36.3200434 342.495467,36.5823102 341.139097,37.0575696 L340.686621,39.6055318 C341.948151,39.0105304 343.305051,38.6534236 344.709635,38.6534236 C345.8297,38.6534236 347.163288,39.0105304 347.163288,40.2492777 C347.163288,40.604795 347.163288,40.9619018 347.066858,41.2962258 L345.948383,41.2962258 C342.947944,41.2962258 338.424768,41.6061775 338.424768,45.6540942 C338.424768,47.9148875 339.99625,49.1536347 342.209358,49.1536347 C343.972639,49.1536347 345.067272,48.367364 346.162435,46.9866217 L346.21065,46.9866217 L345.877385,48.8685851 L348.566813,48.8685851 C348.853452,46.5574578 350.067827,41.7487023 350.067827,40.1051634 C350.067827,37.2255263 347.757229,36.3200434 345.306226,36.3200434 L345.306226,36.3200434 Z M267.190441,45.475011 C267.190441,44.9997516 267.261969,44.5716474 267.332966,44.2855381 L268.499656,38.9278766 L271.357041,38.9278766 L271.856672,36.5944964 L269.000348,36.5944964 L269.786089,32.9513714 L266.356486,34.0714363 L265.809169,36.5944964 L263.500161,36.5944964 L263,38.9278766 L265.309008,38.9278766 L264.404055,43.0716929 C264.190003,44.0471137 263.999793,44.9753794 263.999793,45.9269577 C263.999793,48.28524 265.52412,49.1430381 267.690603,49.1430381 C268.238979,49.1430381 268.857293,48.9756112 269.405139,48.8569288 L269.951926,46.3804939 C269.547664,46.547391 268.976505,46.6655435 268.404287,46.6655435 C267.690603,46.6655435 267.190441,46.213067 267.190441,45.475011 L267.190441,45.475011 Z M277.524815,31.3078324 L274.333637,31.3078324 L273.667108,34.3564859 L276.858286,34.3564859 L277.524815,31.3078324 Z M273.166947,36.5944964 L270.547457,48.8569288 L273.738636,48.8569288 L276.358125,36.5944964 L273.166947,36.5944964 Z M279.683351,43.4759547 C279.683351,41.1658871 281.111778,38.7853518 283.658681,38.7853518 C284.540321,38.7853518 285.373747,38.9988741 285.992061,39.4036658 L286.778332,36.7847061 C285.921063,36.5240287 284.778745,36.3094467 283.587153,36.3094467 C279.183189,36.3094467 276.350178,39.5716225 276.350178,43.856904 C276.350178,47.02371 278.396919,49.1430381 281.563725,49.1430381 C282.611203,49.1430381 283.658681,49.0476683 284.635161,48.5718792 L284.992798,46.0461699 C284.159902,46.4514914 283.183951,46.6655435 282.39715,46.6655435 C280.206295,46.6655435 279.683351,45.0702193 279.683351,43.4759547 L279.683351,43.4759547 Z M299.206601,36.5944964 L295.063845,36.5944964 L290.611666,41.0472047 L290.562392,41.0472047 L292.68225,31 L289.491601,31 L285.705952,48.8569288 L288.825073,48.8569288 L290.206345,42.3569495 L290.25297,42.3569495 L293.420306,48.8569288 L297.015746,48.8569288 L293.326526,42.1900524 L299.206601,36.5944964 Z M304.616716,36.3094467 C300.593172,36.3094467 297.639358,39.9764142 297.639358,43.7848468 C297.639358,47.4279718 300.020953,49.1430381 303.545926,49.1430381 C304.854611,49.1430381 306.21204,48.8330864 307.450258,48.4516073 L307.85452,45.9269577 C306.664517,46.4763935 305.401397,46.8096578 304.092182,46.8096578 C302.051799,46.8096578 300.859147,46.0843178 300.706556,44.1567889 L300.703907,44.1567889 C300.698608,44.0449943 300.687482,43.9353191 300.687482,43.8176964 C300.687482,43.7949136 300.688542,43.7721308 300.688542,43.7493481 C300.688542,43.7366321 300.687482,43.7270951 300.687482,43.7138493 L300.690131,43.7138493 C300.703907,42.8745954 300.888288,42.0464679 301.208837,41.2813905 C301.821852,39.7210352 302.688128,38.642827 304.569031,38.642827 C305.901559,38.642827 306.59299,39.3798233 306.59299,40.6906278 C306.59299,40.9756774 306.568617,41.2379443 306.521462,41.5229939 L302.155646,41.5229939 C301.872186,42.4867583 301.822912,43.1320937 301.817614,43.7138493 L309.330102,43.7138493 C309.520841,42.8083664 309.640054,41.9039431 309.640054,40.9756774 C309.640054,37.8570861 307.640468,36.3094467 304.616716,36.3094467 L304.616716,36.3094467 Z" id="TicketmasterLogo"></path>
                </g>
            </g>
        </g>
    </g>
</svg>