<svg xmlns="http://www.w3.org/2000/svg" width="16" height="13" viewBox="0 0 16 13">
    <path fill="#FFF" fill-opacity=".5" fill-rule="evenodd" d="M15.558.24a6.593 6.593 0 0 1-2.085.797A3.283 3.283 0 0 0 7.88 4.03 9.32 9.32 0 0 1 1.115.6 3.28 3.28 0 0 0 2.13 4.98 3.283 3.283 0 0 1 .644 4.57v.041A3.286 3.286 0 0 0 3.277 7.83a3.283 3.283 0 0 1-1.483.056 3.287 3.287 0 0 0 3.065 2.28A6.587 6.587 0 0 1 0 11.524a9.294 9.294 0 0 0 5.031 1.474c6.038 0 9.34-5.001 9.34-9.338a8.58 8.58 0 0 0-.01-.425A6.615 6.615 0 0 0 16 1.538a6.554 6.554 0 0 1-1.885.517A3.292 3.292 0 0 0 15.558.24z"/>
</svg>
