<?xml version="1.0" encoding="UTF-8"?>
<svg width="16px" height="16px" viewBox="0 0 16 16" version="1.1" xmlns="http://www.w3.org/2000/svg" xmlns:xlink="http://www.w3.org/1999/xlink">
    <!-- Generator: Sketch 52.6 (67491) - http://www.bohemiancoding.com/sketch -->
    <desc>Created with Sketch.</desc>
    <g id="Website-Desktop" stroke="none" stroke-width="1" fill="none" fill-rule="evenodd">
        <path d="M8,8 C5.794,8 4,6.206 4,4 C4,1.795 5.794,0 8,0 C10.206,0 12,1.795 12,4 C12,6.206 10.206,8 8,8 Z M8,2 C6.897,2 6,2.896 6,4 C6,5.103 6.897,6 8,6 C9.103,6 10,5.103 10,4 C10,2.896 9.103,2 8,2 Z M16,16 L0,16 L0,15 C0,11.467 3.29,9 8,9 C12.71,9 16,11.467 16,15 L16,16 Z M2.159,14 L13.842,14 C13.244,12.192 11.009,11 8.001,11 C4.993,11 2.757,12.192 2.159,14 Z" id="User" fill="#2ce6ce"></path>
    </g>
</svg>