<?xml version="1.0" encoding="UTF-8"?>
<svg width="16px" height="13.5015381px" viewBox="0 0 16 13.5015381" version="1.1" xmlns="http://www.w3.org/2000/svg" xmlns:xlink="http://www.w3.org/1999/xlink">
    <!-- Generator: Sketch 52.6 (67491) - http://www.bohemiancoding.com/sketch -->
    <desc>Created with Sketch.</desc>
    <g id="Website-Desktop" stroke="none" stroke-width="1" fill="none" fill-rule="evenodd" fill-opacity="0.5">
        <path d="M15.5580552,0.249259165 C14.9241345,0.639765191 14.2212223,0.923297491 13.4733158,1.07700731 C12.8743907,0.413354782 12.0214973,0 11.0776153,0 C9.26484189,0 7.79502562,1.52671239 7.79502562,3.40861908 C7.79502562,3.67553411 7.824022,3.93621765 7.880015,4.18547682 C5.15235596,4.04319138 2.73365829,2.6857675 1.11486064,0.623147913 C0.831896013,1.12582056 0.670916135,1.7115796 0.670916135,2.33680467 C0.670916135,3.51974713 1.25084364,4.56351988 2.13073366,5.17420484 C1.5928009,5.1555104 1.08686414,5.00180058 0.64391951,4.74630994 C0.64391951,4.76085006 0.64391951,4.77435159 0.64391951,4.78889171 C0.64391951,6.44023368 1.77577803,7.81842915 3.27659043,8.13208026 C3.0016248,8.20997375 2.71166104,8.25151695 2.41169854,8.25151695 C2.19972503,8.25151695 1.99475066,8.22970677 1.79377578,8.19024074 C2.21172353,9.54454887 3.42357205,10.5301611 4.85939258,10.5582028 C3.73653293,11.4721531 2.32070991,12.0174075 0.782902137,12.0174075 C0.517935258,12.0174075 0.256967879,12.0007902 0,11.9696328 C1.4528184,12.9365507 3.1776028,13.5015381 5.03137108,13.5015381 C11.0686164,13.5015381 14.3702037,8.30656168 14.3702037,3.80120227 C14.3702037,3.65372393 14.3672041,3.50624559 14.360205,3.35980583 C15.0031246,2.88102052 15.560055,2.28072136 16,1.59733582 C15.4110736,1.86840516 14.7791526,2.05223379 14.1152356,2.1342816 C14.7931509,1.71261818 15.3130859,1.04377275 15.5580552,0.249259165 Z" id="Twitter" fill="#FFFFFF"></path>
    </g>
</svg>