<?xml version="1.0" encoding="UTF-8"?>
<svg width="116.21646px" height="24.4067797px" viewBox="0 0 116.21646 24.4067797" version="1.1" xmlns="http://www.w3.org/2000/svg" xmlns:xlink="http://www.w3.org/1999/xlink">
    <!-- Generator: Sketch 52.6 (67491) - http://www.bohemiancoding.com/sketch -->
    <desc>Created with Sketch.</desc>
    <g id="Website-Desktop" stroke="none" stroke-width="1" fill="none" fill-rule="evenodd" fill-opacity="0.2">
        <path d="M69.812362,0 L64.5593019,0 L64.5593019,17.1401499 C64.5593019,19.5061977 64.9655303,21.155919 65.8410403,22.3229211 C66.878835,23.6976889 68.5564651,24.3675006 70.9731622,24.3675006 C72.9174766,24.3675006 74.7946031,23.9426663 75.8892491,23.6015585 L75.8892491,18.8673958 C75.2132354,19.0389833 73.1324779,19.4844908 71.9303313,19.4844908 C71.1612883,19.4844908 70.6258524,19.3201389 70.2971485,18.9966033 C69.812362,18.5128504 69.812362,17.6797205 69.812362,16.8796676 L69.812362,8.53699785 C71.8838166,8.53699785 74.4534953,8.67964293 75.8892491,8.83675925 L75.8892491,4.19149126 L69.812362,4.19149126 L69.812362,0 Z M26.4513591,11.2596583 C26.9785257,9.36909414 28.2902402,8.15247633 30.391671,8.15247633 C32.3442547,8.15247633 33.6890464,9.52104216 33.8306578,11.2596583 L26.4513591,11.2596583 Z M36.6101695,5.8980639 C35.1051605,4.42303109 33.0151,3.67259394 30.397873,3.67259394 C27.3723502,3.67259394 24.8781286,4.79308137 23.1818926,6.90071409 C21.6706817,8.78404259 20.839619,11.4126399 20.839619,14.3182582 C20.839619,19.1630225 23.5746834,24.3416591 31.2516761,24.3416591 C34.1862368,24.3416591 37.0567106,23.4361729 38.7043646,22.6247498 L38.7043646,17.7748172 C37.7999121,18.2771759 34.9842223,19.7904542 31.1524447,19.7222326 C28.3470915,19.6757179 26.8214094,18.1738099 26.3541951,15.5121355 L39.0258329,15.5121355 L39.0268665,15.3064371 C39.0506407,13.5202727 39.0258329,12.0121627 38.9689816,11.3526877 C38.7715525,9.10861182 37.9549611,7.21598038 36.6101695,5.8980639 L36.6101695,5.8980639 Z M52.7507702,3.72427694 C51.0535005,3.72427694 49.1722393,4.35480953 48.452812,4.62356113 L48.4280041,4.19149126 L43.2007856,4.19149126 L43.2007856,23.9426663 L48.452812,23.9426663 L48.452812,9.14892456 C49.580535,8.43880015 51.3501609,8.14627437 52.7652415,8.47187727 C54.180322,8.80264847 54.8697732,9.6905624 54.8697732,12.2530055 L54.8697732,23.9426663 L60.1217996,23.9426663 L60.1217996,11.4746595 C60.1217996,6.25881123 57.7092372,3.72427694 52.7507702,3.72427694 L52.7507702,3.72427694 Z M89.1914195,11.6017997 C87.9592968,11.3702599 86.5059708,11.1139122 85.6676726,10.6518662 C85.2542086,10.4296293 85.03714,10.1133293 85.0485102,9.76085128 C85.0547122,9.41457518 85.2914203,9.09414058 85.6335618,8.91221643 C86.4026048,8.50081975 87.7949448,8.28788579 89.8974092,8.67033999 C91.9316521,9.0393566 94.1643577,9.82080356 94.8724148,10.1215986 L94.8724148,5.3450558 C92.4402128,4.13670728 90.2819308,3.66639198 87.8486951,3.7098057 C85.5880808,3.74908478 83.6375644,4.33620365 82.1956087,5.41327736 C80.6771621,6.55340433 79.8285273,8.18865443 79.7406662,10.1422718 C79.5918192,13.409671 81.6446679,15.3715577 86.3829653,16.2987507 C87.3783799,16.4920451 88.800696,16.7845709 89.4188247,17.0347166 C90.0359197,17.285896 90.3925324,17.6941917 90.3945997,18.1490021 C90.3987343,18.5872739 90.0855354,19.0038389 89.5976478,19.2116046 C88.7024983,19.5868231 87.2781148,19.5268709 86.3416189,19.4328078 C83.6272278,19.1630225 81.0461788,18.1965504 80.0962452,17.7758508 L80.0962452,22.6753992 C81.7035865,23.4930242 84.2257169,24.4315875 87.2305665,24.3788708 C90.6674859,24.3189186 94.935468,23.2955952 95.7127803,18.7609288 C96.0011715,17.0832986 95.6962418,15.5565828 94.8331357,14.3606382 C93.7839708,12.899043 92.1662929,12.1558415 89.1914195,11.6017997 L89.1914195,11.6017997 Z M12.2499045,18.830184 C11.5501167,19.2994657 10.4844133,19.6488427 9.2770984,19.6788189 C8.09459137,19.7077614 7.05576309,19.3397784 6.37664847,18.6916736 C5.45669108,17.8151299 4.99051043,16.3163229 4.99051043,14.236599 C4.99051043,12.2116591 5.5621244,8.79127821 9.35152192,8.52252661 C9.86731826,8.48428119 11.2472543,8.38504983 12.2499045,8.35093905 L12.2499045,18.830184 Z M12.2499045,4.19149126 L9.56445588,4.19149126 C1.64868768,4.19149126 0,10.1164303 0,14.3761431 C0,17.5008973 0.94373157,20.2111538 2.65753983,22.0086885 C4.12947166,23.5436736 6.10272858,24.3612986 8.36851127,24.3612986 C9.89936171,24.3612986 11.1738645,24.0791094 12.2499045,23.5136974 L12.2767797,23.9426663 L17.5019309,23.9426663 L17.5019309,0 L12.2499045,0 L12.2499045,4.19149126 Z M110.964433,4.18839028 L110.964433,18.9831657 C109.834643,19.6963911 108.066051,19.9878832 106.648903,19.6581457 C105.236923,19.3304755 104.544371,18.4404942 104.544371,15.8780511 L104.544371,4.18839028 L99.2964795,4.18839028 L99.2964795,16.6574307 C99.2964795,21.8722454 101.708008,24.4067797 106.662341,24.4067797 C108.362711,24.4067797 110.241905,23.7752134 110.964433,23.5105965 L110.988208,23.940599 L116.21646,23.940599 L116.21646,4.18839028 L110.964433,4.18839028 Z" id="DentsuLogo" fill="#000000"></path>
    </g>
</svg>