<?xml version="1.0" encoding="UTF-8"?>
<svg width="97.6271186px" height="71.4696554px" viewBox="0 0 97.6271186 71.4696554" version="1.1" xmlns="http://www.w3.org/2000/svg" xmlns:xlink="http://www.w3.org/1999/xlink">
    <!-- Generator: Sketch 52.6 (67491) - http://www.bohemiancoding.com/sketch -->
    <desc>Created with Sketch.</desc>
    <g id="Website-Desktop" stroke="none" stroke-width="1" fill="none" fill-rule="evenodd" fill-opacity="0.2">
        <path d="M28.7662691,36.9143038 C28.6974186,37.1607504 28.1732158,44.7502692 27.1738402,44.7466373 L27.1738402,45.1866094 C24.7077401,45.1866094 28.2342424,35.4205778 28.2352856,34.1862692 C29.2638705,34.1878257 29.0129834,36.0353973 28.7662691,36.9143038 M24.6967866,26.1780506 C24.6978298,25.0874594 25.4989993,24.8462011 26.1499496,24.6339976 C26.3518068,24.5686244 27.7016941,23.4017644 27.7048237,23.9776713 C28.3239567,24.5940473 28.0876743,25.0734509 27.530611,25.4241833 C26.71588,25.93783 25.2147302,26.1780506 24.6967866,26.1780506 M12.045505,27.2338799 C12.045505,27.9773705 7.97863049,27.985153 7.97602251,27.2338799 C6.58023486,27.2338799 3.91801508,22.0735467 4.23253673,20.1886191 C4.69310493,17.4294544 6.64178305,13.0323276 9.0374679,11.6574148 C9.03903269,11.210179 9.83498633,11.0898093 9.83342154,11.9215018 C10.408219,11.9235771 12.1832061,16.2397657 12.3109968,16.7617138 C12.4387875,17.2836618 15.8213297,21.6019257 15.8494958,21.6019257 C15.6241669,22.9498591 13.4282528,27.2364741 12.045505,27.2338799 M78.4867705,21.3378387 C78.4867705,18.4697187 81.2277511,19.3885755 81.2298374,17.0258008 C80.6399137,17.0258008 75.3024343,16.8353883 75.3024343,17.817543 C74.007836,17.8201372 73.6213343,23.2217287 73.6213343,24.3299603 C72.1342676,24.3299603 70.3436327,20.0179224 69.3745096,20.0179224 C69.3724232,18.5791928 65.8354889,18.8676651 65.8354889,19.4020652 C64.5784455,19.4020652 63.9713092,21.3409517 64.7740435,21.3378387 C64.7625685,27.2110512 60.6670062,22.0787351 59.642594,20.0179224 C59.1356039,18.9973739 56.6350785,12.3002514 56.6350785,10.8656725 C55.8109587,10.8682667 56.5844838,3.036452 55.484962,3.03333899 L55.484962,2.76925196 C54.0338853,2.56327445 53.2906127,3.29742601 52.3882538,3.29742601 C50.7619212,3.29742601 50.9721239,6.29577362 50.9726455,7.34537688 C51.5849978,7.34693338 52.2954099,14.8306098 50.9726455,14.8259403 C50.9705591,16.7155374 46.1092957,22.8351966 45.3102125,24.5058453 C44.7745347,25.6260102 40.8761352,28.4987997 40.621597,25.6498766 C40.597082,25.3754128 38.91859,22.4938031 38.4981846,21.8660127 C37.9578124,21.8063467 33.3630839,22.4995103 33.3667351,23.4500161 C32.3485821,23.4500161 32.3037249,24.5841894 32.3052897,22.3941868 C31.4957746,20.4231325 29.9487245,21.6506962 29.5627443,20.5460964 C29.4281729,20.1600832 28.9686479,20.4231325 28.5007773,19.6656334 C27.7397705,18.433919 23.8043379,21.2096864 23.9889824,22.1300998 C22.0001415,22.6240307 20.9360882,20.3473826 19.5653371,19.6656334 C19.5653371,18.7566344 19.3081908,14.1182493 18.8152838,12.8849784 C18.450689,11.9733853 16.2391271,7.37858232 15.5417549,6.69320125 C14.7322398,5.89782716 11.3168371,3.88370959 10.7180463,4.35325529 C7.326637,4.35325529 9.45004938,9.46222378 8.24099266,9.45755427 C3.10171924,11.7113736 -1.77362723,18.8194135 0.63248952,25.1217025 C1.71219073,27.9483157 3.30722758,30.3079774 6.64856378,30.4900885 C6.65273654,31.2221647 13.8481366,29.8711183 13.6379339,28.8184021 C14.8662896,28.8199586 18.5054565,24.746066 18.5038917,23.7141031 C19.0155762,23.7146219 20.3889352,24.4965063 21.2193141,25.1787744 C22.6224041,26.3321446 20.448397,28.0090194 20.9809453,29.3460573 C21.4988889,30.645739 27.1722754,27.7070574 27.1738402,28.290228 C28.0908038,28.293341 25.0963282,36.724929 24.4312948,37.1783908 C23.4569558,37.8430185 22.9124108,49.7679227 24.4312948,49.7627344 C24.4312948,52.3579472 28.4595714,50.7739438 29.3854021,48.7069051 C29.797462,47.7875294 31.9672963,41.9807278 32.039798,41.7545158 C32.2661701,41.0478624 32.5447017,37.4793151 32.5707815,37.1783908 C32.8727848,33.6783297 32.3047681,30.8994494 32.3052897,27.4979669 C32.0497083,25.9466502 33.0308281,25.425221 34.1960708,25.3556971 C35.2288285,25.2944746 35.6664465,26.4836445 36.1098021,27.2338799 C36.613141,28.0878824 37.3178156,28.7011454 37.7017094,29.3460573 C37.9280815,29.7263634 41.6381852,30.0163921 42.5676671,29.3460573 C43.8481823,28.4240874 48.1946317,25.5653065 48.8492331,24.2417583 C49.1408046,23.6528806 52.3376591,18.3472736 52.8305661,18.3457171 C52.3501773,17.3895041 54.1548953,18.2253474 54.1575033,19.6656334 C54.5862542,19.6666711 57.3136733,23.5989217 57.4310321,24.2417583 C57.606288,25.2016031 61.4248834,27.4979669 61.5005147,27.4979669 L64.1549105,27.4979669 C64.1549105,27.4782512 67.2943895,25.3837142 67.1624261,24.8581343 C68.149805,24.4653762 70.0624931,28.2798513 70.7014467,28.026141 C70.1490778,28.9429225 74.7573677,29.1245147 75.0369425,28.290228 C76.7498598,29.1421551 78.3558502,21.3383575 78.4867705,21.3378387 M97.419618,20.7219815 C97.4159668,19.0762368 92.2850389,20.2166362 92.2886901,22.657755 C92.197411,22.6883662 91.2230719,24.2360511 91.2267231,23.185929 C90.8344838,23.28347 88.3621245,19.4440908 87.9537158,19.1379782 C87.7289085,18.9693568 87.7283869,19.1628822 87.4227323,18.9615743 C86.9574698,18.6564993 84.999403,19.7735511 84.2378746,20.0179224 C82.7487215,20.4952506 83.2995256,21.9329424 83.7068911,22.1300998 C84.5487451,22.5373853 88.5712841,26.7752297 88.5728488,27.2338799 L90.9612314,27.2338799 C90.9581018,26.3793586 92.1311685,28.079581 91.2267231,28.3779111 C91.2262015,29.5624115 90.9612314,29.8368752 90.9612314,31.0182626 C90.5747296,31.0198191 89.3416796,42.0829383 88.8383406,42.810345 C88.4909585,43.3125773 87.299636,50.1238435 87.1572406,50.6426786 C86.6335594,52.550435 83.9556918,65.960245 82.5567746,65.9555755 C82.5526018,66.969898 80.6028805,65.1876997 80.9638241,64.1069663 C80.5877543,64.1069663 78.7804283,57.8633056 79.5487374,57.8591549 C79.9242857,55.9897923 75.5611453,57.1955649 75.567926,59.2672732 C75.8991387,59.2672732 76.2006205,65.9555755 76.8943416,65.9555755 C76.8943416,66.9034871 78.5879599,70.797344 79.5487374,70.7957875 C80.0891096,72.4290801 85.29932,70.7864484 85.29932,69.1235822 C86.5756624,69.8841943 90.4818858,54.1142037 90.9612314,51.6990267 C91.05564,51.2237738 92.9458995,42.9639202 93.0851653,42.546258 C93.5034844,41.2854889 96.096332,27.7625728 96.3581726,27.762054 C96.3581726,26.2309718 98.2411298,21.5391467 97.419618,20.7219815 M38.321364,3.29742601 C38.439766,3.03489549 40.7368694,0.548119215 38.4981846,0.0412173951 C37.559314,-0.171504965 35.7384266,0.491566197 35.3133268,0.833478479 C34.6519447,1.36424671 34.455825,2.44186706 34.7823433,3.29742601 C35.64141,5.54709468 37.8863539,4.26090266 38.321364,3.29742601" id="OgilvyLogo" fill="#000000"></path>
    </g>
</svg>