<?xml version="1.0" encoding="UTF-8"?>
<svg width="195.254237px" height="27.6919852px" viewBox="0 0 195.254237 27.6919852" version="1.1" xmlns="http://www.w3.org/2000/svg" xmlns:xlink="http://www.w3.org/1999/xlink">
    <!-- Generator: Sketch 52.6 (67491) - http://www.bohemiancoding.com/sketch -->
    <desc>Created with Sketch.</desc>
    <g id="Website-Desktop" stroke="none" stroke-width="1" fill="none" fill-rule="evenodd" fill-opacity="0.2">
        <path d="M109.341435,8.09915604 C106.728465,8.09915604 104.003961,9.2250042 102.767387,11.6585496 L102.694648,11.6585496 C102.440867,9.40604511 100.152801,8.09915604 97.9366663,8.09915604 C95.6486001,8.09915604 93.5068215,9.11670294 92.1991242,11.0394544 L92.1263846,11.0394544 L92.5628225,8.53397751 L88.0214436,8.53397751 C87.9131423,9.11670294 87.7668548,9.87885284 87.6221837,10.6046329 L84.2082694,27.2393829 L89.0745521,27.2393829 L91.0005364,18.3417071 C91.617207,15.8346138 92.5248362,11.8759604 95.829641,11.8759604 C97.0645987,11.8759604 98.1185154,12.7464115 98.1185154,14.1276567 C98.1185154,15.2518884 97.7572418,16.9968318 97.5018448,18.12268 L95.5394907,27.2393829 L100.406582,27.2393829 L102.330949,18.3417071 C102.949236,15.7998604 103.784126,11.8759604 107.163287,11.8759604 C108.398245,11.8759604 109.450545,12.7464115 109.450545,14.1276567 C109.450545,15.2518884 109.087655,16.9968318 108.833066,18.12268 L106.869904,27.2393829 L111.738611,27.2393829 L113.700157,18.3029127 C114.0978,16.7794211 114.536663,14.8898066 114.536663,13.2192193 C114.536663,10.3872222 112.137063,8.09915604 109.341435,8.09915604 L109.341435,8.09915604 Z M135.670764,14.054917 C135.670764,18.7385423 141.991032,19.0311174 141.991032,22.0457718 C141.991032,23.5700716 140.282458,24.1164272 138.651474,24.1164272 C136.761859,24.1164272 135.379806,23.4237841 134.002602,22.6632506 L132.947877,26.5491644 C134.725957,27.3856704 136.688311,27.6758208 138.651474,27.6758208 C142.82673,27.6758208 147.075533,26.2234524 147.075533,21.3555534 C147.075533,16.7794211 140.756074,15.9073535 140.756074,13.5449313 C140.756074,12.0570013 142.570524,11.6585496 144.025317,11.6585496 C145.404946,11.6585496 146.748205,12.0570013 147.270314,12.3423024 L148.324231,8.67460751 C147.368109,8.42648447 145.551234,8.09915604 143.76992,8.09915604 C139.921185,8.09915604 135.670764,9.66144211 135.670764,14.054917 L135.670764,14.054917 Z M172.336398,8.09915604 C166.200404,8.09915604 161.693779,13.6928352 161.693779,19.5023087 C161.693779,25.059618 165.32672,27.6758208 170.702989,27.6758208 C172.69848,27.6758208 174.770752,27.2030131 176.660366,26.6210959 L177.276228,22.7699355 C175.460162,23.6080579 173.535794,24.1164272 171.537878,24.1164272 C168.423813,24.1164272 166.60613,23.0099763 166.370938,20.069678 L166.367705,20.069678 C166.360431,19.8991439 166.342651,19.7318427 166.342651,19.5524182 C166.342651,19.5176648 166.345883,19.4829114 166.345883,19.4481581 C166.345883,19.4287608 166.342651,19.4142129 166.342651,19.3940074 L166.345883,19.3940074 C166.367705,18.1137896 166.648965,16.8505443 167.137937,15.683477 C168.072238,13.303274 169.394483,11.6585496 172.263658,11.6585496 C174.297136,11.6585496 175.351861,12.7827814 175.351861,14.7823135 C175.351861,15.217135 175.313874,15.6172031 175.243559,16.0520246 L168.58384,16.0520246 C168.149019,17.5221737 168.075471,18.5065837 168.064964,19.3940074 L179.527925,19.3940074 C179.818075,18.0127623 180.000732,16.6331336 180.000732,15.217135 C180.000732,10.4599618 176.9489,8.09915604 172.336398,8.09915604 L172.336398,8.09915604 Z M156.009579,22.0805252 C156.009579,21.3555534 156.119497,20.7025129 156.22699,20.266075 L158.006687,12.0933711 L162.367025,12.0933711 L163.129174,8.53397751 L158.770453,8.53397751 L159.968233,2.97666817 L154.739868,4.68524175 L153.904978,8.53397751 L150.381147,8.53397751 L149.61738,12.0933711 L153.140404,12.0933711 L151.760775,18.4144468 C151.435871,19.9023768 151.143296,21.3183753 151.143296,22.7699355 C151.143296,26.3673153 153.467732,27.6758208 156.774154,27.6758208 C157.609043,27.6758208 158.551426,27.4204238 159.387124,27.2393829 L160.22363,23.4617704 C159.605342,23.7163591 158.734083,23.8965918 157.862824,23.8965918 C156.774154,23.8965918 156.009579,23.2063734 156.009579,22.0805252 L156.009579,22.0805252 Z M193.402609,8.09915604 C191.150105,8.09915604 188.756162,10.0235239 187.882478,12.0570013 L187.80893,12.0570013 L188.462779,8.53397751 L183.814715,8.53397751 C183.668427,9.40604511 183.52214,10.2425511 183.377469,11.0394544 L180.037102,27.2393829 L184.903385,27.2393829 L186.646712,18.8492683 C187.262574,15.8346138 188.933162,12.7464115 192.385062,12.7464115 C193.000925,12.7464115 193.693568,12.855521 194.238307,13.0365619 L195.254237,8.28019695 C194.673128,8.13390943 194.020088,8.09915604 193.402609,8.09915604 L193.402609,8.09915604 Z M78.4044535,22.0805252 C78.4044535,21.3555534 78.5119465,20.7025129 78.621056,20.266075 L80.4007528,12.0933711 L84.7594744,12.0933711 L85.5232407,8.53397751 L81.1637109,8.53397751 L82.363107,2.97666817 L77.1315096,4.68524175 L76.2966201,8.53397751 L72.7744045,8.53397751 L72.0114464,12.0933711 L75.5336619,12.0933711 L74.1548414,18.4144468 C73.8267048,19.9023768 73.5365544,21.3183753 73.5365544,22.7699355 C73.5365544,26.3673153 75.8617986,27.6758208 79.1666034,27.6758208 C80.0023012,27.6758208 80.9463002,27.4204238 81.781998,27.2393829 L82.6160793,23.4617704 C81.9986005,23.7163591 81.1281493,23.8965918 80.25689,23.8965918 C79.1666034,23.8965918 78.4044535,23.2063734 78.4044535,22.0805252 L78.4044535,22.0805252 Z M122.171093,24.1317834 C120.936136,24.1317834 119.703603,23.4779347 119.703603,22.1694292 C119.703603,19.0109119 123.625886,18.6092274 125.986692,18.6092274 L127.692841,18.6092274 C126.931499,21.6271147 125.807268,24.1317834 122.171093,24.1317834 L122.171093,24.1317834 Z M125.551871,8.11532041 C123.371298,8.11532041 121.264272,8.51538849 119.195233,9.24036035 L118.505015,13.1270824 C120.429383,12.2194532 122.49923,11.674714 124.641817,11.674714 C126.35039,11.674714 128.384676,12.2194532 128.384676,14.1090677 C128.384676,14.6513822 128.384676,15.1961213 128.23758,15.7061071 L126.531431,15.7061071 C121.954491,15.7061071 115.054731,16.1789148 115.054731,22.353703 C115.054731,25.8023707 117.451906,27.6919852 120.827834,27.6919852 C123.517585,27.6919852 125.187364,26.4925892 126.857952,24.3863721 L126.931499,24.3863721 L126.42313,27.2571637 L130.525646,27.2571637 C130.962893,23.7317153 132.815329,16.3963256 132.815329,13.8892323 C132.815329,9.49656556 129.290689,8.11532041 125.551871,8.11532041 L125.551871,8.11532041 Z M6.3921989,22.0805252 C6.3921989,21.3555534 6.50130837,20.7025129 6.60960963,20.266075 L8.38930643,12.0933711 L12.748028,12.0933711 L13.5101779,8.53397751 L9.15307277,8.53397751 L10.3516606,2.97666817 L5.12006322,4.68524175 L4.28517367,8.53397751 L0.762958118,8.53397751 L0,12.0933711 L3.52221555,12.0933711 L2.14177862,18.4144468 C1.8152584,19.9023768 1.52510802,21.3183753 1.52510802,22.7699355 C1.52510802,26.3673153 3.8503522,27.6758208 7.15515702,27.6758208 C7.991663,27.6758208 8.93485381,27.4204238 9.77055158,27.2393829 L10.6046329,23.4617704 C9.98796232,23.7163591 9.11670294,23.8965918 8.24382713,23.8965918 C7.15515702,23.8965918 6.3921989,23.2063734 6.3921989,22.0805252 L6.3921989,22.0805252 Z M22.1564977,0.469574859 L17.2885986,0.469574859 L16.27186,5.12006322 L21.1397591,5.12006322 L22.1564977,0.469574859 Z M15.5089018,8.53397751 L11.5130703,27.2393829 L16.3809694,27.2393829 L20.3768009,8.53397751 L15.5089018,8.53397751 Z M25.4491793,19.0311174 C25.4491793,15.5072854 27.6281359,11.8759604 31.5132415,11.8759604 C32.8581168,11.8759604 34.1294443,12.2016724 35.0726351,12.8191512 L36.2720311,8.8241279 C34.9643339,8.42648447 33.2218151,8.09915604 31.404132,8.09915604 C24.6862212,8.09915604 20.3646777,13.0753564 20.3646777,19.6122264 C20.3646777,24.4429474 23.4868251,27.6758208 28.3175462,27.6758208 C29.9153939,27.6758208 31.5132415,27.5303415 33.0027879,26.8045614 L33.5483353,22.9517846 C32.2778161,23.5700716 30.7890779,23.8965918 29.5888736,23.8965918 C26.2468908,23.8965918 25.4491793,21.4630464 25.4491793,19.0311174 L25.4491793,19.0311174 Z M55.2304089,8.53397751 L48.9109496,8.53397751 L42.1194909,15.3262445 L42.0443266,15.3262445 L45.2780082,0 L40.4109173,0 L34.6361972,27.2393829 L39.3941786,27.2393829 L41.5012038,17.3241602 L41.5723271,17.3241602 L46.4038563,27.2393829 L51.888426,27.2393829 L46.2608017,17.0695715 L55.2304089,8.53397751 Z M63.4831264,8.09915604 C57.3455163,8.09915604 52.839699,13.6928352 52.839699,19.5023087 C52.839699,25.059618 56.4726405,27.6758208 61.8497171,27.6758208 C63.8460164,27.6758208 65.9166718,27.2030131 67.8054781,26.6210959 L68.4221487,22.7699355 C66.6068903,23.6080579 64.6800978,24.1164272 62.6829902,24.1164272 C59.5705414,24.1164272 57.7512419,23.0099763 57.518475,20.069678 L57.5144339,20.069678 C57.5063517,19.8991439 57.4893792,19.7318427 57.4893792,19.5524182 C57.4893792,19.5176648 57.4909956,19.4829114 57.4909956,19.4481581 C57.4909956,19.4287608 57.4893792,19.4142129 57.4893792,19.3940074 L57.4934202,19.3940074 C57.5144339,18.1137896 57.7956939,16.8505443 58.284666,15.683477 C59.2197746,13.303274 60.5412116,11.6585496 63.4103868,11.6585496 C65.4430559,11.6585496 66.4977808,12.7827814 66.4977808,14.7823135 C66.4977808,15.217135 66.4606028,15.6172031 66.3886714,16.0520246 L59.7289522,16.0520246 C59.2965554,17.5221737 59.2213911,18.5065837 59.2133089,19.3940074 L70.6730368,19.3940074 C70.9639954,18.0127623 71.1458445,16.6331336 71.1458445,15.217135 C71.1458445,10.4599618 68.0956285,8.09915604 63.4831264,8.09915604 L63.4831264,8.09915604 Z" id="TicketmasterLogo" fill="#000000"></path>
    </g>
</svg>