<?xml version="1.0" encoding="UTF-8"?>
<svg width="64.0677966px" height="64.0677966px" viewBox="0 0 64.0677966 64.0677966" version="1.1" xmlns="http://www.w3.org/2000/svg" xmlns:xlink="http://www.w3.org/1999/xlink">
    <!-- Generator: Sketch 52.6 (67491) - http://www.bohemiancoding.com/sketch -->
    <desc>Created with Sketch.</desc>
    <g id="Website-Desktop" stroke="none" stroke-width="1" fill="none" fill-rule="evenodd" fill-opacity="0.2">
        <path d="M26.5348214,34.4301366 C22.5424395,36.3687926 17.4771217,39.8375172 17.4771217,43.6474057 C17.4771217,45.0615054 18.1850706,45.9519477 19.507474,45.9519477 C23.4090587,45.9519477 25.8048475,39.745821 26.5348214,34.4301366 M27.5848332,17.8191846 C27.5848332,17.385875 27.334017,17.2033815 26.96903,17.2033815 C25.0982472,17.2033815 22.4511927,22.0857563 22.4511927,25.0061014 C25.3715379,23.4081598 27.5848332,19.7812143 27.5848332,17.8191846 M43.3048933,18.1846211 C43.3048933,17.7508619 43.214096,17.2033815 42.6661661,17.2033815 C41.3424142,17.2033815 39.2208151,20.0549545 39.2208151,23.6832485 C41.86742,21.3791559 43.3048933,19.4171263 43.3048933,18.1846211 M49.8535324,40.5436681 C49.8535324,44.5373985 46.4086309,48.7122739 41.3424142,48.7122739 C35.2284332,48.7122739 32.125145,43.5557095 32.125145,38.9479739 C32.125145,32.4676574 36.5512861,29.7298058 38.422069,28.7485662 C38.0584305,28.474826 37.7833419,28.1323136 37.5329752,27.6756304 C35.3875531,29.1814264 33.4484475,30.5281024 29.3643693,32.8321949 C29.1823253,35.6621923 28.9315092,38.7650309 28.2010858,40.909554 C26.6952898,45.4269418 23.5920017,48.7122739 19.507474,48.7122739 C16.063022,48.7122739 14.3738336,46.2256879 14.3738336,43.5557095 C14.3738336,41.6161544 15.5150921,39.1295684 17.567919,37.2587855 C20.1466507,34.9546929 22.9761986,33.5392448 26.8782328,31.4855189 C26.96903,30.961412 27.0607263,30.4364061 27.151074,29.797679 C26.1698345,30.6876718 24.7557348,31.0526587 23.5920017,31.0526587 C21.7441429,31.0526587 20.2149734,29.4556161 19.8729105,27.7673266 C17.385875,27.5848332 15.5150921,25.8048475 15.4229464,22.9761986 C15.4229464,20.9449473 16.2225914,19.1654111 17.567919,19.1654111 C18.0933743,19.1654111 18.2763173,19.5991703 18.2763173,19.9637077 C18.2763173,20.3057706 17.8196341,21.4695037 17.8196341,22.6112116 C17.8196341,23.7749447 18.3671145,25.2798416 19.7821132,25.2798416 C19.7821132,20.6721061 23.1586921,14.7167955 27.151074,14.7167955 C29.7981285,14.7167955 30.1626659,16.6788251 30.1626659,17.5683685 C30.1626659,21.7436934 25.9877905,26.3527774 22.6112116,27.4926874 C22.7024584,27.8585734 23.0674453,28.8398129 24.1399316,28.8398129 C25.4627846,28.8398129 27.0607263,27.5848332 27.8590229,26.6035936 C28.2010858,24.7552853 29.5473123,22.0857563 31.3268484,22.0857563 C32.0334488,22.0857563 32.3759612,22.6112116 32.3759612,23.2499388 C32.3759612,24.5723423 30.9618615,26.2606317 29.8889257,27.4018902 C29.7298058,28.291883 29.63766,29.2726731 29.63766,30.0714192 C32.7413977,28.2006363 34.3384403,27.2418713 36.6434318,25.5535819 C36.4609384,24.9373293 36.4609384,24.2078048 36.4609384,23.5012045 C36.4609384,19.3479046 39.2208151,14.7167955 42.8491091,14.7167955 C44.901936,14.7167955 45.9514982,16.1538193 45.9514982,17.7508619 C45.9514982,20.7629033 43.3736655,23.4081598 39.745821,26.1698345 C40.0195612,26.8777833 40.4528708,27.4926874 41.1608197,27.8585734 C41.2511674,27.6756304 42.41535,27.4926874 43.3736655,27.4926874 C44.4461518,27.4926874 45.9514982,27.7673266 45.9514982,28.8398129 C45.9514982,30.0714192 44.2627593,30.3460584 42.9408053,30.3460584 C42.2328565,30.4364061 41.0695729,30.1631154 41.0695729,30.1631154 C39.1300179,30.6876718 35.3875531,32.9229921 35.3875531,38.5816384 C35.3875531,42.41535 37.7833419,45.9519477 41.5253571,45.9519477 C44.354905,45.9519477 46.6589976,43.8298992 46.7506938,40.5436681 C46.7506938,38.422968 45.8602515,36.1867487 43.7382029,36.1867487 C42.6661661,36.1867487 41.7078506,36.9850453 41.7078506,38.1483288 C41.6166039,39.9283145 42.9408053,40.1108079 42.9408053,41.2516169 C42.9408053,42.050363 42.3250022,42.41535 41.7078506,42.41535 C39.9292134,42.41535 38.5820879,40.6358138 38.5820879,38.422968 C38.5820879,35.75254 40.9091045,33.5392448 43.9211459,33.5392448 C47.8222811,33.5392448 49.8535324,36.9162731 49.8535324,40.5436681 M60.5995215,32.0334488 C60.5995215,21.9037123 55.443856,11.4310139 44.354905,8.07690963 C42.050363,7.36941028 40.1112574,6.91317659 37.8750381,6.91317659 C32.7413977,6.91317659 32.5580052,9.83397122 30.1626659,9.83397122 C28.8402624,9.83397122 27.9498201,8.87565572 27.9498201,7.71192267 C27.9498201,5.68112086 30.3460584,4.08362869 34.1554974,4.08362869 C37.7154687,4.08362869 40.4528708,4.97362152 40.9783262,5.22488717 L41.0695729,4.97362152 C40.1112574,4.60908405 36.7337796,3.44535101 32.0334488,3.44535101 C21.8120161,3.44535101 11.4310139,8.69316224 8.07735912,19.6908665 C7.36941028,21.994959 6.91362608,23.9565392 6.91362608,26.1698345 C6.91362608,31.3268484 9.83397122,31.5776646 9.83397122,33.9739029 C9.83397122,35.2279837 8.87475673,36.117527 7.71237217,36.117527 C5.68112086,36.117527 4.08407818,33.7905104 4.08407818,29.8884762 C4.08407818,26.3527774 4.97407101,23.5920017 5.13364043,23.0669958 L4.88282427,22.9761986 C4.60953354,24.0473364 3.44535101,27.3335675 3.44535101,32.0334488 C3.44535101,42.3241032 8.69361173,52.7055549 19.6899675,56.0821337 C21.994959,56.7896331 23.9569887,57.2233922 26.1698345,57.2233922 C31.3268484,57.2233922 31.4864179,54.2118003 33.8822066,54.2118003 C35.1367369,54.2118003 36.118426,55.1921409 36.118426,56.4250956 C36.118426,58.3862263 33.7905104,59.9837184 29.8889257,59.9837184 C26.3532269,59.9837184 23.500755,59.0937256 23.0674453,58.9116816 L22.9761986,59.1854218 C23.9569887,59.618282 27.334017,60.599971 32.0334488,60.599971 C42.2328565,60.599971 52.7060044,55.4429571 55.990887,44.3544555 C56.6983863,42.1416097 57.131696,40.1108079 57.131696,37.9658353 C57.131696,32.7409482 54.2118003,32.5589042 54.2118003,30.1631154 C54.2118003,28.8398129 55.1013436,27.9498201 56.3333994,27.9498201 C58.3862263,27.9498201 59.9841679,30.3460584 59.9841679,34.2467441 C59.9841679,37.7150192 59.0946246,40.4528708 58.9116816,41.0691234 L59.1854218,41.1608197 C59.5274847,40.1108079 60.5995215,36.8259253 60.5995215,32.0334488 M62.5399756,32.0334488 C62.5399756,48.8956664 48.8952169,62.5395261 32.0334488,62.5395261 C15.1725797,62.5395261 1.50579594,48.8956664 1.50579594,32.0334488 C1.50579594,15.1725797 15.1725797,1.50534645 32.0334488,1.50534645 C48.8952169,1.50534645 62.5399756,15.2638264 62.5399756,32.0334488 M64.0677966,32.0334488 C64.0677966,14.3738336 49.6935135,0 32.0334488,0 C14.3738336,0 0,14.3738336 0,32.0334488 C0,49.7613867 14.3738336,64.0677966 32.0334488,64.0677966 C49.6935135,64.0677966 64.0677966,49.7613867 64.0677966,32.0334488" id="GELogo" fill="#000000"></path>
    </g>
</svg>