<?xml version="1.0" encoding="UTF-8"?>
<svg width="134.237288px" height="43.6841718px" viewBox="0 0 134.237288 43.6841718" version="1.1" xmlns="http://www.w3.org/2000/svg" xmlns:xlink="http://www.w3.org/1999/xlink">
    <!-- Generator: Sketch 52.6 (67491) - http://www.bohemiancoding.com/sketch -->
    <desc>Created with Sketch.</desc>
    <g id="Website-Desktop" stroke="none" stroke-width="1" fill="none" fill-rule="evenodd" fill-opacity="0.2">
        <path d="M126.328118,41.2181596 L126.328118,40.6593058 L126.701099,40.6593058 C126.891912,40.6593058 127.095075,40.700062 127.095075,40.924221 C127.095075,41.2021041 126.887589,41.2181596 126.655402,41.2181596 L126.328118,41.2181596 Z M127.380986,40.940894 C127.380986,40.5845861 127.169795,40.427119 126.742472,40.427119 L126.055175,40.427119 L126.055175,42.2333592 L126.328118,42.2333592 L126.328118,41.4503464 L126.643052,41.4503464 L127.119776,42.2333592 L127.426682,42.2333592 L126.91229,41.437996 C127.177822,41.4052675 127.380986,41.2638559 127.380986,40.940894 L127.380986,40.940894 Z M93.0957692,4.37333086 C93.3958829,4.83585184 93.2155677,5.50894646 93.2143326,6.04062945 C92.8117109,9.63767178 91.2586532,12.7703406 88.696571,15.4732168 C87.9858078,16.0203378 87.220703,16.7267784 86.2647851,16.4575405 C85.7683007,16.2784603 85.575635,15.7640678 85.5237635,15.2848738 C85.6034233,12.9098996 86.7266886,10.9641004 87.9561669,9.07079026 C89.1325387,7.37323329 90.7510534,5.69481937 92.4745461,4.54870597 C92.6523913,4.42520238 92.883343,4.33751482 93.0957692,4.37333086 L93.0957692,4.37333086 Z M85.1736308,24.4130249 C84.9470017,23.2601188 84.1362006,21.963331 82.913515,21.6397515 C80.1155409,20.9740671 77.8047886,22.7568416 76.0071937,24.8421999 C73.7446078,28.0075971 72.2792376,31.5305373 72.4237368,35.6438246 C72.4589353,35.7142217 72.4768433,35.8562508 72.6009644,35.8216698 C73.6155465,34.6372703 74.8783708,33.4541058 76.1572506,32.5722901 C76.8328153,32.0597502 77.596685,31.725673 78.2370512,31.19646 C78.4927036,28.963515 79.1015764,26.8917421 80.5440984,25.1596041 C81.1665565,24.5229431 81.9316613,23.7633959 82.8517632,24.1746629 C83.8774605,24.9410027 83.5711716,26.4638021 83.4427279,27.5802747 C82.6677428,31.3181111 80.7769027,34.626155 77.9665783,37.4889684 C76.1171119,39.0772247 73.7538705,40.7716941 71.2942964,39.4508231 C68.5000274,37.5272545 69.4009862,33.3108417 70.0666706,30.5659742 C72.2193383,23.2514735 76.000401,16.5989521 80.9850063,10.4651459 C83.7786577,7.3016012 86.8038783,3.96206388 90.584941,2.69862206 C90.8683818,2.64675055 91.2586532,2.50657396 91.4883698,2.73752569 C91.5587669,2.84373879 91.4525538,2.93204386 91.3994473,3.02034893 C89.0707869,4.78521537 86.9175016,7.08238231 85.5262336,9.52343095 C84.3128107,11.7705789 82.8486756,14.8501412 84.5060939,17.3733197 C85.1063214,18.1730055 86.0622392,18.4780594 87.0564432,18.2681033 C89.3276744,17.6203269 90.8764095,15.6047482 92.2127185,13.6774745 C93.8886623,10.9177866 95.1218457,7.89071337 95.0452735,4.41593961 C95.1002326,4.06148428 94.9248575,3.60019833 95.2972208,3.40629768 C98.6849246,2.85053149 101.676799,4.08433244 104.27655,5.84858136 L109.847797,9.67904548 C109.971301,9.75006005 110.165819,9.80378412 110.290558,9.68028052 C111.376154,8.28407233 112.391972,6.90453713 113.602307,5.56143549 C113.744336,5.40211584 113.869692,5.1192926 113.604159,4.97664595 C111.49904,3.65700999 109.41183,2.28550252 107.217788,1.21349128 C103.43055,-0.678583859 98.1810299,-0.146900865 94.4005847,1.36416567 C94.0986184,1.46976125 93.8509937,1.29191606 93.6385675,1.11407088 C92.5437081,0.135304859 90.9301336,0.00500856188 89.4937867,0.213112126 C84.2251232,1.20546355 79.8716213,4.45175565 75.8509616,8.46191751 C71.7055633,12.7376121 68.7822331,17.5851284 66.3535349,22.6111073 L65.0308113,25.7437761 C63.5987871,29.8515058 62.1260067,35.3066598 64.2564438,39.550861 C65.1709879,41.539269 67.1871842,43.0355151 69.3491147,43.1664289 C74.9845839,43.6999644 79.431331,39.2309867 82.2478306,34.8089403 C83.996024,31.6595985 85.6213314,28.279305 85.1736308,24.4130249 L85.1736308,24.4130249 Z M126.660342,42.6353634 C125.942786,42.6353634 125.383315,42.0802147 125.383315,41.3262252 C125.383315,40.5845861 125.942786,40.0244973 126.660342,40.0244973 C127.368635,40.0244973 127.927489,40.5845861 127.927489,41.3262252 C127.927489,42.0802147 127.368635,42.6353634 126.660342,42.6353634 L126.660342,42.6353634 Z M126.660342,39.7639047 C125.798287,39.7639047 125.068381,40.427119 125.068381,41.3262252 C125.068381,42.2333592 125.798287,42.8965735 126.660342,42.8965735 C127.513135,42.8965735 128.242423,42.2333592 128.242423,41.3262252 C128.242423,40.427119 127.513135,39.7639047 126.660342,39.7639047 L126.660342,39.7639047 Z M67.1032017,16.0370108 C67.5107636,15.9851393 67.884362,15.6492095 68.0628247,15.2953717 C68.7945835,13.9504175 69.4374197,12.5702647 70.0271494,11.172204 L69.8857378,11.0295573 L66.3936735,10.9820085 C65.9150971,11.0332624 65.3655061,11.0141194 65.0098157,11.4031557 C64.1366453,12.7110588 63.5469156,14.1455531 62.8509728,15.5257059 C62.8145392,15.6850255 62.6898006,15.8795437 62.8305947,16.0215728 C64.178019,16.1506341 65.6847629,16.0672691 67.1032017,16.0370108 L67.1032017,16.0370108 Z M122.947824,25.0756217 C121.481219,28.6874844 119.909018,32.2443881 117.770553,35.57034 C117.128952,36.4898243 116.451535,37.6044443 115.403607,38.1503302 C115.137457,38.2374002 114.800909,38.2188747 114.589101,38.0052135 C114.200064,37.6143246 114.326655,36.975811 114.363706,36.462036 L114.865749,34.7268104 C116.27863,31.3100834 117.779199,27.9118818 120.607431,25.10341 C121.24718,24.6445941 121.924597,23.6892938 122.790975,24.1005608 C123.092323,24.3136045 123.002166,24.7569824 122.947824,25.0756217 L122.947824,25.0756217 Z M97.4412433,29.3661367 C97.2985967,29.6137614 96.9441413,29.5242213 96.7496232,29.4519717 C95.7585068,29.0944288 94.8927466,28.0810818 94.8254371,26.9991902 C94.8649582,25.8469016 95.3478573,24.7674802 96.3426788,24.1147637 C96.6798436,23.9566791 97.088023,23.833793 97.4776769,23.9412411 C97.8673307,24.0672148 98.184735,24.4401957 98.3076211,24.8131765 C98.6213202,26.4100781 98.048881,27.9853665 97.4412433,29.3661367 L97.4412433,29.3661367 Z M96.2080599,32.1807837 C95.1020852,34.3038106 93.8880448,36.6398812 91.8446777,38.1565054 C91.4889874,38.3331155 91.0456094,38.5091081 90.6386651,38.365844 C90.018677,38.1688557 89.7191808,37.5470151 89.6858348,36.9443175 C89.69201,35.242438 90.3527543,33.8270867 90.960392,32.3925924 C91.4957801,31.2606819 91.9959696,30.1275364 92.7623095,29.1012215 C92.8864306,29.0308244 93.0815663,29.04935 93.1877794,29.1561806 C94.0350141,30.0991306 95.0600939,30.9358674 96.1216074,31.470638 C96.4050481,31.6318102 96.315508,31.9683575 96.2080599,32.1807837 L96.2080599,32.1807837 Z M125.158539,21.449556 C124.733069,21.4304129 124.713308,21.9083719 124.411342,22.1207981 C123.985254,22.3319892 123.720957,21.8700858 123.367119,21.7447296 C121.34907,20.815365 119.289648,21.8725558 117.724857,23.1075918 C112.960088,27.1510997 111.239065,32.6760332 107.341292,37.1826795 C106.807756,37.6773114 106.202589,38.40166 105.441189,38.0626426 C105.158366,37.8841799 105.03548,37.5643056 105.018807,37.2277583 C105.096614,35.2239124 105.652998,33.3658008 106.208146,31.5416526 C106.512583,30.8691755 106.532961,30.0534342 107.137511,29.5242213 L110.016997,27.1578924 C114.000606,23.5380019 117.275921,19.561186 120.162818,15.4046723 C120.395005,14.9625295 120.82171,14.5741106 120.858143,14.0776262 L120.73464,14.0418101 C120.096126,14.0930641 119.45823,14.090594 118.906786,14.3548917 C116.324944,17.9976304 113.528822,21.5860275 110.078749,24.7125211 C109.616846,25.0299253 109.260538,25.6492959 108.657223,25.6647338 C108.568918,25.5937193 108.533719,25.5220872 108.552245,25.4158741 C109.249422,23.5750529 110.142353,21.8225369 110.999468,20.0533478 C113.604777,14.9569718 116.441037,9.91431984 120.356719,5.37247498 C121.406499,4.18807546 122.510004,2.96847742 123.877806,2.30032295 C124.143956,2.21201788 124.53361,2.10703982 124.709603,2.42629662 C124.851015,2.74617094 124.796673,3.0296117 124.759622,3.36615901 C124.633648,3.9867646 124.295248,4.55241108 124.27487,5.19030717 C124.310069,5.22612322 124.345885,5.20883271 124.381701,5.22674073 C125.10852,4.99825908 126.208319,4.89575109 126.31762,3.90339967 C126.588093,2.78754465 126.876474,1.33514232 125.851394,0.49840544 C124.931909,-0.214210327 123.548052,0.189028925 122.589046,0.522488642 C118.541216,2.26327187 115.054709,5.99246305 112.328985,9.59876814 C107.964985,15.8412576 104.290753,22.3875658 101.819446,29.4340637 L101.552678,29.7699935 C100.930838,30.0873977 100.115096,30.1911407 99.4061856,30.0818401 C99.264774,30.0274985 99.1239799,29.8860869 99.1770864,29.6909512 C99.7167971,27.4950572 100.949981,24.7162262 99.4858454,22.5481205 C98.956015,21.8194493 98.1952328,21.4625239 97.3270025,21.4415283 C93.8868097,21.6601296 91.1641729,24.6112481 89.1164832,27.315977 C86.7643572,30.782723 84.837701,34.4106412 84.4857158,38.6986862 C84.4801581,40.4005658 84.9167433,42.2098935 86.5803368,42.9249793 C88.5817126,43.5171791 90.3762199,42.4420803 91.8341799,41.1533202 C94.6086883,38.520841 96.3741722,35.4783298 97.9803365,32.3283705 L98.3366444,31.9214262 L100.5171,31.8936379 C100.658512,31.9121634 100.835122,32.0721006 100.835122,32.2320377 C100.186728,35.0127213 99.2184601,38.1824411 100.130534,41.0755129 C100.428795,41.9628863 101.293938,42.9225093 102.28629,42.9972289 C104.891598,43.2195354 106.850365,40.9032254 108.3991,39.0475838 L108.576328,38.9771868 C108.664015,39.0309109 108.628199,39.1365064 108.699214,39.1902305 C108.801104,40.5555628 108.954866,42.1518468 110.335637,42.794683 C112.549439,43.4054083 114.256876,41.8152995 115.838957,40.4024183 C115.92788,40.3499293 116.105725,40.3326388 116.176122,40.4394694 C116.52749,41.1848136 116.453387,42.1598745 117.232078,42.6946451 C118.204668,43.2294157 119.429207,42.8261765 120.317815,42.3858861 C124.135929,40.3789526 126.577595,36.4163397 128.327641,32.7878039 C128.381983,32.5216537 128.701857,32.2221574 128.454232,31.9905882 C128.04667,31.9362466 127.533513,31.8633795 127.160532,32.0393721 C126.465207,33.0829775 125.876712,34.1617815 125.145571,35.1874788 C124.415047,36.2317018 123.596836,37.2561641 122.477275,37.8730646 C122.247559,37.9255536 121.9635,37.9064106 121.875813,37.6408778 C121.842467,37.0202723 122.199392,36.4361002 122.467395,35.8877443 L128.429531,23.8535536 L129.392859,21.9071368 C129.429293,21.7836332 129.518216,21.6064056 129.394712,21.499575 C128.048523,21.3884217 126.559069,21.4365881 125.158539,21.449556 L125.158539,21.449556 Z M120.669183,7.34050483 L120.384507,7.58812955 L118.497372,10.0279432 L116.9826,12.3096721 C116.910968,12.4510838 116.715215,12.7345245 116.998038,12.8061566 L118.557889,12.8290048 C125.170889,12.7450223 131.286787,7.53749307 133.806878,1.60685024 C133.985341,1.14679934 134.218145,0.668840407 134.237288,0.155065435 C130.395091,3.98861715 126.129894,7.23552677 120.669183,7.34050483 L120.669183,7.34050483 Z M50.332648,36.7368315 C44.6496299,34.4841259 37.3629175,34.8663695 31.5421929,36.5651615 L25.402829,38.3880746 L22.2084084,39.3693107 C18.730547,40.3147308 14.2411912,41.5577945 10.7732101,39.7200609 C7.57076182,37.989158 6.43020608,34.4575726 6.70932422,30.8599127 C7.27558822,25.8981556 9.22323998,21.5088377 11.5068215,17.2621665 C14.3060306,12.5387713 17.6375402,7.7993207 22.2244639,4.1102682 C23.4329466,3.28155905 24.6235213,2.29291274 26.2006622,2.47631558 C26.5551176,2.54794767 26.7848343,2.7788994 26.9781174,3.08148322 C27.049132,3.29390941 27.15411,3.59525819 26.9052503,3.75457783 C25.4509954,3.94477337 24.1875536,5.39347059 23.8633566,6.75695033 C23.7546735,7.41275444 23.7170049,8.13957312 24.2295448,8.63791014 C24.458644,8.88676989 24.7599927,9.01212605 25.1144481,9.01274357 C27.0830954,8.7360955 28.2607023,6.55996209 28.6386233,4.84202702 C28.9276217,3.38900718 28.7559517,1.77543266 27.4826296,0.83124764 C26.0506054,-0.272257018 23.9041128,0.180383673 22.2893032,0.583005406 C14.4276816,3.17966858 7.77022013,10.9566902 3.91690784,18.086553 C3.00668631,19.821161 2.18538738,21.5909676 1.52340809,23.4144983 C-0.515636334,28.5837414 -1.02076605,36.1514244 3.27221905,40.4388519 C5.9917683,43.4264039 10.1748352,43.54682 14.0763139,43.188042 C21.7730582,42.2216263 28.5052394,38.3454659 36.692293,39.1358889 C39.2253518,39.6410186 41.7022165,40.9439816 43.1657341,43.289315 L43.3960683,43.3424215 C48.2262941,41.0378443 54.5675864,42.3531577 59.4379508,43.6820564 C59.5447814,43.7005819 59.5447814,43.5937513 59.545399,43.5054463 C57.3056612,40.1294754 53.7666656,38.1670032 50.332648,36.7368315 L50.332648,36.7368315 Z M55.3666547,16.2976034 C53.7592553,19.8372165 51.9746283,23.3231056 49.6410278,26.5588999 C49.1254003,27.1245464 48.5906297,27.8495125 47.7927965,27.8291344 C47.5982783,27.7754103 47.3858521,27.6327637 47.2987821,27.437628 C47.0178114,26.4619496 47.4284609,25.5060317 47.6976987,24.6205109 L48.3232444,23.044605 C49.8948277,19.7532341 51.5911497,16.2846355 54.7374038,13.866435 C55.0208446,13.7256409 55.358627,13.4786337 55.7124648,13.6391884 C55.8544939,13.7287285 56.0317216,13.8534671 56.0483946,14.0306948 C56.0625975,14.8643441 55.635275,15.5541117 55.3666547,16.2976034 L55.3666547,16.2976034 Z M27.2331523,16.5186748 C27.0534546,17.262784 26.8379408,18.0068932 26.4816329,18.6787528 C26.2852622,18.9621935 25.9135164,18.7837308 25.6837997,18.7120987 C24.7451723,18.3545558 23.7559085,17.4288963 23.688599,16.3649128 C23.6571056,15.1595177 24.4234454,14.0807138 25.488664,13.5527359 C25.8258288,13.3940337 26.3037877,13.4137943 26.6230445,13.592257 C27.5604369,14.2338582 27.4140851,15.5448489 27.2331523,16.5186748 L27.2331523,16.5186748 Z M25.2484495,21.5465063 C24.1418572,23.7059668 22.7864052,25.9518797 20.8313433,27.5944776 C20.4225463,27.8581578 19.9779334,28.140981 19.4468679,27.9970993 C18.951001,27.8711256 18.6867033,27.3561156 18.5817252,26.9121202 C18.625569,24.519238 19.6432386,22.4845162 20.6423828,20.4670849 L21.6063283,18.857833 C21.7298319,18.7337119 21.801464,18.5564842 21.9793092,18.5219032 L22.1738274,18.5583367 C23.0741686,19.5710663 24.2060791,20.3738397 25.3750407,20.8382132 C25.4985443,21.0691649 25.3379896,21.3346977 25.2484495,21.5465063 L25.2484495,21.5465063 Z M58.4696826,10.9190216 C57.9028011,10.7751399 57.7058129,11.3778375 57.4217546,11.6600432 C57.0666817,11.8008373 56.836965,11.4272389 56.5541418,11.3197908 C54.8022432,10.3928963 52.7434382,11.1654113 51.2867133,12.1707306 C46.594194,15.5930153 44.7329948,20.7993095 41.2261101,25.0058421 C39.6959005,26.666348 37.9353567,28.2737474 35.9296583,29.0647879 C35.2374206,29.2395455 34.564326,29.0061237 34.1592342,28.4559152 C33.6121132,27.5852148 33.8825861,26.3631467 34.0987174,25.4239018 C34.8866704,22.8210635 36.0834202,20.3614893 37.5623758,18.0439443 C38.7393651,16.3111888 40.0583836,14.2412684 42.0813725,13.3971213 C42.4185374,13.3983564 42.7371766,13.4347899 42.9496028,13.7373738 C43.229956,14.5000085 42.2030236,14.2665867 41.8646237,14.6018989 C40.6746665,15.3775015 39.8181691,16.7403638 40.1151952,18.2125267 C40.2374638,18.5317835 40.502379,18.8516578 40.8216358,18.9591059 C41.6188515,19.2104357 42.3110892,18.8053439 42.8625328,18.274896 C44.3038198,16.6668791 45.340015,14.348099 44.2834417,12.2528605 C43.8789674,11.5248068 43.1175677,11.0789588 42.33826,10.9517501 C38.1743362,10.5120773 35.4307037,14.261029 32.8686215,17.1232249 C31.6768118,18.2539004 30.344208,19.029503 28.6960525,19.0770519 C28.5719313,19.0585263 28.4657182,18.9164972 28.4663358,18.7923761 C29.0943516,16.6143901 29.8143775,13.4434352 27.9593535,11.5939688 C27.0756852,10.8282465 25.8350916,10.7177108 24.6821855,10.9795384 C20.3700573,12.3473407 17.2515914,16.9101812 15.2181047,20.643695 C14.2541591,22.6432183 13.4489156,24.7143736 13.033326,26.9467012 C12.8134896,28.913496 12.9660165,31.0420805 14.6993896,32.2351253 C16.3623655,33.1805454 18.4742771,32.4784274 19.8958035,31.4552001 C23.326116,28.8258085 25.3954188,25.0743866 27.3047844,21.5360085 L27.5894602,21.2179868 C28.4052015,21.0963357 29.2215603,20.9573942 30.0725001,20.8900847 C30.2491102,20.9259007 30.2664007,21.1216539 30.2126767,21.262448 C28.9794932,24.2543227 27.1219991,28.2891853 29.4685675,31.3644249 C30.4405408,32.39568 31.6971899,32.82609 33.1514448,32.6538025 C36.2915238,32.0616028 38.8511359,29.9614241 41.2168473,27.6296761 C41.2884794,27.5765696 41.4657071,27.523463 41.5181961,27.6654921 C41.549072,28.8715048 41.2785991,30.270183 41.8423931,31.3539271 C42.1418893,31.9936758 42.7779328,32.5093033 43.4510274,32.6538025 C45.6302484,32.927363 47.2308551,31.5323898 48.7783552,30.1367992 C48.8839508,30.1022182 49.0080719,30.1201262 49.0790865,30.2090488 C49.2717521,30.972301 49.303863,31.8232408 50.0109211,32.3573939 C50.4703545,32.8020068 51.2150812,32.7513704 51.8177788,32.6822083 C55.4549598,31.7738394 58.0380375,28.2366963 60.0159477,25.1948026 C60.6581664,24.0270761 61.3893077,22.8951656 61.8542988,21.655807 C61.5535675,21.3711312 61.039175,21.5465063 60.6316131,21.4921647 C60.2419593,21.4378232 60.0097725,21.7910435 59.8146368,22.0744842 C59.3496458,23.0476926 58.7790591,23.9671769 58.138693,24.8514626 C57.4081692,25.7882374 56.5887228,26.9022399 55.5407948,27.5018499 C55.3456591,27.5710119 55.0801263,27.5889199 54.9566227,27.3752587 C54.9214242,27.198031 54.9405673,26.9849873 55.0109643,26.8262852 L62.2952066,12.0311715 L62.6706575,11.1289777 L62.5823525,11.0048566 C61.2534537,10.8757954 59.7640003,10.9418698 58.4696826,10.9190216 L58.4696826,10.9190216 Z" id="CocaColaLogo" fill="#000000"></path>
    </g>
</svg>