<?xml version="1.0" encoding="UTF-8"?>
<svg width="16px" height="16.6193548px" viewBox="0 0 16 16.6193548" version="1.1" xmlns="http://www.w3.org/2000/svg" xmlns:xlink="http://www.w3.org/1999/xlink">
    <!-- Generator: Sketch 52.6 (67491) - http://www.bohemiancoding.com/sketch -->
    <desc>Created with Sketch.</desc>
    <g id="Website-Desktop" stroke="none" stroke-width="1" fill="none" fill-rule="evenodd" fill-opacity="0.5">
        <path d="M15.278,0 L0.722,0 C0.324,0 0,0.335503226 0,0.748909677 L0,15.8704452 C0,16.2828129 0.324,16.6193548 0.722,16.6193548 L15.278,16.6193548 C15.676,16.6193548 16,16.2828129 16,15.8704452 L16,0.748909677 C16,0.335503226 15.676,0 15.278,0 Z M10.792,8.30967742 C10.792,9.91136774 9.542,11.2097548 8,11.2097548 C6.458,11.2097548 5.208,9.91136774 5.208,8.30967742 C5.208,6.7079871 6.458,5.4096 8,5.4096 C9.542,5.4096 10.792,6.7079871 10.792,8.30967742 Z M14,14.5419355 L2,14.5419355 L2,7.27096774 L3.317,7.27096774 C3.248,7.60647097 3.208,7.9534 3.208,8.30967742 C3.208,11.0539484 5.358,13.2871742 8,13.2871742 C10.642,13.2871742 12.792,11.0539484 12.792,8.30967742 C12.792,7.9534 12.752,7.60647097 12.683,7.27096774 L14,7.27096774 L14,14.5419355 Z M14,5.19354839 L11,5.19354839 L11,2.07741935 L14,2.07741935 L14,5.19354839 Z" id="Instagram" fill="#FFFFFF"></path>
    </g>
</svg>