<?xml version="1.0" encoding="UTF-8"?>
<svg width="88px" height="28.6374015px" viewBox="0 0 88 28.6374015" version="1.1" xmlns="http://www.w3.org/2000/svg" xmlns:xlink="http://www.w3.org/1999/xlink">
    <!-- Generator: Sketch 52.6 (67491) - http://www.bohemiancoding.com/sketch -->
    <desc>Created with Sketch.</desc>
    <g id="Website-Desktop" stroke="none" stroke-width="1" fill="none" fill-rule="evenodd" fill-opacity="0.5">
        <path d="M82.8150993,27.0207935 L82.8150993,26.6544338 L83.059609,26.6544338 C83.1846976,26.6544338 83.3178825,26.6811518 83.3178825,26.8281005 C83.3178825,27.0102683 83.1818639,27.0207935 83.0296525,27.0207935 L82.8150993,27.0207935 Z M83.5053129,26.8390305 C83.5053129,26.6054509 83.3668654,26.5022225 83.0867318,26.5022225 L82.6361701,26.5022225 L82.6361701,27.6863132 L82.8150993,27.6863132 L82.8150993,27.1730048 L83.0215562,27.1730048 L83.3340752,27.6863132 L83.5352694,27.6863132 L83.1980566,27.1649085 C83.372128,27.1434532 83.5053129,27.05075 83.5053129,26.8390305 L83.5053129,26.8390305 Z M61.0294487,2.86696134 C61.2261899,3.17016954 61.1079833,3.61142046 61.1071736,3.9599682 C60.8432327,6.31802928 59.8251171,8.37166771 58.1455299,10.1435533 C57.6795851,10.5022214 57.1780164,10.9653325 56.5513591,10.7888321 C56.225886,10.6714351 56.099583,10.3342222 56.0655783,10.020084 C56.1177997,8.46315643 56.8541625,7.18757695 57.6601539,5.94640695 C58.4313309,4.83356404 59.4923572,3.73327048 60.6222024,2.98192947 C60.7387898,2.900966 60.8901915,2.84348194 61.0294487,2.86696134 L61.0294487,2.86696134 Z M55.8360469,16.0040941 C55.6874789,15.2483001 55.1559537,14.3981836 54.3544154,14.1860593 C52.5201879,13.7496662 51.0053614,14.9183739 49.8269381,16.2854421 C48.3436873,18.3605359 47.3830557,20.6700189 47.477783,23.3665073 C47.5008576,23.4126564 47.5125973,23.5057644 47.5939656,23.4830947 C48.2590805,22.706655 49.086932,21.9310249 49.9253087,21.3529458 C50.3681789,21.0169474 50.868938,20.7979412 51.2887335,20.4510127 C51.4563279,18.9871931 51.8554778,17.6290309 52.8011312,16.4935183 C53.2091871,16.0761516 53.7107558,15.5782262 54.3139336,15.8478346 C54.9863352,16.3502129 54.7855458,17.3484925 54.7013438,18.0804023 C54.1932981,20.5307617 52.9537473,22.6993683 51.1114235,24.5761015 C49.8989956,25.6172918 48.3497596,26.7281106 46.7373721,25.8622062 C44.9055735,24.6012002 45.496202,21.8371073 45.9325952,20.0376942 C47.3437884,15.2426326 49.8224851,10.8815353 53.0901708,6.86048453 C54.9215645,4.78660523 56.9047647,2.59735299 59.3834613,1.76909668 C59.5692725,1.73509203 59.8251171,1.64319849 59.9757091,1.79460018 C60.0218583,1.86422876 59.9522297,1.92211764 59.9174154,1.98000652 C58.3908492,3.13697452 56.9792511,4.64289507 56.0671976,6.24313807 C55.2717315,7.71626841 54.3119095,9.73509255 55.3984393,11.3891763 C55.7919218,11.9134147 56.418579,12.1133945 57.070335,11.9757566 C58.5592532,11.5511032 59.5745351,10.2297794 60.4505599,8.9663444 C61.5492342,7.15721565 62.3576544,5.17280099 62.3074571,2.89489374 C62.3434858,2.66252858 62.2285177,2.36013002 62.4726226,2.23301737 C64.6934506,1.86868175 66.6547906,2.67750682 68.3590717,3.83407 L72.0113338,6.34515204 C72.0922973,6.39170603 72.2198148,6.42692514 72.3015879,6.34596167 C73.0132568,5.43066964 73.6791813,4.52630767 74.4726233,3.64582993 C74.5657313,3.54138705 74.6479093,3.35598071 74.4738378,3.2624679 C73.0938154,2.39737321 71.7255328,1.49827387 70.2872167,0.79551095 C67.8044719,-0.444849419 64.3631196,-0.0963016782 61.8848278,0.894286384 C61.6868721,0.963510151 61.5245403,0.846922754 61.3852831,0.730335356 C60.667542,0.088699852 59.6097542,0.00328339057 58.6681491,0.139706838 C55.2142474,0.790248324 52.3602851,2.91837315 49.7245193,5.54725704 C47.0069804,8.35021239 45.0905751,11.5280286 43.4984284,14.822837 L42.6313096,16.8764755 C41.6925382,19.5693205 40.7270488,23.145477 42.1236687,25.9277867 C42.7232032,27.2312985 44.0449318,28.212171 45.4621974,28.2979923 C49.1565606,28.6477545 52.0716503,25.7180913 53.9180223,22.8191942 C55.0640602,20.7546257 56.1295395,18.5386555 55.8360469,16.0040941 L55.8360469,16.0040941 Z M83.0328911,27.9498493 C82.5624933,27.9498493 82.1957288,27.5859185 82.1957288,27.0916365 C82.1957288,26.6054509 82.5624933,26.2382816 83.0328911,26.2382816 C83.4972166,26.2382816 83.8635763,26.6054509 83.8635763,27.0916365 C83.8635763,27.5859185 83.4972166,27.9498493 83.0328911,27.9498493 L83.0328911,27.9498493 Z M83.0328911,26.0674486 C82.4677661,26.0674486 81.9892719,26.5022225 81.9892719,27.0916365 C81.9892719,27.6863132 82.4677661,28.1210871 83.0328911,28.1210871 C83.5919438,28.1210871 84.0700331,27.6863132 84.0700331,27.0916365 C84.0700331,26.5022225 83.5919438,26.0674486 83.0328911,26.0674486 L83.0328911,26.0674486 Z M43.9898767,10.5131515 C44.2570561,10.4791468 44.5019706,10.2589262 44.6189628,10.0269659 C45.0986714,9.14527367 45.5200863,8.24050688 45.9066868,7.3240004 L45.8139837,7.23048759 L43.5247415,7.19931665 C43.2110081,7.23291649 42.8507206,7.22036716 42.6175459,7.47540209 C42.0451341,8.33280524 41.6585335,9.27319595 41.2023044,10.1779627 C41.1784202,10.2824056 41.0966471,10.4099231 41.1889454,10.5030311 C42.0722569,10.5876379 43.0600112,10.5329876 43.9898767,10.5131515 L43.9898767,10.5131515 Z M80.5991292,16.4384631 C79.6376879,18.8062398 78.607023,21.1379877 77.2051405,23.318334 C76.7845352,23.921107 76.3404506,24.6518024 75.6534756,25.0096609 C75.4789993,25.0667402 75.2583738,25.0545956 75.1195215,24.9145288 C74.8644865,24.6582794 74.9474741,24.2396983 74.9717631,23.9028903 L75.3008796,22.7653535 C76.2271017,20.5254991 77.2108079,18.2977892 79.0648714,16.4566799 C79.4842622,16.1559006 79.9283468,15.5296481 80.4963055,15.7992565 C80.6938564,15.9389185 80.6347531,16.2295773 80.5991292,16.4384631 L80.5991292,16.4384631 Z M63.8781484,19.2511341 C63.7846356,19.4134658 63.5522704,19.3547673 63.424753,19.3074037 C62.7750211,19.0730144 62.2074672,18.4087092 62.1633421,17.6994691 C62.1892504,16.94408 62.5058176,16.2364592 63.1579783,15.8085673 C63.3790086,15.7049341 63.6465929,15.6243754 63.9020326,15.6948136 C64.1574724,15.7773964 64.3655485,16.021906 64.4461071,16.2664157 C64.6517544,17.3132734 64.2764887,18.3459625 63.8781484,19.2511341 L63.8781484,19.2511341 Z M63.0697281,21.0962916 C62.3447003,22.4880536 61.5488294,24.0194777 60.2092887,25.0137091 C59.9761139,25.1294868 59.6854551,25.2448598 59.4186804,25.1509422 C59.0122438,25.0218054 58.8159074,24.6141544 58.7940473,24.2190526 C58.7980954,23.103376 59.23125,22.1755346 59.6295903,21.2351439 C59.9805669,20.4931137 60.308469,19.7502739 60.8108473,19.0774674 C60.8922156,19.0313182 61.0201379,19.0434628 61.0897665,19.1134962 C61.6451759,19.7316523 62.3171727,20.2801798 63.0130537,20.6307516 C63.1988649,20.7364089 63.1401664,20.9570344 63.0697281,21.0962916 L63.0697281,21.0962916 Z M82.0483753,14.0613756 C81.7694561,14.0488263 81.756502,14.3621549 81.5585463,14.5014121 C81.2792223,14.6398596 81.1059605,14.3370562 80.8740001,14.2548783 C79.551057,13.6456282 78.2009912,14.3386755 77.175184,15.1483102 C74.0516133,17.7990542 72.9233873,21.4209551 70.3681802,24.3753121 C70.018418,24.6995708 69.621697,25.1744216 69.1225572,24.9521768 C68.9371509,24.8351846 68.8565922,24.6254892 68.8456621,24.4048638 C68.8966691,23.0912315 69.2614096,21.8731361 69.6253404,20.6773056 C69.8249153,20.2364595 69.8382743,19.7016958 70.2345905,19.3547673 L72.1222538,17.8035072 C74.7337305,15.4304679 76.8808818,12.8234441 78.7734029,10.0986185 C78.9256142,9.80876931 79.205343,9.55413919 79.2292272,9.22866604 L79.1482638,9.20518664 C78.7296826,9.23878648 78.3115063,9.23716721 77.9500044,9.41042903 C76.257463,11.7984466 74.4244501,14.1508402 72.1627355,16.2004305 C71.8599321,16.4085066 71.6263525,16.8145384 71.230846,16.8246588 C71.1729571,16.7781049 71.1498825,16.731146 71.162027,16.6615175 C71.6190658,15.4547569 72.2044317,14.3058853 72.7663182,13.1460836 C74.4742426,9.80512595 76.3335687,6.49938745 78.9005155,3.52195582 C79.588705,2.74551614 80.3121137,1.94600187 81.2087841,1.50798949 C81.3832604,1.45010061 81.6387001,1.38128166 81.7540731,1.59057223 C81.8467762,1.80026762 81.8111523,1.98607878 81.7868633,2.20670424 C81.7042805,2.61354568 81.4824406,2.98435838 81.4690816,3.4025347 C81.4921562,3.42601411 81.5156356,3.41467922 81.5391151,3.42641893 C82.0155851,3.2766365 82.7365648,3.20943682 82.8082175,2.55889534 C82.9855275,1.82739038 83.1745772,0.875259968 82.5025803,0.326732455 C81.8998073,-0.14042677 80.9926116,0.123918962 80.3639303,0.342520332 C77.7103525,1.48370045 75.4247538,3.92839244 73.63789,6.29252578 C70.7770457,10.3848244 68.3683825,14.6762932 66.7483034,19.295664 L66.5734223,19.5158846 C66.1657713,19.7239607 65.6310075,19.79197 65.1662772,19.7203174 C65.073574,19.6846934 64.9812757,19.5919903 65.01609,19.464068 C65.3699003,18.0245375 66.1783206,16.2028594 65.2184987,14.7815457 C64.8711654,14.3038612 64.3724304,14.0698768 63.8032572,14.056113 C61.5480197,14.1994183 59.76318,16.1340404 58.4208057,17.9071405 C56.8788564,20.1797851 55.6158262,22.558087 55.3850803,25.3691387 C55.381437,26.4848153 55.6676429,27.6709302 56.7582208,28.1397087 C58.0702338,28.5279285 59.2466331,27.8231415 60.2024068,26.9782877 C62.0212512,25.2525513 63.178624,23.2580162 64.231554,21.1930429 L64.4651336,20.9262683 L65.8945436,20.9080515 C65.9872468,20.920196 66.1030246,21.0250437 66.1030246,21.1298914 C65.6779664,22.9527839 65.0432127,25.0307114 65.641128,26.9272807 C65.8366548,27.5090032 66.4038039,28.1380894 67.0543454,28.1870723 C68.7622698,28.3328066 70.0463504,26.8143367 71.0616323,25.5978605 L71.1778149,25.5517113 C71.235299,25.5869304 71.2118196,25.6561542 71.2583736,25.6913733 C71.3251684,26.5864245 71.4259679,27.6328774 72.3311395,28.0542922 C73.7824098,28.4546566 74.9017297,27.4122519 75.9388718,26.4860298 C75.9971655,26.4516203 76.1137529,26.4402854 76.1599021,26.5103188 C76.3902431,26.9989334 76.3416651,27.63814 76.8521397,27.9887118 C77.4897271,28.3392836 78.2924799,28.0749379 78.8750121,27.7863031 C81.3779977,26.4706467 82.9786456,23.8729338 84.1258979,21.494227 C84.1615219,21.3197507 84.3712173,21.1234143 84.2088855,20.9716078 C83.941706,20.9359839 83.6053028,20.8882154 83.3607931,21.0035884 C82.9049688,21.6877297 82.5191779,22.3949456 82.0398741,23.0673472 C81.5609752,23.7518934 81.0245922,24.4234854 80.2906583,24.8278979 C80.1400663,24.8623074 79.9538503,24.849758 79.8963662,24.6756866 C79.8745061,24.2688451 80.1084905,23.8858879 80.2841813,23.5264101 L84.1926928,15.6373296 L84.8242079,14.3613453 C84.8480921,14.2803818 84.9063858,14.1641992 84.8254223,14.0941658 C83.9429205,14.0212987 82.966501,14.0528744 82.0483753,14.0613756 L82.0483753,14.0613756 Z M79.1053531,4.81210872 L78.9187323,4.97444048 L77.6816105,6.57387384 L76.6885935,8.06967396 C76.6416347,8.16237714 76.5133076,8.3481883 76.698714,8.39514711 L77.7212826,8.41012535 C82.0564716,8.3550702 86.0657827,4.94124546 87.7178423,1.0533796 C87.8348345,0.751790676 87.9874507,0.438462045 88,0.101654007 C85.4812264,2.61476013 82.685153,4.74328977 79.1053531,4.81210872 L79.1053531,4.81210872 Z M32.995847,24.083034 C29.2703129,22.6062603 24.4934682,22.8568422 20.6776598,23.9704948 L16.6529657,25.1655156 L14.5588455,25.8087704 C12.2789142,26.4285457 9.33589201,27.2434431 7.06243776,26.0387066 C4.96305497,24.9040036 4.21535732,22.5888531 4.39833476,20.2303872 C4.76955228,16.9776798 6.04634621,14.1002381 7.54336078,11.3163091 C9.37839784,8.2198612 11.5623875,5.11288802 14.5693708,2.69450915 C15.3615983,2.15124426 16.1420862,1.50313168 17.1759897,1.62336244 C17.4083548,1.67032125 17.5589469,1.82172294 17.6856547,2.02008344 C17.7322087,2.15934061 17.8010277,2.35689148 17.6378863,2.46133436 C16.6845414,2.5860181 15.8562851,3.53571961 15.643756,4.42955633 C15.5725082,4.85947235 15.5478143,5.33594238 15.8838127,5.66262998 C16.0339999,5.82577138 16.2315508,5.9079493 16.463916,5.90835412 C17.7544737,5.72699594 18.5264604,4.30041959 18.7742086,3.17421771 C18.9636631,2.22168248 18.8511239,1.16389474 18.0163905,0.544929009 C17.0776191,-0.178479601 15.670474,0.118251519 14.6118766,0.382192433 C9.45814686,2.0844494 5.09381098,7.18271914 2.56775069,11.8567403 C1.97104992,12.9938722 1.43264284,14.1540788 0.998678635,15.3495044 C-0.338028264,18.7382305 -0.669168858,23.6992671 2.14512138,26.509914 C3.927937,28.4684204 6.67016975,28.5473597 9.22780578,28.3121609 C14.2734493,27.6786217 18.686768,25.1375832 24.0538365,25.6557494 C25.7143973,25.98689 27.3381197,26.8410546 28.2975368,28.3785509 L28.4485337,28.4133652 C31.615015,26.9025868 35.7720844,27.7648478 38.9648789,28.6360148 C39.0349123,28.6481593 39.0349123,28.5781259 39.0353171,28.520237 C37.5670446,26.3071005 35.2470363,25.020591 32.995847,24.083034 L32.995847,24.083034 Z M36.2959181,10.6839844 C35.2421785,13.0043975 34.0722564,15.2895914 32.5424516,17.4108344 C32.2044291,17.7816471 31.8538573,18.2569026 31.3308332,18.2435437 C31.2033158,18.2083246 31.0640586,18.1148118 31.0069794,17.9868895 C30.8227875,17.3472781 31.091991,16.7206208 31.2684914,16.1401127 L31.6785713,15.1070188 C32.7088315,12.9493423 33.8208648,10.6754833 35.8834092,9.09021851 C36.0692204,8.99792015 36.2906554,8.83599321 36.5226158,8.94124572 C36.6157238,8.99994424 36.7319064,9.08171734 36.7428364,9.19789992 C36.7521472,9.74440335 36.4720136,10.1965843 36.2959181,10.6839844 L36.2959181,10.6839844 Z M17.8528443,10.828909 C17.7350424,11.3167139 17.5937612,11.8045189 17.3601816,12.2449601 C17.2314497,12.4307713 16.9877496,12.3137791 16.8371576,12.2668203 C16.2218352,12.032431 15.5733178,11.4256098 15.5291927,10.7281095 C15.508547,9.93790604 16.0109253,9.23069013 16.7092353,8.88457129 C16.9302656,8.78053323 17.2435942,8.79348739 17.4528848,8.9104796 C18.0673975,9.33108483 17.9714558,10.1905121 17.8528443,10.828909 L17.8528443,10.828909 Z M16.5517613,14.1249319 C15.8263286,15.5405782 14.9377545,17.0128989 13.6561028,18.0897131 C13.3881137,18.2625701 13.0966452,18.4479764 12.7485023,18.353654 C12.423434,18.2710713 12.2501721,17.9334536 12.1813532,17.6423899 C12.2100952,16.0737227 12.8772342,14.7398495 13.5322287,13.4173112 L14.1641486,12.3623572 C14.2451121,12.2809889 14.2920709,12.1648063 14.4086583,12.1421365 L14.5361757,12.1660208 C15.1263994,12.8299212 15.8684296,13.3561838 16.6347489,13.6606064 C16.7157124,13.8120081 16.6104598,13.9860796 16.5517613,14.1249319 L16.5517613,14.1249319 Z M38.3301253,7.15802528 C37.9585029,7.06370284 37.8293662,7.45880458 37.6431502,7.64380611 C37.4103802,7.73610446 37.2597882,7.49118996 37.0743818,7.42075174 C35.925915,6.8131209 34.576254,7.31954741 33.6212898,7.97859006 C30.5450828,10.2220878 29.3249633,13.6351029 27.0260055,16.3927187 C26.0228681,17.4812726 24.8687338,18.5350122 23.5538871,19.0535832 C23.1000868,19.1681465 22.6588359,19.0151255 22.3932757,18.6544333 C22.0346076,18.0836408 22.2119176,17.2825073 22.3536036,16.6667801 C22.8701506,14.9604749 23.6546866,13.3480874 24.6242242,11.8288079 C25.395806,10.6928904 26.2604959,9.33594264 27.5866775,8.78255732 C27.8077078,8.78336695 28.0165936,8.80725118 28.1558507,9.00561168 C28.3396378,9.50556111 27.6664266,9.35254015 27.4445867,9.57235597 C26.6645036,10.0808066 26.1030219,10.9742385 26.2977391,11.939323 C26.3778929,12.1486136 26.5515596,12.358309 26.7608501,12.4287472 C27.2834693,12.5935079 27.7372696,12.3279477 28.0987715,11.9802096 C29.0436152,10.9260652 29.7228987,9.40597604 29.0302562,8.03243076 C28.7651009,7.55515111 28.2659611,7.26287298 27.7550816,7.1794806 C25.0253982,6.89125065 23.2267947,9.3488968 21.5472075,11.2252252 C20.76591,11.9664458 19.8923141,12.4748964 18.8118566,12.5060673 C18.7304883,12.4939228 18.6608597,12.4008148 18.6612646,12.3194465 C19.0729638,10.8916557 19.5449808,8.81291862 18.3289095,7.60049065 C17.7496159,7.09851713 16.9363378,7.02605483 16.1805438,7.19769738 C13.3537042,8.09436782 11.3093766,11.0855632 9.97631307,13.533089 C9.34439318,14.8438875 8.81651135,16.2016449 8.54406927,17.6650597 C8.3999543,18.9544029 8.49994418,20.3498084 9.63626649,21.1319155 C10.7264396,21.7516908 12.110915,21.2914135 13.0428045,20.6206312 C15.2915649,18.8969189 16.6481079,16.4376535 17.8998031,14.11805 L18.0864239,13.9095691 C18.6211876,13.8298201 19.1563562,13.7387362 19.7141945,13.6946111 C19.8299723,13.7180905 19.8413071,13.8464176 19.806088,13.9387159 C18.9976678,15.900056 17.7799772,18.5451326 19.3182831,20.561123 C19.9554656,21.237168 20.7792689,21.5193257 21.7326138,21.4063816 C23.79111,21.0181618 25.469078,19.641378 27.0199333,18.1127877 C27.0668921,18.0779734 27.1830746,18.0431591 27.2174841,18.1362671 C27.237725,18.9268754 27.060415,19.8437867 27.4300132,20.5542411 C27.6263496,20.9736319 28.0433115,21.3116544 28.4845624,21.4063816 C29.9131629,21.5857157 30.9624495,20.6712333 31.9769217,19.7563461 C32.0461455,19.7336763 32.1275138,19.745416 32.1740678,19.8037097 C32.3003708,20.304064 32.3214213,20.8619023 32.7849372,21.2120693 C33.0861213,21.5035378 33.574331,21.4703428 33.9694327,21.4250032 C36.353807,20.8295169 38.0471579,18.5107231 39.3437879,16.5165928 C39.764798,15.7510832 40.2441017,15.009053 40.5489292,14.1965846 C40.3517831,14.0099638 40.0145703,14.1249319 39.7473908,14.089308 C39.4919511,14.0536841 39.3397397,14.2852396 39.2118175,14.4710508 C38.90699,15.1090429 38.5329388,15.7118159 38.1131432,16.2915144 C37.6342442,16.9056223 37.0970516,17.6359128 36.4100766,18.0289905 C36.2821543,18.07433 36.1080828,18.0860697 36.0271194,17.9460029 C36.0040448,17.8298203 36.0165941,17.6901583 36.0627433,17.5861203 L40.8379688,7.88710134 L41.0840977,7.29566318 L41.0262088,7.21429489 C40.1550419,7.12968807 39.1786224,7.17300353 38.3301253,7.15802528 L38.3301253,7.15802528 Z" id="CocaColaLogo" fill="#FFFFFF"></path>
    </g>
</svg>