<?xml version="1.0" encoding="UTF-8"?>
<svg width="20px" height="13px" viewBox="0 0 20 13" version="1.1" xmlns="http://www.w3.org/2000/svg" xmlns:xlink="http://www.w3.org/1999/xlink">
    <!-- Generator: Sketch 52.6 (67491) - http://www.bohemiancoding.com/sketch -->
    <desc>Created with Sketch.</desc>
    <g id="Website-Desktop" stroke="none" stroke-width="1" fill="none" fill-rule="evenodd" fill-opacity="1">
        <path d="M18,0 L2,0 C0.897,0 0,0.897 0,2 L0,11 C0,12.103 0.897,13 2,13 L18,13 C19.103,13 20,12.103 20,11 L20,2 C20,0.897 19.103,0 18,0 Z M16.113,2 L10,5.82 L3.887,2 L16.113,2 Z M2,11 L2,3.179 L9.47,7.848 C9.632,7.949 9.816,8 10,8 C10.184,8 10.368,7.949 10.53,7.848 L18,3.178 L18.001,11 L2,11 Z" id="Email" fill="#2ce6ce"></path>
    </g>
</svg>