<?xml version="1.0" encoding="UTF-8"?>
<svg width="42px" height="42px" viewBox="0 0 42 42" version="1.1" xmlns="http://www.w3.org/2000/svg" xmlns:xlink="http://www.w3.org/1999/xlink">
    <!-- Generator: Sketch 52.6 (67491) - http://www.bohemiancoding.com/sketch -->
    <desc>Created with Sketch.</desc>
    <g id="Website-Desktop" stroke="none" stroke-width="1" fill="none" fill-rule="evenodd" fill-opacity="0.5">
        <path d="M17.3950496,22.5708673 C14.7778214,23.8417641 11.4572242,26.1157057 11.4572242,28.6132993 C11.4572242,29.5403202 11.921324,30.1240546 12.788233,30.1240546 C15.3459385,30.1240546 16.9165111,26.0555938 17.3950496,22.5708673 M18.0833906,11.6814655 C18.0833906,11.3974069 17.9189667,11.2777723 17.6796975,11.2777723 C16.4532954,11.2777723 14.7180041,14.4784402 14.7180041,16.3928887 C16.6324526,15.3453492 18.0833906,12.9676849 18.0833906,11.6814655 M28.3887634,11.9210294 C28.3887634,11.6366762 28.3292407,11.2777723 27.9700422,11.2777723 C27.1022493,11.2777723 25.7114232,13.1471368 25.7114232,15.5256851 C27.4464198,14.0152244 28.3887634,12.729005 28.3887634,11.9210294 M32.6817601,26.5786269 C32.6817601,29.196739 30.4234358,31.9336018 27.1022493,31.9336018 C23.0941951,31.9336018 21.0598173,28.5531873 21.0598173,25.5325607 C21.0598173,21.2843532 23.9613987,19.4895393 25.1878008,18.8462823 C24.9494156,18.6668304 24.7690797,18.4422945 24.6049504,18.1429133 C23.198507,19.1300462 21.9273156,20.0128671 19.2499754,21.5233278 C19.1306355,23.3785483 18.9662116,25.4126314 18.4873785,26.8184854 C17.5002456,29.7798841 15.4658678,31.9336018 12.788233,31.9336018 C10.5302033,31.9336018 9.42284648,30.3035065 9.42284648,28.5531873 C9.42284648,27.2817012 10.1710048,25.6516059 11.5167469,24.4252038 C13.2072488,22.9147431 15.0621746,21.9868382 17.6201748,20.6405068 C17.6796975,20.2969256 17.7398094,19.9527551 17.7990374,19.534034 C17.1557804,20.1174737 16.2287595,20.356743 15.4658678,20.356743 C14.2544937,20.356743 13.2520381,19.3097928 13.0277969,18.2030252 C11.3974069,18.0833906 10.1710048,16.9165111 10.1105982,15.0621746 C10.1105982,13.7305766 10.6348099,12.5639917 11.5167469,12.5639917 C11.8612121,12.5639917 11.9811413,12.848345 11.9811413,13.0873195 C11.9811413,13.3115608 11.6817601,14.0744524 11.6817601,14.8229054 C11.6817601,15.5857971 12.040664,16.5723406 12.9682742,16.5723406 C12.9682742,13.551714 15.1818093,9.64767705 17.7990374,9.64767705 C19.5343287,9.64767705 19.7733032,10.9338965 19.7733032,11.5170415 C19.7733032,14.254199 17.0364404,17.2757097 14.8229054,18.022984 C14.8827227,18.2628425 15.1219919,18.9060996 15.8250663,18.9060996 C16.6922699,18.9060996 17.7398094,18.0833906 18.2631372,17.4401336 C18.4873785,16.2284648 19.3699047,14.4784402 20.5364895,14.4784402 C20.9997053,14.4784402 21.2242412,14.8229054 21.2242412,15.2416266 C21.2242412,16.1085355 20.2972203,17.215303 19.5938513,17.9634613 C19.4895393,18.5469011 19.4291327,19.1898635 19.4291327,19.7134859 C21.4638051,18.4870838 22.5107553,17.8585601 24.0218053,16.7517926 C23.9021707,16.3478047 23.9021707,15.8695609 23.9021707,15.4063452 C23.9021707,12.6836264 25.7114232,9.64767705 28.0899715,9.64767705 C29.4357136,9.64767705 30.1237599,10.589726 30.1237599,11.6366762 C30.1237599,13.6112366 28.4338474,15.3453492 26.0555938,17.1557804 C26.2350457,17.6198802 26.5191042,18.022984 26.983204,18.2628425 C27.042432,18.1429133 27.8056183,18.022984 28.4338474,18.022984 C29.1369217,18.022984 30.1237599,18.2030252 30.1237599,18.9060996 C30.1237599,19.7134859 29.0166978,19.8935272 28.1500835,19.8935272 C27.6859837,19.9527551 26.9233867,19.7735979 26.9233867,19.7735979 C25.6519006,20.1174737 23.198507,21.5828504 23.198507,25.2924074 C23.198507,27.8056183 24.7690797,30.1240546 27.2221786,30.1240546 C29.0771044,30.1240546 30.5875651,28.7329339 30.647677,26.5786269 C30.647677,25.1883901 30.0639426,23.7224241 28.6728219,23.7224241 C27.9700422,23.7224241 27.3418132,24.2457519 27.3418132,25.0083489 C27.2819959,26.1752284 28.1500835,26.294863 28.1500835,27.0427266 C28.1500835,27.5663491 27.7463903,27.8056183 27.3418132,27.8056183 C26.1758177,27.8056183 25.2927021,26.6390335 25.2927021,25.1883901 C25.2927021,23.4377762 26.8181907,21.9868382 28.7927512,21.9868382 C31.3501621,21.9868382 32.6817601,24.2006679 32.6817601,26.5786269 M39.726353,20.9997053 C39.726353,14.3591003 36.3465278,7.49366467 29.0771044,5.29486298 C27.5663491,4.83105785 26.2951576,4.53197132 24.8291916,4.53197132 C21.4638051,4.53197132 21.3435812,6.44671447 19.7733032,6.44671447 C18.9063943,6.44671447 18.3226599,5.81848541 18.3226599,5.05559375 C18.3226599,3.72429034 19.8935272,2.67704548 22.390826,2.67704548 C24.724585,2.67704548 26.5191042,3.26048522 26.8635694,3.42520381 L26.9233867,3.26048522 C26.2951576,3.02151066 24.0810333,2.258619 20.9997053,2.258619 C14.2989883,2.258619 7.49366467,5.6988508 5.29515765,12.9084569 C4.83105785,14.4189176 4.53226599,15.7048424 4.53226599,17.1557804 C4.53226599,20.5364895 6.44671447,20.7009135 6.44671447,22.2717808 C6.44671447,23.0939004 5.81789608,23.6770455 5.05588842,23.6770455 C3.72429034,23.6770455 2.67734014,22.1515568 2.67734014,19.5935566 C2.67734014,17.2757097 3.26077988,15.4658678 3.3653865,15.1216973 L3.20096258,15.0621746 C3.02180532,15.764365 2.258619,17.918672 2.258619,20.9997053 C2.258619,27.745801 5.69914547,34.5514193 12.9078676,36.7649543 C14.4189176,37.2287595 15.705137,37.5131127 17.1557804,37.5131127 C20.5364895,37.5131127 20.6410962,35.5388469 22.2116688,35.5388469 C23.0340831,35.5388469 23.6776348,36.1815146 23.6776348,36.9897849 C23.6776348,38.275415 22.1515568,39.3226599 19.5938513,39.3226599 C17.2760043,39.3226599 15.4060505,38.7392201 15.1219919,38.6198802 L15.0621746,38.7993321 C15.705137,39.083096 17.9189667,39.7266477 20.9997053,39.7266477 C27.6859837,39.7266477 34.551714,36.3459385 36.705137,29.0768097 C37.1689421,27.6261664 37.4530007,26.294863 37.4530007,24.8887143 C37.4530007,21.4635105 35.5388469,21.3441705 35.5388469,19.7735979 C35.5388469,18.9060996 36.1219919,18.3226599 36.9296729,18.3226599 C38.275415,18.3226599 39.3229545,19.8935272 39.3229545,22.4506434 C39.3229545,24.7242903 38.7398094,26.5191042 38.6198802,26.923092 L38.7993321,26.983204 C39.0235733,26.294863 39.726353,24.1414399 39.726353,20.9997053 M40.9984284,20.9997053 C40.9984284,32.0538258 32.0535311,40.9981338 20.9997053,40.9981338 C9.94646891,40.9981338 0.987132895,32.0538258 0.987132895,20.9997053 C0.987132895,9.94646891 9.94646891,0.986838228 20.9997053,0.986838228 C32.0535311,0.986838228 40.9984284,10.0062862 40.9984284,20.9997053 M42,20.9997053 C42,9.42284648 32.5768589,0 20.9997053,0 C9.42284648,0 0,9.42284648 0,20.9997053 C0,32.6213535 9.42284648,42 20.9997053,42 C32.5768589,42 42,32.6213535 42,20.9997053" id="GELogo" fill="#FFFFFF"></path>
    </g>
</svg>