<?xml version="1.0" encoding="UTF-8"?>
<svg width="22px" height="20px" viewBox="0 0 22 20" version="1.1" xmlns="http://www.w3.org/2000/svg" xmlns:xlink="http://www.w3.org/1999/xlink">
    <!-- Generator: Sketch 52.6 (67491) - http://www.bohemiancoding.com/sketch -->
    <desc>Created with Sketch.</desc>
    <g id="Website-Desktop" stroke="none" stroke-width="1" fill="none" fill-rule="evenodd" fill-opacity="0.2">
        <path d="M19.371,17.059 C20.061,16.418 20.5,15.513 20.5,14.5 C20.5,12.57 18.93,11 17,11 C15.07,11 13.5,12.57 13.5,14.5 C13.5,15.513 13.939,16.418 14.629,17.059 C13.151,17.593 12,18.621 12,20 L14,20 C14,19.402 15.413,18.643 17,18.643 C18.587,18.643 20,19.403 20,20 L22,20 C22,18.62 20.849,17.593 19.371,17.059 Z M17,13 C17.827,13 18.5,13.673 18.5,14.5 C18.5,15.327 17.827,16 17,16 C16.173,16 15.5,15.327 15.5,14.5 C15.5,13.673 16.173,13 17,13 Z M7.371,17.059 C8.849,17.593 10,18.62 10,20 L8,20 C8,19.403 6.587,18.643 5,18.643 C3.413,18.643 2,19.402 2,20 L0,20 C0,18.62 1.151,17.593 2.629,17.059 C1.939,16.418 1.5,15.513 1.5,14.5 C1.5,12.57 3.07,11 5,11 C6.93,11 8.5,12.57 8.5,14.5 C8.5,15.513 8.061,16.418 7.371,17.059 Z M5,13 C4.173,13 3.5,13.673 3.5,14.5 C3.5,15.327 4.173,16 5,16 C5.827,16 6.5,15.327 6.5,14.5 C6.5,13.673 5.827,13 5,13 Z M14,9 C14,8.402 12.587,7.643 11,7.643 C9.413,7.643 8,8.402 8,9 L6,9 C6,7.62 7.151,6.593 8.629,6.059 C7.939,5.418 7.5,4.513 7.5,3.5 C7.5,1.57 9.07,0 11,0 C12.93,0 14.5,1.57 14.5,3.5 C14.5,4.513 14.061,5.418 13.371,6.059 C14.849,6.593 16,7.62 16,9 L14,9 Z M11,2 C10.173,2 9.5,2.673 9.5,3.5 C9.5,4.327 10.173,5 11,5 C11.827,5 12.5,4.327 12.5,3.5 C12.5,2.673 11.827,2 11,2 Z" id="People" fill="#000000"></path>
    </g>
</svg>