<?xml version="1.0" encoding="UTF-8"?>
<svg width="20px" height="20px" viewBox="0 0 20 20" version="1.1" xmlns="http://www.w3.org/2000/svg" xmlns:xlink="http://www.w3.org/1999/xlink">
    <!-- Generator: Sketch 52.6 (67491) - http://www.bohemiancoding.com/sketch -->
    <desc>Created with Sketch.</desc>
    <g id="Website-Desktop" stroke="none" stroke-width="1" fill="none" fill-rule="evenodd" fill-opacity="1">
        <path d="M19,0 C19.552,0 20,0.448 20,1 L20,19 C20,19.553 19.552,20 19,20 L1,20 C0.448,20 0,19.553 0,19 L0,1 C0,0.449 0.448,0 1,0 L19,0 Z M9,18 L11,18 L11,16 L9,16 L9,18 Z M18,18 L18,2 L2,2 L2,18 L7,18 L7,15 C7,14.449 7.448,14 8,14 L12,14 C12.552,14 13,14.449 13,15 L13,18 L18,18 Z M7,5 L9,5 L9,7 L7,7 L7,5 Z M11,5 L13,5 L13,7 L11,7 L11,5 Z M15,5 L17,5 L17,7 L15,7 L15,5 Z M7,9 L9,9 L9,11 L7,11 L7,9 Z M3,5 L5,5 L5,7 L3,7 L3,5 Z M3,9 L5,9 L5,11 L3,11 L3,9 Z M11,9 L13,9 L13,11 L11,11 L11,9 Z M15,9 L17,9 L17,11 L15,11 L15,9 Z" id="Company" fill="#2ce6ce"></path>
    </g>
</svg>