<?xml version="1.0" encoding="UTF-8"?>
<svg width="64px" height="46.8523297px" viewBox="0 0 64 46.8523297" version="1.1" xmlns="http://www.w3.org/2000/svg" xmlns:xlink="http://www.w3.org/1999/xlink">
    <!-- Generator: Sketch 52.6 (67491) - http://www.bohemiancoding.com/sketch -->
    <desc>Created with Sketch.</desc>
    <g id="Website-Desktop" stroke="none" stroke-width="1" fill="none" fill-rule="evenodd">
        <path d="M18.8578875,24.1993769 C18.8127522,24.3609364 18.4691081,29.3362876 17.8139619,29.3339067 L17.8139619,29.6223329 C16.1972963,29.6223329 18.5091145,23.2201565 18.5097983,22.4109987 C19.1840929,22.4120191 19.0196225,23.6232049 18.8578875,24.1993769 M16.1901156,17.1611665 C16.1907995,16.4462234 16.7160107,16.2880652 17.1427448,16.148954 C17.2750734,16.1060982 18.1599995,15.3411567 18.1620511,15.7186956 C18.5679272,16.1227643 18.4130309,16.43704 18.047845,16.6669646 C17.5137435,17.0036886 16.5296565,17.1611665 16.1901156,17.1611665 M7.89649774,17.8533213 C7.89649774,18.3407207 5.23043554,18.3458225 5.22872587,17.8533213 C4.31370952,17.8533213 2.56847655,14.4704362 2.77466297,13.2347614 C3.07659101,11.4259757 4.35405778,8.54341475 5.92456229,7.64208302 C5.92558809,7.34889511 6.44737993,7.26998607 6.44635412,7.81520674 C6.82316579,7.81656724 7.98676841,10.6460686 8.07054233,10.9882346 C8.15431625,11.3304005 10.3717606,14.1612624 10.390225,14.1612624 C10.2425094,15.0449076 8.80296573,17.8550219 7.89649774,17.8533213 M51.4524384,13.9881387 C51.4524384,12.1079267 53.2493035,12.7102884 53.2506712,11.1613583 C52.8639435,11.1613583 49.3649291,11.0365323 49.3649291,11.6803893 C48.5162481,11.6820899 48.2628747,15.2231332 48.2628747,15.9496406 C47.2880198,15.9496406 46.1141592,13.1228602 45.4788452,13.1228602 C45.4774774,12.1796931 43.1588205,12.3688027 43.1588205,12.7191316 C42.3347587,12.7191316 41.9367471,13.9901794 42.4629841,13.9881387 C42.4554615,17.8383558 39.770593,14.4738374 39.0990339,13.1228602 C38.7666737,12.453834 37.1274404,8.06349812 37.1274404,7.12305199 C36.5871841,7.12475262 37.0942727,1.99056297 36.3734751,1.98852222 L36.3734751,1.81539851 C35.4222137,1.68036881 34.9349572,2.16164594 34.3434108,2.16164594 C33.2772595,2.16164594 33.415059,4.12722938 33.4154009,4.81530262 C33.8168319,4.816323 34.2825465,9.72228864 33.4154009,9.71922751 C33.4140332,10.9579634 30.227205,14.96974 29.7033615,16.0649431 C29.3521949,16.7992733 26.7965775,18.6825465 26.6297136,16.8149191 C26.6136427,16.6349929 25.5132979,14.7459376 25.2376988,14.3343861 C24.8834548,14.2952717 21.871355,14.749679 21.8737486,15.3727883 C21.2062927,15.3727883 21.1768863,16.116302 21.1779121,14.6806336 C20.64723,13.388498 19.6330527,14.1932342 19.3800213,13.4691077 C19.2918022,13.2160545 18.990558,13.388498 18.6838429,12.8919152 C18.1849607,12.084458 15.6050659,13.9041278 15.7261107,14.5075098 C14.422315,14.831309 13.7247689,13.3388397 12.8261654,12.8919152 C12.8261654,12.2960159 12.6575918,9.25529676 12.3344638,8.4468192 C12.0954517,7.84921926 10.64565,4.83707063 10.1884838,4.38776527 C9.65780163,3.86635336 7.41881544,2.5459874 7.0262748,2.85380069 C4.80301759,2.85380069 6.19503237,6.20301337 5.40242852,6.19995224 C2.03334928,7.67745604 -1.16271118,12.337171 0.414632018,16.4686716 C1.12243614,18.3216736 2.16807141,19.868563 4.35850292,19.9879469 C4.3612384,20.4678636 9.07822289,19.5821776 8.94042334,18.8920636 C9.74567876,18.893084 12.1313548,16.222421 12.130329,15.545912 C12.4657666,15.5462522 13.3660798,16.0588208 13.9104393,16.5060854 C14.8302427,17.2621837 13.4050603,18.3614683 13.7541753,19.2379709 C14.0937161,20.0899845 17.8129361,18.1635154 17.8139619,18.5458161 C18.4150825,18.5478569 16.4520374,24.0752312 16.016071,24.3725007 C15.3773377,24.808201 15.0203582,32.6256382 16.016071,32.622237 C16.016071,34.3235431 18.6568301,33.285141 19.2637636,31.9300822 C19.5338917,31.3273804 20.9563387,27.5206994 21.0038676,27.3724048 C21.1522671,26.9091543 21.33486,24.5697733 21.3519567,24.3725007 C21.5499367,22.0780162 21.1775702,20.2563057 21.1779121,18.026445 C21.0103643,17.0094707 21.6535428,16.6676449 22.4174242,16.6220681 C23.0944542,16.5819333 23.3813372,17.3615003 23.6719814,17.8533213 C24.001948,18.4131673 24.4639013,18.8151953 24.715565,19.2379709 C24.8639645,19.4872826 27.2961436,19.6774126 27.9054707,19.2379709 C28.7449195,18.6335684 31.5942585,16.7594787 32.0233862,15.8918193 C32.2145275,15.5057773 34.3102432,12.0276571 34.6333711,12.0266368 C34.3184496,11.399786 35.5015425,11.9477277 35.5032521,12.8919152 C35.7843222,12.8925955 37.572297,15.4704042 37.6492322,15.8918193 C37.7641221,16.5210509 40.2674236,18.026445 40.3170041,18.026445 L42.057108,18.026445 C42.057108,18.0135202 44.1152109,16.6404349 44.0287015,16.2958881 C44.6759833,16.0384133 45.9298566,18.5390136 46.3487262,18.3726924 C45.9866177,18.9736936 49.0076077,19.0927374 49.1908846,18.5458161 C50.313797,19.1043017 51.3666129,13.9884788 51.4524384,13.9881387 M63.8639718,13.5844101 C63.8615783,12.505533 60.49797,13.2531282 60.5003635,14.8534172 C60.440525,14.8734845 59.8017916,15.888078 59.8041852,15.1996646 C59.5470505,15.2636081 57.9262816,12.7466818 57.658547,12.5460079 C57.5111733,12.4354672 57.5108314,12.5623339 57.3104579,12.4303653 C57.0054524,12.2303717 55.7218308,12.9626613 55.2226067,13.1228602 C54.2463841,13.4357754 54.6074668,14.3782623 54.8745175,14.5075098 C55.4263995,14.7745081 58.0633973,17.5526506 58.0644231,17.8533213 L59.6301406,17.8533213 C59.628089,17.2931351 60.3970993,18.4077253 59.8041852,18.6032973 C59.8038432,19.3798031 59.6301406,19.5597293 59.6301406,20.3341944 C59.3767672,20.3352147 58.5684344,27.587704 58.2384677,28.0645595 C58.0107394,28.3938007 57.2297614,32.8589641 57.1364133,33.1990893 C56.7931112,34.4497296 55.0376202,43.2406051 54.1205522,43.2375439 C54.1178167,43.9024887 52.8396661,42.7341587 53.0762847,42.0256779 C52.82975,42.0256779 51.6449475,37.9326115 52.1486168,37.9298905 C52.3948095,36.7044194 49.5345286,37.4948703 49.5389737,38.8529902 C49.7561021,38.8529902 49.9537401,43.2375439 50.4085128,43.2375439 C50.4085128,43.8589526 51.5187737,46.4115921 52.1486168,46.4105718 C52.5028608,47.4812859 55.9184431,46.4044495 55.9184431,45.3143483 C56.7551565,45.8129718 59.3159029,35.4748669 59.6301406,33.8915842 C59.6920307,33.5800295 60.9312008,28.1652366 61.0224973,27.8914358 C61.2967286,27.0649316 62.9964843,18.1999088 63.1681354,18.1995687 C63.1681354,17.1958593 64.4025184,14.1201073 63.8639718,13.5844101 M25.121783,2.16164594 C25.1994021,1.9895426 26.7052811,0.359322596 25.2376988,0.0270202924 C24.6222169,-0.112431033 23.4285241,0.322248951 23.1498476,0.546391447 C22.7162748,0.894339509 22.5877075,1.60077951 22.8017584,2.16164594 C23.3649243,3.63642874 24.8366098,2.79325841 25.121783,2.16164594" id="OgilvyLogo" fill="#FFFFFF"></path>
    </g>
</svg>