<?xml version="1.0" encoding="UTF-8"?>
<svg width="128px" height="18.1536347px" viewBox="0 0 128 18.1536347" version="1.1" xmlns="http://www.w3.org/2000/svg" xmlns:xlink="http://www.w3.org/1999/xlink">
    <!-- Generator: Sketch 52.6 (67491) - http://www.bohemiancoding.com/sketch -->
    <desc>Created with Sketch.</desc>
    <g id="Website-Desktop" stroke="none" stroke-width="1" fill="none" fill-rule="evenodd" fill-opacity="0.5">
        <path d="M71.6793854,5.30944674 C69.9664385,5.30944674 68.1803747,6.04750275 67.3697317,7.64282699 L67.3220468,7.64282699 C67.1556796,6.16618513 65.6557251,5.30944674 64.2029257,5.30944674 C62.7029712,5.30944674 61.2989163,5.97650526 60.4416481,7.23697565 L60.3939632,7.23697565 L60.6800725,5.59449637 L57.7029464,5.59449637 C57.6319489,5.97650526 57.5360493,6.47613686 57.4412093,6.95192602 L55.2031989,17.8569288 L58.3933175,17.8569288 L59.6559072,12.024008 C60.060169,10.3804691 60.6551704,7.7853518 62.8216536,7.7853518 C63.6312369,7.7853518 64.3221379,8.35598089 64.3221379,9.26146383 C64.3221379,9.99846018 64.085303,11.1423675 63.917876,11.8804235 L62.6314439,17.8569288 L65.8220923,17.8569288 L67.0836224,12.024008 C67.4889439,10.3576863 68.0362604,7.7853518 70.2514881,7.7853518 C71.0610714,7.7853518 71.7509127,8.35598089 71.7509127,9.26146383 C71.7509127,9.99846018 71.5130181,11.1423675 71.3461211,11.8804235 L70.0591591,17.8569288 L73.2508672,17.8569288 L74.5367695,11.9985761 C74.7974469,10.9998427 75.0851457,9.76109543 75.0851457,8.66593263 C75.0851457,6.80940121 73.5120744,5.30944674 71.6793854,5.30944674 L71.6793854,5.30944674 Z M88.9397233,9.21377894 C88.9397233,12.2841555 93.0830098,12.4759547 93.0830098,14.4522282 C93.0830098,15.4514914 91.9629449,15.8096578 90.8937438,15.8096578 C89.6549966,15.8096578 88.7489838,15.3555918 87.84615,14.8570199 L87.1547192,17.4044522 C88.3203497,17.9528284 89.6067818,18.1430381 90.8937438,18.1430381 C93.6308561,18.1430381 96.4161831,17.1909299 96.4161831,13.9997516 C96.4161831,10.9998427 92.2734264,10.4281539 92.2734264,8.87945494 C92.2734264,7.90403417 93.4628993,7.64282699 94.416597,7.64282699 C95.3210203,7.64282699 96.2016011,7.90403417 96.5438726,8.09106488 L97.2347735,5.68668714 C96.6079823,5.52402871 95.4169199,5.30944674 94.2491701,5.30944674 C91.72611,5.30944674 88.9397233,6.33361205 88.9397233,9.21377894 L88.9397233,9.21377894 Z M112.976083,5.30944674 C108.953598,5.30944674 105.999255,8.9764142 105.999255,12.7848468 C105.999255,16.4279718 108.38085,18.1430381 111.905293,18.1430381 C113.213448,18.1430381 114.571937,17.8330864 115.810684,17.4516073 L116.214416,14.9269577 C115.023884,15.4763935 113.762354,15.8096578 112.452609,15.8096578 C110.411166,15.8096578 109.219574,15.0843178 109.065393,13.1567889 L109.063274,13.1567889 C109.058505,13.0449943 109.046849,12.9353191 109.046849,12.8176964 C109.046849,12.7949136 109.048968,12.7721308 109.048968,12.7493481 C109.048968,12.7366321 109.046849,12.7270951 109.046849,12.7138493 L109.048968,12.7138493 C109.063274,11.8745954 109.247655,11.0464679 109.568203,10.2813905 C110.180689,8.72103516 111.047494,7.64282699 112.928398,7.64282699 C114.261456,7.64282699 114.952886,8.37982333 114.952886,9.69062777 C114.952886,9.9756774 114.927984,10.2379443 114.881889,10.5229939 L110.516073,10.5229939 C110.231023,11.4867583 110.182809,12.1320937 110.175921,12.7138493 L117.690528,12.7138493 C117.880738,11.8083664 118.00048,10.9039431 118.00048,9.9756774 C118.00048,6.85708609 115.999834,5.30944674 112.976083,5.30944674 L112.976083,5.30944674 Z M102.272946,14.475011 C102.272946,13.9997516 102.345003,13.5716474 102.415471,13.2855381 L103.582161,7.92787662 L106.440605,7.92787662 L106.940237,5.59449637 L104.082852,5.59449637 L104.868064,1.95137135 L101.44058,3.07143626 L100.893264,5.59449637 L98.583196,5.59449637 L98.0825048,7.92787662 L100.392043,7.92787662 L99.4876193,12.0716929 C99.2746268,13.0471137 99.0828276,13.9753794 99.0828276,14.9269577 C99.0828276,17.28524 100.606625,18.1430381 102.774167,18.1430381 C103.321484,18.1430381 103.939268,17.9756112 104.487114,17.8569288 L105.03549,15.3804939 C104.630169,15.547391 104.05901,15.6655435 103.487851,15.6655435 C102.774167,15.6655435 102.272946,15.213067 102.272946,14.475011 L102.272946,14.475011 Z M126.786155,5.30944674 C125.309513,5.30944674 123.740151,6.5709768 123.167402,7.90403417 L123.119187,7.90403417 L123.547821,5.59449637 L120.500757,5.59449637 C120.404858,6.16618513 120.308958,6.71456127 120.214118,7.23697565 L118.024323,17.8569288 L121.214441,17.8569288 L122.357289,12.3567425 C122.761021,10.3804691 123.856184,8.35598089 126.119096,8.35598089 C126.522828,8.35598089 126.976894,8.42750822 127.334001,8.54619059 L128,5.42812911 C127.619051,5.33222952 127.190946,5.30944674 126.786155,5.30944674 L126.786155,5.30944674 Z M51.3984751,14.475011 C51.3984751,13.9997516 51.4689427,13.5716474 51.5404701,13.2855381 L52.7071602,7.92787662 L55.5645443,7.92787662 L56.0652356,5.59449637 L53.2073216,5.59449637 L53.9935923,1.95137135 L50.5639896,3.07143626 L50.0166732,5.59449637 L47.7076652,5.59449637 L47.2075037,7.92787662 L49.5165117,7.92787662 L48.6126183,12.0716929 C48.3975065,13.0471137 48.2072968,13.9753794 48.2072968,14.9269577 C48.2072968,17.28524 49.7316235,18.1430381 51.8981067,18.1430381 C52.445953,18.1430381 53.0647968,17.9756112 53.6126431,17.8569288 L54.1594298,15.3804939 C53.7546381,15.547391 53.184009,15.6655435 52.6128501,15.6655435 C51.8981067,15.6655435 51.3984751,15.213067 51.3984751,14.475011 L51.3984751,14.475011 Z M80.089939,15.8197247 C79.2803556,15.8197247 78.4723618,15.3910905 78.4723618,14.5332925 C78.4723618,12.4627089 81.0436366,12.1993824 82.591276,12.1993824 L83.7097514,12.1993824 C83.2106496,14.1777752 82.4736533,15.8197247 80.089939,15.8197247 L80.089939,15.8197247 Z M82.3062264,5.32004338 C80.8767395,5.32004338 79.4954675,5.58231023 78.1390975,6.05756956 L77.6866209,8.60553178 C78.948151,8.01053041 80.3050508,7.65342363 81.7096355,7.65342363 C82.8297004,7.65342363 84.1632876,8.01053041 84.1632876,9.24927769 C84.1632876,9.60479498 84.1632876,9.96190177 84.0668582,10.2962258 L82.9483828,10.2962258 C79.947944,10.2962258 75.424768,10.6061775 75.424768,14.6540942 C75.424768,16.9148875 76.9962498,18.1536347 79.2093582,18.1536347 C80.9726391,18.1536347 82.0672721,17.367364 83.1624349,15.9866217 L83.2106496,15.9866217 L82.8773853,17.8685851 L85.5668126,17.8685851 C85.8534518,15.5574578 87.0678268,10.7487023 87.0678268,9.10516338 C87.0678268,6.22552631 84.7572293,5.32004338 82.3062264,5.32004338 L82.3062264,5.32004338 Z M4.1904415,14.475011 C4.1904415,13.9997516 4.26196882,13.5716474 4.33296631,13.2855381 L5.49965644,7.92787662 L8.35704056,7.92787662 L8.85667216,5.59449637 L6.0003477,5.59449637 L6.7860886,1.95137135 L3.35648589,3.07143626 L2.80916941,5.59449637 L0.500161433,5.59449637 L0,7.92787662 L2.30900797,7.92787662 L1.40405487,12.0716929 C1.19000273,13.0471137 0.999793034,13.9753794 0.999793034,14.9269577 C0.999793034,17.28524 2.52411978,18.1430381 4.69060293,18.1430381 C5.23897908,18.1430381 5.85729306,17.9756112 6.40513937,17.8569288 L6.95192602,15.3804939 C6.54766419,15.547391 5.97650526,15.6655435 5.40428667,15.6655435 C4.69060293,15.6655435 4.1904415,15.213067 4.1904415,14.475011 L4.1904415,14.475011 Z M14.5248152,0.307832408 L11.3336369,0.307832408 L10.6671082,3.35648589 L13.8582865,3.35648589 L14.5248152,0.307832408 Z M10.1669468,5.59449637 L7.54745722,17.8569288 L10.7386355,17.8569288 L13.3581251,5.59449637 L10.1669468,5.59449637 Z M16.6833509,12.4759547 C16.6833509,10.1658871 18.111778,7.7853518 20.6586806,7.7853518 C21.540321,7.7853518 22.3737468,7.99887411 22.9920608,8.40366578 L23.7783315,5.78470607 C22.9210633,5.52402871 21.7787455,5.30944674 20.5871532,5.30944674 C16.1831894,5.30944674 13.3501776,8.57162253 13.3501776,12.856904 C13.3501776,16.02371 15.3969187,18.1430381 18.5637247,18.1430381 C19.6112026,18.1430381 20.6586806,18.0476683 21.635161,17.5718792 L21.9927976,15.0461699 C21.1599016,15.4514914 20.1839511,15.6655435 19.3971505,15.6655435 C17.2062951,15.6655435 16.6833509,14.0702193 16.6833509,12.4759547 L16.6833509,12.4759547 Z M36.2066014,5.59449637 L32.0638448,5.59449637 L27.6116662,10.0472047 L27.5623919,10.0472047 L29.6822498,0 L26.4916013,0 L22.7059515,17.8569288 L25.8250726,17.8569288 L27.2063447,11.3569495 L27.25297,11.3569495 L30.4203058,17.8569288 L34.0157459,17.8569288 L30.3265255,11.1900524 L36.2066014,5.59449637 Z M41.6167162,5.30944674 C37.5931718,5.30944674 34.6393582,8.9764142 34.6393582,12.7848468 C34.6393582,16.4279718 37.0209532,18.1430381 40.5459257,18.1430381 C41.8546108,18.1430381 43.2120404,17.8330864 44.4502579,17.4516073 L44.8545197,14.9269577 C43.664517,15.4763935 42.4013974,15.8096578 41.0921825,15.8096578 C39.0517994,15.8096578 37.8591475,15.0843178 37.7065558,13.1567889 L37.7039067,13.1567889 C37.6986084,13.0449943 37.6874819,12.9353191 37.6874819,12.8176964 C37.6874819,12.7949136 37.6885416,12.7721308 37.6885416,12.7493481 C37.6885416,12.7366321 37.6874819,12.7270951 37.6874819,12.7138493 L37.6901311,12.7138493 C37.7039067,11.8745954 37.8882882,11.0464679 38.2088366,10.2813905 C38.8218523,8.72103516 39.6881276,7.64282699 41.5690313,7.64282699 C42.9015589,7.64282699 43.5929897,8.37982333 43.5929897,9.69062777 C43.5929897,9.9756774 43.5686174,10.2379443 43.5214623,10.5229939 L39.1556464,10.5229939 C38.8721863,11.4867583 38.8229119,12.1320937 38.8176136,12.7138493 L46.3301019,12.7138493 C46.5208414,11.8083664 46.6400536,10.9039431 46.6400536,9.9756774 C46.6400536,6.85708609 44.6404676,5.30944674 41.6167162,5.30944674 L41.6167162,5.30944674 Z" id="TicketmasterLogo" fill="#FFFFFF"></path>
    </g>
</svg>